  0
SECTION
  2
HEADER
  9
$ACADVER
  1
AC1014
  9
$ACADMAINTVER
 70
     9
  9
$DWGCODEPAGE
  3
ANSI_1252
  9
$INSBASE
 10
0.0
 20
0.0
 30
0.0
  9
$EXTMIN
 10
1.000000000000000E+20
 20
1.000000000000000E+20
 30
1.000000000000000E+20
  9
$EXTMAX
 10
-1.000000000000000E+20
 20
-1.000000000000000E+20
 30
-1.000000000000000E+20
  9
$LIMMIN
 10
0.0
 20
0.0
  9
$LIMMAX
 10
12.0
 20
9.0
  9
$ORTHOMODE
 70
     0
  9
$REGENMODE
 70
     1
  9
$FILLMODE
 70
     1
  9
$QTEXTMODE
 70
     0
  9
$MIRRTEXT
 70
     1
  9
$DRAGMODE
 70
     2
  9
$LTSCALE
 40
1.0
  9
$OSMODE
 70
    37
  9
$ATTMODE
 70
     1
  9
$TEXTSIZE
 40
0.2
  9
$TRACEWID
 40
0.05
  9
$TEXTSTYLE
  7
STANDARD
  9
$CLAYER
  8
0
  9
$CELTYPE
  6
BYLAYER
  9
$CECOLOR
 62
   256
  9
$CELTSCALE
 40
1.0
  9
$DELOBJ
 70
     1
  9
$DISPSILH
 70
     0
  9
$DIMSCALE
 40
1.0
  9
$DIMASZ
 40
0.18
  9
$DIMEXO
 40
0.0625
  9
$DIMDLI
 40
0.38
  9
$DIMRND
 40
0.0
  9
$DIMDLE
 40
0.0
  9
$DIMEXE
 40
0.18
  9
$DIMTP
 40
0.0
  9
$DIMTM
 40
0.0
  9
$DIMTXT
 40
0.18
  9
$DIMCEN
 40
0.09
  9
$DIMTSZ
 40
0.0
  9
$DIMTOL
 70
     0
  9
$DIMLIM
 70
     0
  9
$DIMTIH
 70
     1
  9
$DIMTOH
 70
     1
  9
$DIMSE1
 70
     0
  9
$DIMSE2
 70
     0
  9
$DIMTAD
 70
     0
  9
$DIMZIN
 70
     0
  9
$DIMBLK
  1

  9
$DIMASO
 70
     1
  9
$DIMSHO
 70
     1
  9
$DIMPOST
  1

  9
$DIMAPOST
  1

  9
$DIMALT
 70
     0
  9
$DIMALTD
 70
     2
  9
$DIMALTF
 40
25.4
  9
$DIMLFAC
 40
1.0
  9
$DIMTOFL
 70
     0
  9
$DIMTVP
 40
0.0
  9
$DIMTIX
 70
     0
  9
$DIMSOXD
 70
     0
  9
$DIMSAH
 70
     0
  9
$DIMBLK1
  1

  9
$DIMBLK2
  1

  9
$DIMSTYLE
  2
STANDARD
  9
$DIMCLRD
 70
     0
  9
$DIMCLRE
 70
     0
  9
$DIMCLRT
 70
     0
  9
$DIMTFAC
 40
1.0
  9
$DIMGAP
 40
0.09
  9
$DIMJUST
 70
     0
  9
$DIMSD1
 70
     0
  9
$DIMSD2
 70
     0
  9
$DIMTOLJ
 70
     1
  9
$DIMTZIN
 70
     0
  9
$DIMALTZ
 70
     0
  9
$DIMALTTZ
 70
     0
  9
$DIMFIT
 70
     3
  9
$DIMUPT
 70
     0
  9
$DIMUNIT
 70
     2
  9
$DIMDEC
 70
     4
  9
$DIMTDEC
 70
     4
  9
$DIMALTU
 70
     2
  9
$DIMALTTD
 70
     2
  9
$DIMTXSTY
  7
STANDARD
  9
$DIMAUNIT
 70
     0
  9
$LUNITS
 70
     2
  9
$LUPREC
 70
     4
  9
$SKETCHINC
 40
0.1
  9
$FILLETRAD
 40
0.5
  9
$AUNITS
 70
     0
  9
$AUPREC
 70
     0
  9
$MENU
  1
.
  9
$ELEVATION
 40
0.0
  9
$PELEVATION
 40
0.0
  9
$THICKNESS
 40
0.0
  9
$LIMCHECK
 70
     0
  9
$BLIPMODE
 70
     0
  9
$CHAMFERA
 40
0.5
  9
$CHAMFERB
 40
0.5
  9
$CHAMFERC
 40
1.0
  9
$CHAMFERD
 40
0.0
  9
$SKPOLY
 70
     0
  9
$TDCREATE
 40
2452964.734852014
  9
$TDUPDATE
 40
2452964.737807419
  9
$TDINDWG
 40
0.0029613194
  9
$TDUSRTIMER
 40
0.0029570255
  9
$USRTIMER
 70
     1
  9
$ANGBASE
 50
0.0
  9
$ANGDIR
 70
     0
  9
$PDMODE
 70
     0
  9
$PDSIZE
 40
0.0
  9
$PLINEWID
 40
0.0
  9
$COORDS
 70
     1
  9
$SPLFRAME
 70
     0
  9
$SPLINETYPE
 70
     6
  9
$SPLINESEGS
 70
     8
  9
$ATTDIA
 70
     0
  9
$ATTREQ
 70
     1
  9
$HANDLING
 70
  4097
  9
$HANDSEED
  5
52
  9
$SURFTAB1
 70
     6
  9
$SURFTAB2
 70
     6
  9
$SURFTYPE
 70
     6
  9
$SURFU
 70
     6
  9
$SURFV
 70
     6
  9
$UCSNAME
  2

  9
$UCSORG
 10
0.0
 20
0.0
 30
0.0
  9
$UCSXDIR
 10
1.0
 20
0.0
 30
0.0
  9
$UCSYDIR
 10
0.0
 20
1.0
 30
0.0
  9
$PUCSNAME
  2

  9
$PUCSORG
 10
0.0
 20
0.0
 30
0.0
  9
$PUCSXDIR
 10
1.0
 20
0.0
 30
0.0
  9
$PUCSYDIR
 10
0.0
 20
1.0
 30
0.0
  9
$USERI1
 70
     0
  9
$USERI2
 70
     0
  9
$USERI3
 70
     0
  9
$USERI4
 70
     0
  9
$USERI5
 70
     0
  9
$USERR1
 40
0.0
  9
$USERR2
 40
0.0
  9
$USERR3
 40
0.0
  9
$USERR4
 40
0.0
  9
$USERR5
 40
0.0
  9
$WORLDVIEW
 70
     1
  9
$SHADEDGE
 70
     3
  9
$SHADEDIF
 70
    70
  9
$TILEMODE
 70
     1
  9
$MAXACTVP
 70
    64
  9
$PINSBASE
 10
0.0
 20
0.0
 30
0.0
  9
$PLIMCHECK
 70
     0
  9
$PEXTMIN
 10
1.000000000000000E+20
 20
1.000000000000000E+20
 30
1.000000000000000E+20
  9
$PEXTMAX
 10
-1.000000000000000E+20
 20
-1.000000000000000E+20
 30
-1.000000000000000E+20
  9
$PLIMMIN
 10
0.0
 20
0.0
  9
$PLIMMAX
 10
12.0
 20
9.0
  9
$UNITMODE
 70
     0
  9
$VISRETAIN
 70
     1
  9
$PLINEGEN
 70
     0
  9
$PSLTSCALE
 70
     1
  9
$TREEDEPTH
 70
  3020
  9
$PICKSTYLE
 70
     1
  9
$CMLSTYLE
  2
STANDARD
  9
$CMLJUST
 70
     0
  9
$CMLSCALE
 40
1.0
  9
$PROXYGRAPHICS
 70
     1
  9
$MEASUREMENT
 70
     0
  0
ENDSEC
  0
SECTION
  2
CLASSES
  0
CLASS
  1
ACDBDICTIONARYWDFLT
  2
AcDbDictionaryWithDefault
  3
AutoCAD 2000
 90
        0
280
     0
281
     0
  0
CLASS
  1
ACDBPLACEHOLDER
  2
AcDbPlaceHolder
  3
AutoCAD 2000
 90
        0
280
     0
281
     0
  0
CLASS
  1
LAYOUT
  2
AcDbLayout
  3
AutoCAD 2000
 90
        0
280
     0
281
     0
  0
CLASS
  1
LONG_TRANSACTION
  2
AcDbLongTransaction
  3
AutoCAD 2000
 90
        0
280
     0
281
     0
  0
CLASS
  1
LWPOLYLINE
  2
AcDbPolyline
  3
AutoCAD 2000
 90
        0
280
     0
281
     1
  0
CLASS
  1
HATCH
  2
AcDbHatch
  3
AutoCAD 2000
 90
        0
280
     0
281
     1
  0
CLASS
  1
XRECORD
  2
AcDbXrecord
  3
AutoCAD 2000
 90
        0
280
     0
281
     0
  0
ENDSEC
  0
SECTION
  2
TABLES
  0
TABLE
  2
VPORT
  5
8
330
0
100
AcDbSymbolTable
 70
     3
  0
VPORT
  5
2B
330
8
100
AcDbSymbolTableRecord
100
AcDbViewportTableRecord
  2
*ACTIVE
 70
     0
 10
0.0
 20
0.0
 11
1.0
 21
1.0
 12
8.841614906832298
 22
4.5
 13
0.0
 23
0.0
 14
0.5
 24
0.5
 15
0.5
 25
0.5
 16
0.0
 26
0.0
 36
1.0
 17
0.0
 27
0.0
 37
0.0
 40
9.0
 41
1.964803312629399
 42
50.0
 43
0.0
 44
0.0
 50
0.0
 51
0.0
 71
     0
 72
   100
 73
     1
 74
     3
 75
     0
 76
     0
 77
     0
 78
     0
  0
ENDTAB
  0
TABLE
  2
LTYPE
  5
5
330
0
100
AcDbSymbolTable
 70
     1
  0
LTYPE
  5
14
330
5
100
AcDbSymbolTableRecord
100
AcDbLinetypeTableRecord
  2
BYBLOCK
 70
     0
  3

 72
    65
 73
     0
 40
0.0
  0
LTYPE
  5
15
330
5
100
AcDbSymbolTableRecord
100
AcDbLinetypeTableRecord
  2
BYLAYER
 70
     0
  3

 72
    65
 73
     0
 40
0.0
  0
LTYPE
  5
16
330
5
100
AcDbSymbolTableRecord
100
AcDbLinetypeTableRecord
  2
CONTINUOUS
 70
     0
  3
Solid line
 72
    65
 73
     0
 40
0.0
  0
ENDTAB
  0
TABLE
  2
LAYER
  5
2
330
0
100
AcDbSymbolTable
 70
     1
  0
LAYER
  5
10
330
2
100
AcDbSymbolTableRecord
100
AcDbLayerTableRecord
  2
0
 70
     0
 62
     7
  6
CONTINUOUS
  0
ENDTAB
  0
TABLE
  2
STYLE
  5
3
330
0
100
AcDbSymbolTable
 70
     1
  0
STYLE
  5
11
330
3
100
AcDbSymbolTableRecord
100
AcDbTextStyleTableRecord
  2
STANDARD
 70
     0
 40
0.0
 41
1.0
 50
0.0
 71
     0
 42
0.2
  3
txt
  4

  0
ENDTAB
  0
TABLE
  2
VIEW
  5
6
330
0
100
AcDbSymbolTable
 70
     0
  0
ENDTAB
  0
TABLE
  2
UCS
  5
7
330
0
100
AcDbSymbolTable
 70
     0
  0
ENDTAB
  0
TABLE
  2
APPID
  5
9
330
0
100
AcDbSymbolTable
 70
     1
  0
APPID
  5
12
330
9
100
AcDbSymbolTableRecord
100
AcDbRegAppTableRecord
  2
ACAD
 70
     0
  0
ENDTAB
  0
TABLE
  2
DIMSTYLE
  5
A
330
0
100
AcDbSymbolTable
 70
     1
  0
DIMSTYLE
105
27
330
A
100
AcDbSymbolTableRecord
100
AcDbDimStyleTableRecord
  2
STANDARD
 70
     0
  3

  4

  5

  6

  7

 40
1.0
 41
0.18
 42
0.0625
 43
0.38
 44
0.18
 45
0.0
 46
0.0
 47
0.0
 48
0.0
140
0.18
141
0.09
142
0.0
143
25.4
144
1.0
145
0.0
146
1.0
147
0.09
 71
     0
 72
     0
 73
     1
 74
     1
 75
     0
 76
     0
 77
     0
 78
     0
170
     0
171
     2
172
     0
173
     0
174
     0
175
     0
176
     0
177
     0
178
     0
270
     2
271
     4
272
     4
273
     2
274
     2
340
11
275
     0
280
     0
281
     0
282
     0
283
     1
284
     0
285
     0
286
     0
287
     3
288
     0
  0
ENDTAB
  0
TABLE
  2
BLOCK_RECORD
  5
1
330
0
100
AcDbSymbolTable
 70
     1
  0
BLOCK_RECORD
  5
1F
102
{ACAD_XDICTIONARY
360
4E
102
}
330
1
100
AcDbSymbolTableRecord
100
AcDbBlockTableRecord
  2
*MODEL_SPACE
  0
BLOCK_RECORD
  5
1B
102
{ACAD_XDICTIONARY
360
4C
102
}
330
1
100
AcDbSymbolTableRecord
100
AcDbBlockTableRecord
  2
*PAPER_SPACE
  0
ENDTAB
  0
ENDSEC
  0
SECTION
  2
BLOCKS
  0
BLOCK
  5
20
330
1F
100
AcDbEntity
  8
0
100
AcDbBlockBegin
  2
*MODEL_SPACE
 70
     0
 10
0.0
 20
0.0
 30
0.0
  3
*MODEL_SPACE
  1

  0
ENDBLK
  5
21
330
1F
100
AcDbEntity
  8
0
100
AcDbBlockEnd
  0
BLOCK
  5
1C
330
1B
100
AcDbEntity
 67
     1
  8
0
100
AcDbBlockBegin
  2
*PAPER_SPACE
 70
     0
 10
0.0
 20
0.0
 30
0.0
  3
*PAPER_SPACE
  1

  0
ENDBLK
  5
1D
330
1B
100
AcDbEntity
 67
     1
  8
0
100
AcDbBlockEnd
  0
ENDSEC
  0
SECTION
  2
ENTITIES
0
LWPOLYLINE
5
1000
100
AcDbEntity
8
0
100
AcDbPolyline
90
38
70
0
43
0.000000
10
-181.623184
20
-111.742949
10
-181.623184
20
-109.583955
10
-181.623184
20
-109.583955
10
-181.623184
20
-107.525957
10
-181.623184
20
-107.525957
10
-181.343164
20
-107.703965
10
-181.343164
20
-107.703965
10
-179.641152
20
-107.703965
10
-179.641152
20
-107.703965
10
-179.464199
20
-107.525957
10
-179.464199
20
-107.525957
10
-179.210156
20
-107.779961
10
-179.210156
20
-107.779961
10
-179.337168
20
-107.881973
10
-179.337168
20
-107.881973
10
-179.337168
20
-111.285967
10
-179.337168
20
-111.285967
10
-179.413164
20
-111.539971
10
-179.413164
20
-111.539971
10
-179.718164
20
-111.742949
10
-179.718164
20
-111.742949
10
-180.251152
20
-111.335967
10
-180.251152
20
-111.335967
10
-180.251152
20
-111.259941
10
-180.251152
20
-111.259941
10
-179.692188
20
-111.310967
10
-179.692188
20
-111.310967
10
-179.616191
20
-111.208955
10
-179.616191
20
-111.208955
10
-179.616191
20
-107.805947
10
-179.616191
20
-107.805947
10
-181.343164
20
-107.805947
10
-181.343164
20
-107.805947
10
-181.343164
20
-110.954951
10
-181.343164
20
-110.954951
10
-181.343164
20
-111.589941
10
-181.343164
20
-111.589941
10
-181.623184
20
-111.742949
0
LWPOLYLINE
5
1001
100
AcDbEntity
8
0
100
AcDbPolyline
90
30
70
0
43
0.000000
10
-181.191172
20
-108.338955
10
-180.454160
20
-109.126963
10
-180.454160
20
-109.126963
10
-180.200195
20
-108.084951
10
-180.200195
20
-108.084951
10
-179.819199
20
-108.313955
10
-179.819199
20
-108.313955
10
-179.946152
20
-108.440947
10
-179.946152
20
-108.440947
10
-180.276191
20
-109.354951
10
-180.276191
20
-109.354951
10
-179.895195
20
-109.964941
10
-179.895195
20
-109.964941
10
-179.768184
20
-110.319951
10
-179.768184
20
-110.319951
10
-179.870156
20
-110.523945
10
-179.870156
20
-110.523945
10
-180.073164
20
-110.319951
10
-180.073164
20
-110.319951
10
-180.403145
20
-109.634941
10
-180.403145
20
-109.634941
10
-181.242207
20
-110.751963
10
-181.242207
20
-110.751963
10
-181.292148
20
-110.700977
10
-181.292148
20
-110.700977
10
-180.556152
20
-109.380967
10
-180.556152
20
-109.380967
10
-181.242207
20
-108.389951
10
-181.242207
20
-108.389951
10
-181.191172
20
-108.338955
0
LWPOLYLINE
5
1002
100
AcDbEntity
8
0
100
AcDbPolyline
90
66
70
0
43
0.000000
10
-182.588184
20
-111.056963
10
-181.750156
20
-110.472959
10
-181.750156
20
-110.472959
10
-181.699180
20
-110.523945
10
-181.699180
20
-110.523945
10
-182.715156
20
-111.564971
10
-182.715156
20
-111.564971
10
-182.943203
20
-111.285967
10
-182.943203
20
-111.285967
10
-182.867207
20
-110.980967
10
-182.867207
20
-110.980967
10
-182.867207
20
-109.938955
10
-182.867207
20
-109.938955
10
-183.020137
20
-109.938955
10
-183.020137
20
-109.938955
10
-183.502168
20
-109.989951
10
-183.502168
20
-109.989951
10
-183.680156
20
-109.811973
10
-183.680156
20
-109.811973
10
-182.867207
20
-109.811973
10
-182.867207
20
-109.811973
10
-182.867207
20
-109.024951
10
-182.867207
20
-109.024951
10
-183.248184
20
-109.024951
10
-183.248184
20
-109.024951
10
-183.680156
20
-109.507959
10
-183.680156
20
-109.507959
10
-183.731172
20
-109.456963
10
-183.731172
20
-109.456963
10
-182.816172
20
-107.271943
10
-182.816172
20
-107.271943
10
-182.435176
20
-107.500947
10
-182.435176
20
-107.500947
10
-182.588184
20
-107.627969
10
-182.588184
20
-107.627969
10
-182.816172
20
-108.135947
10
-182.816172
20
-108.135947
10
-182.181152
20
-108.135947
10
-182.181152
20
-108.135947
10
-181.953164
20
-107.932959
10
-181.953164
20
-107.932959
10
-181.648164
20
-108.262959
10
-181.648164
20
-108.262959
10
-182.842168
20
-108.262959
10
-182.842168
20
-108.262959
10
-183.197168
20
-108.897959
10
-183.197168
20
-108.897959
10
-182.308164
20
-108.897959
10
-182.308164
20
-108.897959
10
-182.131191
20
-108.719951
10
-182.131191
20
-108.719951
10
-181.826152
20
-109.024951
10
-181.826152
20
-109.024951
10
-182.588184
20
-109.024951
10
-182.588184
20
-109.024951
10
-182.588184
20
-109.811973
10
-182.588184
20
-109.811973
10
-182.181152
20
-109.811973
10
-182.181152
20
-109.811973
10
-181.953164
20
-109.583955
10
-181.953164
20
-109.583955
10
-181.648164
20
-109.938955
10
-181.648164
20
-109.938955
10
-182.588184
20
-109.938955
10
-182.588184
20
-109.938955
10
-182.588184
20
-111.056963
0
LWPOLYLINE
5
1003
100
AcDbEntity
8
0
100
AcDbPolyline
90
52
70
0
43
0.000000
10
-176.822148
20
-108.846973
10
-176.847187
20
-109.684951
10
-176.847187
20
-109.684951
10
-175.196133
20
-109.684951
10
-175.196133
20
-109.684951
10
-175.069180
20
-109.481973
10
-175.069180
20
-109.481973
10
-174.739160
20
-109.735947
10
-174.739160
20
-109.735947
10
-174.892148
20
-109.862959
10
-174.892148
20
-109.862959
10
-174.866172
20
-111.666953
10
-174.866172
20
-111.666953
10
-175.196133
20
-111.818945
10
-175.196133
20
-111.818945
10
-175.171172
20
-109.811973
10
-175.171172
20
-109.811973
10
-176.847187
20
-109.811973
10
-176.847187
20
-109.811973
10
-178.016152
20
-111.716963
10
-178.016152
20
-111.716963
10
-178.041191
20
-111.640967
10
-178.041191
20
-111.640967
10
-177.305195
20
-110.523945
10
-177.305195
20
-110.523945
10
-177.101172
20
-108.973955
10
-177.101172
20
-108.973955
10
-177.101172
20
-107.475947
10
-177.101172
20
-107.475947
10
-176.644180
20
-107.703965
10
-176.644180
20
-107.703965
10
-176.822148
20
-107.856963
10
-176.822148
20
-107.856963
10
-176.822148
20
-108.719951
10
-176.822148
20
-108.719951
10
-175.476172
20
-108.719951
10
-175.476172
20
-108.719951
10
-175.501191
20
-107.221973
10
-175.501191
20
-107.221973
10
-175.044141
20
-107.449961
10
-175.044141
20
-107.449961
10
-175.196133
20
-107.602959
10
-175.196133
20
-107.602959
10
-175.196133
20
-108.719951
10
-175.196133
20
-108.719951
10
-174.384141
20
-108.719951
10
-174.384141
20
-108.719951
10
-174.079141
20
-108.440947
10
-174.079141
20
-108.440947
10
-173.749180
20
-108.846973
10
-173.749180
20
-108.846973
10
-176.822148
20
-108.846973
0
LWPOLYLINE
5
1004
100
AcDbEntity
8
0
100
AcDbPolyline
90
2
70
0
43
0.000000
10
-183.017871
20
-113.269893
10
-183.017871
20
-117.019902
0
LWPOLYLINE
5
1005
100
AcDbEntity
8
0
100
AcDbPolyline
90
2
70
0
43
0.000000
10
-183.017871
20
-113.269893
10
-181.589297
20
-117.019902
0
LWPOLYLINE
5
1006
100
AcDbEntity
8
0
100
AcDbPolyline
90
2
70
0
43
0.000000
10
-180.160723
20
-113.269893
10
-181.589297
20
-117.019902
0
LWPOLYLINE
5
1007
100
AcDbEntity
8
0
100
AcDbPolyline
90
2
70
0
43
0.000000
10
-180.160723
20
-113.269893
10
-180.160723
20
-117.019902
0
LWPOLYLINE
5
1008
100
AcDbEntity
8
0
100
AcDbPolyline
90
40
70
0
43
0.000000
10
-178.017871
20
-113.269893
10
-178.375020
20
-113.448467
10
-178.375020
20
-113.448467
10
-178.732148
20
-113.805596
10
-178.732148
20
-113.805596
10
-178.910723
20
-114.162754
10
-178.910723
20
-114.162754
10
-179.089316
20
-114.698467
10
-179.089316
20
-114.698467
10
-179.089316
20
-115.591328
10
-179.089316
20
-115.591328
10
-178.910723
20
-116.127041
10
-178.910723
20
-116.127041
10
-178.732148
20
-116.484170
10
-178.732148
20
-116.484170
10
-178.375020
20
-116.841328
10
-178.375020
20
-116.841328
10
-178.017871
20
-117.019902
10
-178.017871
20
-117.019902
10
-177.303574
20
-117.019902
10
-177.303574
20
-117.019902
10
-176.946445
20
-116.841328
10
-176.946445
20
-116.841328
10
-176.589297
20
-116.484170
10
-176.589297
20
-116.484170
10
-176.410742
20
-116.127041
10
-176.410742
20
-116.127041
10
-176.232168
20
-115.591328
10
-176.232168
20
-115.591328
10
-176.232168
20
-114.698467
10
-176.232168
20
-114.698467
10
-176.410742
20
-114.162754
10
-176.410742
20
-114.162754
10
-176.589297
20
-113.805596
10
-176.589297
20
-113.805596
10
-176.946445
20
-113.448467
10
-176.946445
20
-113.448467
10
-177.303574
20
-113.269893
10
-177.303574
20
-113.269893
10
-178.017871
20
-113.269893
0
LWPOLYLINE
5
1009
100
AcDbEntity
8
0
100
AcDbPolyline
90
2
70
0
43
0.000000
10
-175.160742
20
-113.269893
10
-175.160742
20
-117.019902
0
LWPOLYLINE
5
1010
100
AcDbEntity
8
0
100
AcDbPolyline
90
22
70
0
43
0.000000
10
-175.160742
20
-113.269893
10
-173.910742
20
-113.269893
10
-173.910742
20
-113.269893
10
-173.375020
20
-113.448467
10
-173.375020
20
-113.448467
10
-173.017871
20
-113.805596
10
-173.017871
20
-113.805596
10
-172.839297
20
-114.162754
10
-172.839297
20
-114.162754
10
-172.660742
20
-114.698467
10
-172.660742
20
-114.698467
10
-172.660742
20
-115.591328
10
-172.660742
20
-115.591328
10
-172.839297
20
-116.127041
10
-172.839297
20
-116.127041
10
-173.017871
20
-116.484170
10
-173.017871
20
-116.484170
10
-173.375020
20
-116.841328
10
-173.375020
20
-116.841328
10
-173.910742
20
-117.019902
10
-173.910742
20
-117.019902
10
-175.160742
20
-117.019902
0
LWPOLYLINE
5
1011
100
AcDbEntity
8
0
100
AcDbPolyline
90
2
70
0
43
0.000000
10
-171.589297
20
-113.269893
10
-171.589297
20
-117.019902
0
LWPOLYLINE
5
1012
100
AcDbEntity
8
0
100
AcDbPolyline
90
2
70
0
43
0.000000
10
-171.589297
20
-113.269893
10
-169.267871
20
-113.269893
0
LWPOLYLINE
5
1013
100
AcDbEntity
8
0
100
AcDbPolyline
90
2
70
0
43
0.000000
10
-171.589297
20
-115.055615
10
-170.160723
20
-115.055615
0
LWPOLYLINE
5
1014
100
AcDbEntity
8
0
100
AcDbPolyline
90
2
70
0
43
0.000000
10
-171.589297
20
-117.019902
10
-169.267871
20
-117.019902
0
LWPOLYLINE
5
1015
100
AcDbEntity
8
0
100
AcDbPolyline
90
2
70
0
43
0.000000
10
-168.196445
20
-113.269893
10
-168.196445
20
-117.019902
0
LWPOLYLINE
5
1016
100
AcDbEntity
8
0
100
AcDbPolyline
90
2
70
0
43
0.000000
10
-168.196445
20
-117.019902
10
-166.053594
20
-117.019902
0
LWPOLYLINE
5
1017
100
AcDbEntity
8
0
100
AcDbPolyline
90
8
70
0
43
0.000000
10
-164.803594
20
-114.519883
10
-164.982148
20
-114.698467
10
-164.982148
20
-114.698467
10
-164.803594
20
-114.877041
10
-164.803594
20
-114.877041
10
-164.625020
20
-114.698467
10
-164.625020
20
-114.698467
10
-164.803594
20
-114.519883
0
LWPOLYLINE
5
1018
100
AcDbEntity
8
0
100
AcDbPolyline
90
8
70
0
43
0.000000
10
-164.803594
20
-116.662744
10
-164.982148
20
-116.841328
10
-164.982148
20
-116.841328
10
-164.803594
20
-117.019902
10
-164.803594
20
-117.019902
10
-164.625020
20
-116.841328
10
-164.625020
20
-116.841328
10
-164.803594
20
-116.662744
0
LWPOLYLINE
5
1019
100
AcDbEntity
8
0
100
AcDbPolyline
90
38
70
0
43
0.000000
10
-161.053584
20
-113.805596
10
-161.410732
20
-113.448467
10
-161.410732
20
-113.448467
10
-161.946445
20
-113.269893
10
-161.946445
20
-113.269893
10
-162.660732
20
-113.269893
10
-162.660732
20
-113.269893
10
-163.196445
20
-113.448467
10
-163.196445
20
-113.448467
10
-163.553584
20
-113.805596
10
-163.553584
20
-113.805596
10
-163.553584
20
-114.162754
10
-163.553584
20
-114.162754
10
-163.375020
20
-114.519883
10
-163.375020
20
-114.519883
10
-163.196445
20
-114.698467
10
-163.196445
20
-114.698467
10
-162.839307
20
-114.877041
10
-162.839307
20
-114.877041
10
-161.767871
20
-115.234170
10
-161.767871
20
-115.234170
10
-161.410732
20
-115.412754
10
-161.410732
20
-115.412754
10
-161.232158
20
-115.591328
10
-161.232158
20
-115.591328
10
-161.053584
20
-115.948457
10
-161.053584
20
-115.948457
10
-161.053584
20
-116.484170
10
-161.053584
20
-116.484170
10
-161.410732
20
-116.841328
10
-161.410732
20
-116.841328
10
-161.946445
20
-117.019902
10
-161.946445
20
-117.019902
10
-162.660732
20
-117.019902
10
-162.660732
20
-117.019902
10
-163.196445
20
-116.841328
10
-163.196445
20
-116.841328
10
-163.553584
20
-116.484170
0
LWPOLYLINE
5
1020
100
AcDbEntity
8
0
100
AcDbPolyline
90
2
70
0
43
0.000000
10
-159.982158
20
-114.519883
10
-159.982158
20
-117.019902
0
LWPOLYLINE
5
1021
100
AcDbEntity
8
0
100
AcDbPolyline
90
12
70
0
43
0.000000
10
-159.982158
20
-115.234170
10
-159.446445
20
-114.698467
10
-159.446445
20
-114.698467
10
-159.089297
20
-114.519883
10
-159.089297
20
-114.519883
10
-158.553584
20
-114.519883
10
-158.553584
20
-114.519883
10
-158.196445
20
-114.698467
10
-158.196445
20
-114.698467
10
-158.017871
20
-115.234170
10
-158.017871
20
-115.234170
10
-158.017871
20
-117.019902
0
LWPOLYLINE
5
1022
100
AcDbEntity
8
0
100
AcDbPolyline
90
12
70
0
43
0.000000
10
-158.017871
20
-115.234170
10
-157.482158
20
-114.698467
10
-157.482158
20
-114.698467
10
-157.125010
20
-114.519883
10
-157.125010
20
-114.519883
10
-156.589297
20
-114.519883
10
-156.589297
20
-114.519883
10
-156.232168
20
-114.698467
10
-156.232168
20
-114.698467
10
-156.053584
20
-115.234170
10
-156.053584
20
-115.234170
10
-156.053584
20
-117.019902
0
LWPOLYLINE
5
1023
100
AcDbEntity
8
0
100
AcDbPolyline
90
2
70
0
43
0.000000
10
-152.839307
20
-114.519883
10
-152.839307
20
-117.019902
0
LWPOLYLINE
5
1024
100
AcDbEntity
8
0
100
AcDbPolyline
90
26
70
0
43
0.000000
10
-152.839307
20
-115.055615
10
-153.196436
20
-114.698467
10
-153.196436
20
-114.698467
10
-153.553594
20
-114.519883
10
-153.553594
20
-114.519883
10
-154.089307
20
-114.519883
10
-154.089307
20
-114.519883
10
-154.446436
20
-114.698467
10
-154.446436
20
-114.698467
10
-154.803594
20
-115.055615
10
-154.803594
20
-115.055615
10
-154.982168
20
-115.591328
10
-154.982168
20
-115.591328
10
-154.982168
20
-115.948457
10
-154.982168
20
-115.948457
10
-154.803594
20
-116.484170
10
-154.803594
20
-116.484170
10
-154.446436
20
-116.841328
10
-154.446436
20
-116.841328
10
-154.089307
20
-117.019902
10
-154.089307
20
-117.019902
10
-153.553594
20
-117.019902
10
-153.553594
20
-117.019902
10
-153.196436
20
-116.841328
10
-153.196436
20
-116.841328
10
-152.839307
20
-116.484170
0
LWPOLYLINE
5
1025
100
AcDbEntity
8
0
100
AcDbPolyline
90
2
70
0
43
0.000000
10
-151.767881
20
-114.519883
10
-151.767881
20
-117.019902
0
LWPOLYLINE
5
1026
100
AcDbEntity
8
0
100
AcDbPolyline
90
8
70
0
43
0.000000
10
-151.767881
20
-115.591328
10
-151.589307
20
-115.055615
10
-151.589307
20
-115.055615
10
-151.232148
20
-114.698467
10
-151.232148
20
-114.698467
10
-150.875020
20
-114.519883
10
-150.875020
20
-114.519883
10
-150.339307
20
-114.519883
0
LWPOLYLINE
5
1027
100
AcDbEntity
8
0
100
AcDbPolyline
90
8
70
0
43
0.000000
10
-148.732158
20
-113.269893
10
-148.732158
20
-116.305615
10
-148.732158
20
-116.305615
10
-148.553594
20
-116.841328
10
-148.553594
20
-116.841328
10
-148.196445
20
-117.019902
10
-148.196445
20
-117.019902
10
-147.839307
20
-117.019902
0
LWPOLYLINE
5
1028
100
AcDbEntity
8
0
100
AcDbPolyline
90
2
70
0
43
0.000000
10
-149.267871
20
-114.519883
10
-148.017871
20
-114.519883
0
LWPOLYLINE
5
1029
100
AcDbEntity
8
0
100
AcDbPolyline
90
2
70
0
43
0.000000
10
-146.767871
20
-118.269902
10
-143.553584
20
-118.269902
0
LWPOLYLINE
5
1030
100
AcDbEntity
8
0
100
AcDbPolyline
90
36
70
0
43
0.000000
10
-139.803584
20
-114.162754
10
-139.982168
20
-113.805596
10
-139.982168
20
-113.805596
10
-140.339297
20
-113.448467
10
-140.339297
20
-113.448467
10
-140.696455
20
-113.269893
10
-140.696455
20
-113.269893
10
-141.410742
20
-113.269893
10
-141.410742
20
-113.269893
10
-141.767871
20
-113.448467
10
-141.767871
20
-113.448467
10
-142.125010
20
-113.805596
10
-142.125010
20
-113.805596
10
-142.303584
20
-114.162754
10
-142.303584
20
-114.162754
10
-142.482158
20
-114.698467
10
-142.482158
20
-114.698467
10
-142.482158
20
-115.591328
10
-142.482158
20
-115.591328
10
-142.303584
20
-116.127041
10
-142.303584
20
-116.127041
10
-142.125010
20
-116.484170
10
-142.125010
20
-116.484170
10
-141.767871
20
-116.841328
10
-141.767871
20
-116.841328
10
-141.410742
20
-117.019902
10
-141.410742
20
-117.019902
10
-140.696455
20
-117.019902
10
-140.696455
20
-117.019902
10
-140.339297
20
-116.841328
10
-140.339297
20
-116.841328
10
-139.982168
20
-116.484170
10
-139.982168
20
-116.484170
10
-139.803584
20
-116.127041
10
-139.803584
20
-116.127041
10
-139.803584
20
-115.591328
0
LWPOLYLINE
5
1031
100
AcDbEntity
8
0
100
AcDbPolyline
90
2
70
0
43
0.000000
10
-140.696455
20
-115.591328
10
-139.803584
20
-115.591328
0
LWPOLYLINE
5
1032
100
AcDbEntity
8
0
100
AcDbPolyline
90
32
70
0
43
0.000000
10
-138.732168
20
-115.591328
10
-136.589307
20
-115.591328
10
-136.589307
20
-115.591328
10
-136.589307
20
-115.234170
10
-136.589307
20
-115.234170
10
-136.767881
20
-114.877041
10
-136.767881
20
-114.877041
10
-136.946436
20
-114.698467
10
-136.946436
20
-114.698467
10
-137.303594
20
-114.519883
10
-137.303594
20
-114.519883
10
-137.839307
20
-114.519883
10
-137.839307
20
-114.519883
10
-138.196436
20
-114.698467
10
-138.196436
20
-114.698467
10
-138.553594
20
-115.055615
10
-138.553594
20
-115.055615
10
-138.732168
20
-115.591328
10
-138.732168
20
-115.591328
10
-138.732168
20
-115.948457
10
-138.732168
20
-115.948457
10
-138.553594
20
-116.484170
10
-138.553594
20
-116.484170
10
-138.196436
20
-116.841328
10
-138.196436
20
-116.841328
10
-137.839307
20
-117.019902
10
-137.839307
20
-117.019902
10
-137.303594
20
-117.019902
10
-137.303594
20
-117.019902
10
-136.946436
20
-116.841328
10
-136.946436
20
-116.841328
10
-136.589307
20
-116.484170
0
LWPOLYLINE
5
1033
100
AcDbEntity
8
0
100
AcDbPolyline
90
2
70
0
43
0.000000
10
-135.517881
20
-114.519883
10
-135.517881
20
-117.019902
0
LWPOLYLINE
5
1034
100
AcDbEntity
8
0
100
AcDbPolyline
90
8
70
0
43
0.000000
10
-135.517881
20
-115.591328
10
-135.339307
20
-115.055615
10
-135.339307
20
-115.055615
10
-134.982158
20
-114.698467
10
-134.982158
20
-114.698467
10
-134.625020
20
-114.519883
10
-134.625020
20
-114.519883
10
-134.089307
20
-114.519883
0
LWPOLYLINE
5
1035
100
AcDbEntity
8
0
100
AcDbPolyline
90
2
70
0
43
0.000000
10
-133.017871
20
-113.269893
10
-133.017871
20
-117.019902
0
LWPOLYLINE
5
1036
100
AcDbEntity
8
0
100
AcDbPolyline
90
26
70
0
43
0.000000
10
-133.017871
20
-115.055615
10
-132.660732
20
-114.698467
10
-132.660732
20
-114.698467
10
-132.303594
20
-114.519883
10
-132.303594
20
-114.519883
10
-131.767871
20
-114.519883
10
-131.767871
20
-114.519883
10
-131.410732
20
-114.698467
10
-131.410732
20
-114.698467
10
-131.053584
20
-115.055615
10
-131.053584
20
-115.055615
10
-130.875020
20
-115.591328
10
-130.875020
20
-115.591328
10
-130.875020
20
-115.948457
10
-130.875020
20
-115.948457
10
-131.053584
20
-116.484170
10
-131.053584
20
-116.484170
10
-131.410732
20
-116.841328
10
-131.410732
20
-116.841328
10
-131.767871
20
-117.019902
10
-131.767871
20
-117.019902
10
-132.303594
20
-117.019902
10
-132.303594
20
-117.019902
10
-132.660732
20
-116.841328
10
-132.660732
20
-116.841328
10
-133.017871
20
-116.484170
0
LWPOLYLINE
5
1037
100
AcDbEntity
8
0
100
AcDbPolyline
90
32
70
0
43
0.000000
10
-129.803584
20
-115.591328
10
-127.660732
20
-115.591328
10
-127.660732
20
-115.591328
10
-127.660732
20
-115.234170
10
-127.660732
20
-115.234170
10
-127.839297
20
-114.877041
10
-127.839297
20
-114.877041
10
-128.017871
20
-114.698467
10
-128.017871
20
-114.698467
10
-128.375020
20
-114.519883
10
-128.375020
20
-114.519883
10
-128.910732
20
-114.519883
10
-128.910732
20
-114.519883
10
-129.267871
20
-114.698467
10
-129.267871
20
-114.698467
10
-129.625020
20
-115.055615
10
-129.625020
20
-115.055615
10
-129.803584
20
-115.591328
10
-129.803584
20
-115.591328
10
-129.803584
20
-115.948457
10
-129.803584
20
-115.948457
10
-129.625020
20
-116.484170
10
-129.625020
20
-116.484170
10
-129.267871
20
-116.841328
10
-129.267871
20
-116.841328
10
-128.910732
20
-117.019902
10
-128.910732
20
-117.019902
10
-128.375020
20
-117.019902
10
-128.375020
20
-117.019902
10
-128.017871
20
-116.841328
10
-128.017871
20
-116.841328
10
-127.660732
20
-116.484170
0
LWPOLYLINE
5
1038
100
AcDbEntity
8
0
100
AcDbPolyline
90
2
70
0
43
0.000000
10
-126.589297
20
-114.519883
10
-126.589297
20
-117.019902
0
LWPOLYLINE
5
1039
100
AcDbEntity
8
0
100
AcDbPolyline
90
8
70
0
43
0.000000
10
-126.589297
20
-115.591328
10
-126.410742
20
-115.055615
10
-126.410742
20
-115.055615
10
-126.053584
20
-114.698467
10
-126.053584
20
-114.698467
10
-125.696455
20
-114.519883
10
-125.696455
20
-114.519883
10
-125.160723
20
-114.519883
0
LWPOLYLINE
5
1040
100
AcDbEntity
8
0
100
AcDbPolyline
90
2
70
0
43
0.000000
10
-124.089297
20
-118.269902
10
-120.875020
20
-118.269902
0
LWPOLYLINE
5
1041
100
AcDbEntity
8
0
100
AcDbPolyline
90
4
70
0
43
0.000000
10
-119.803594
20
-113.269893
10
-118.375020
20
-115.055615
10
-118.375020
20
-115.055615
10
-118.375020
20
-117.019902
0
LWPOLYLINE
5
1042
100
AcDbEntity
8
0
100
AcDbPolyline
90
2
70
0
43
0.000000
10
-116.946445
20
-113.269893
10
-118.375020
20
-115.055615
0
LWPOLYLINE
5
1043
100
AcDbEntity
8
0
100
AcDbPolyline
90
2
70
0
43
0.000000
10
-113.375020
20
-113.269893
10
-115.160732
20
-117.019902
0
LWPOLYLINE
5
1044
100
AcDbEntity
8
0
100
AcDbPolyline
90
2
70
0
43
0.000000
10
-115.875020
20
-113.269893
10
-113.375020
20
-113.269893
0
LWPOLYLINE
5
1045
100
AcDbEntity
8
0
100
AcDbPolyline
90
38
70
0
43
0.000000
10
-180.517891
20
-119.162744
10
-180.875000
20
-118.805605
10
-180.875000
20
-118.805605
10
-181.410723
20
-118.627031
10
-181.410723
20
-118.627031
10
-182.125000
20
-118.627031
10
-182.125000
20
-118.627031
10
-182.660723
20
-118.805605
10
-182.660723
20
-118.805605
10
-183.017871
20
-119.162744
10
-183.017871
20
-119.162744
10
-183.017871
20
-119.519893
10
-183.017871
20
-119.519893
10
-182.839297
20
-119.877031
10
-182.839297
20
-119.877031
10
-182.660723
20
-120.055605
10
-182.660723
20
-120.055605
10
-182.303574
20
-120.234180
10
-182.303574
20
-120.234180
10
-181.232148
20
-120.591318
10
-181.232148
20
-120.591318
10
-180.875000
20
-120.769893
10
-180.875000
20
-120.769893
10
-180.696465
20
-120.948467
10
-180.696465
20
-120.948467
10
-180.517891
20
-121.305605
10
-180.517891
20
-121.305605
10
-180.517891
20
-121.841318
10
-180.517891
20
-121.841318
10
-180.875000
20
-122.198467
10
-180.875000
20
-122.198467
10
-181.410723
20
-122.377031
10
-181.410723
20
-122.377031
10
-182.125000
20
-122.377031
10
-182.125000
20
-122.377031
10
-182.660723
20
-122.198467
10
-182.660723
20
-122.198467
10
-183.017871
20
-121.841318
0
LWPOLYLINE
5
1046
100
AcDbEntity
8
0
100
AcDbPolyline
90
2
70
0
43
0.000000
10
-179.446445
20
-118.627031
10
-179.446445
20
-122.377031
0
LWPOLYLINE
5
1047
100
AcDbEntity
8
0
100
AcDbPolyline
90
2
70
0
43
0.000000
10
-175.875020
20
-118.627031
10
-178.375020
20
-122.377031
0
LWPOLYLINE
5
1048
100
AcDbEntity
8
0
100
AcDbPolyline
90
2
70
0
43
0.000000
10
-178.375020
20
-118.627031
10
-175.875020
20
-118.627031
0
LWPOLYLINE
5
1049
100
AcDbEntity
8
0
100
AcDbPolyline
90
2
70
0
43
0.000000
10
-178.375020
20
-122.377031
10
-175.875020
20
-122.377031
0
LWPOLYLINE
5
1050
100
AcDbEntity
8
0
100
AcDbPolyline
90
2
70
0
43
0.000000
10
-174.803594
20
-118.627031
10
-174.803594
20
-122.377031
0
LWPOLYLINE
5
1051
100
AcDbEntity
8
0
100
AcDbPolyline
90
2
70
0
43
0.000000
10
-174.803594
20
-118.627031
10
-172.482168
20
-118.627031
0
LWPOLYLINE
5
1052
100
AcDbEntity
8
0
100
AcDbPolyline
90
2
70
0
43
0.000000
10
-174.803594
20
-120.412744
10
-173.375020
20
-120.412744
0
LWPOLYLINE
5
1053
100
AcDbEntity
8
0
100
AcDbPolyline
90
2
70
0
43
0.000000
10
-174.803594
20
-122.377031
10
-172.482168
20
-122.377031
0
LWPOLYLINE
5
1054
100
AcDbEntity
8
0
100
AcDbPolyline
90
8
70
0
43
0.000000
10
-171.232168
20
-119.877031
10
-171.410723
20
-120.055605
10
-171.410723
20
-120.055605
10
-171.232168
20
-120.234180
10
-171.232168
20
-120.234180
10
-171.053594
20
-120.055605
10
-171.053594
20
-120.055605
10
-171.232168
20
-119.877031
0
LWPOLYLINE
5
1055
100
AcDbEntity
8
0
100
AcDbPolyline
90
8
70
0
43
0.000000
10
-171.232168
20
-122.019893
10
-171.410723
20
-122.198467
10
-171.410723
20
-122.198467
10
-171.232168
20
-122.377031
10
-171.232168
20
-122.377031
10
-171.053594
20
-122.198467
10
-171.053594
20
-122.198467
10
-171.232168
20
-122.019893
0
LWPOLYLINE
5
1056
100
AcDbEntity
8
0
100
AcDbPolyline
90
26
70
0
43
0.000000
10
-169.803594
20
-119.519893
10
-169.803594
20
-119.341318
10
-169.803594
20
-119.341318
10
-169.625020
20
-118.984189
10
-169.625020
20
-118.984189
10
-169.446445
20
-118.805605
10
-169.446445
20
-118.805605
10
-169.089297
20
-118.627031
10
-169.089297
20
-118.627031
10
-168.375020
20
-118.627031
10
-168.375020
20
-118.627031
10
-168.017871
20
-118.805605
10
-168.017871
20
-118.805605
10
-167.839297
20
-118.984189
10
-167.839297
20
-118.984189
10
-167.660723
20
-119.341318
10
-167.660723
20
-119.341318
10
-167.660723
20
-119.698457
10
-167.660723
20
-119.698457
10
-167.839297
20
-120.055605
10
-167.839297
20
-120.055605
10
-168.196445
20
-120.591318
10
-168.196445
20
-120.591318
10
-169.982168
20
-122.377031
10
-169.982168
20
-122.377031
10
-167.482148
20
-122.377031
0
LWPOLYLINE
5
1057
100
AcDbEntity
8
0
100
AcDbPolyline
90
56
70
0
43
0.000000
10
-165.517871
20
-118.627031
10
-166.053594
20
-118.805605
10
-166.053594
20
-118.805605
10
-166.232148
20
-119.162744
10
-166.232148
20
-119.162744
10
-166.232148
20
-119.519893
10
-166.232148
20
-119.519893
10
-166.053594
20
-119.877031
10
-166.053594
20
-119.877031
10
-165.696445
20
-120.055605
10
-165.696445
20
-120.055605
10
-164.982148
20
-120.234180
10
-164.982148
20
-120.234180
10
-164.446445
20
-120.412744
10
-164.446445
20
-120.412744
10
-164.089316
20
-120.769893
10
-164.089316
20
-120.769893
10
-163.910723
20
-121.127031
10
-163.910723
20
-121.127031
10
-163.910723
20
-121.662744
10
-163.910723
20
-121.662744
10
-164.089316
20
-122.019893
10
-164.089316
20
-122.019893
10
-164.267871
20
-122.198467
10
-164.267871
20
-122.198467
10
-164.803594
20
-122.377031
10
-164.803594
20
-122.377031
10
-165.517871
20
-122.377031
10
-165.517871
20
-122.377031
10
-166.053594
20
-122.198467
10
-166.053594
20
-122.198467
10
-166.232148
20
-122.019893
10
-166.232148
20
-122.019893
10
-166.410723
20
-121.662744
10
-166.410723
20
-121.662744
10
-166.410723
20
-121.127031
10
-166.410723
20
-121.127031
10
-166.232148
20
-120.769893
10
-166.232148
20
-120.769893
10
-165.875020
20
-120.412744
10
-165.875020
20
-120.412744
10
-165.339297
20
-120.234180
10
-165.339297
20
-120.234180
10
-164.625020
20
-120.055605
10
-164.625020
20
-120.055605
10
-164.267871
20
-119.877031
10
-164.267871
20
-119.877031
10
-164.089316
20
-119.519893
10
-164.089316
20
-119.519893
10
-164.089316
20
-119.162744
10
-164.089316
20
-119.162744
10
-164.267871
20
-118.805605
10
-164.267871
20
-118.805605
10
-164.803594
20
-118.627031
10
-164.803594
20
-118.627031
10
-165.517871
20
-118.627031
0
LWPOLYLINE
5
1058
100
AcDbEntity
8
0
100
AcDbPolyline
90
2
70
0
43
0.000000
10
-161.946445
20
-119.698457
10
-161.946445
20
-121.841318
0
LWPOLYLINE
5
1059
100
AcDbEntity
8
0
100
AcDbPolyline
90
2
70
0
43
0.000000
10
-162.839307
20
-120.234180
10
-161.053584
20
-121.305605
0
LWPOLYLINE
5
1060
100
AcDbEntity
8
0
100
AcDbPolyline
90
2
70
0
43
0.000000
10
-161.053584
20
-120.234180
10
-162.839307
20
-121.305605
0
LWPOLYLINE
5
1061
100
AcDbEntity
8
0
100
AcDbPolyline
90
28
70
0
43
0.000000
10
-159.625010
20
-118.627031
10
-157.660742
20
-118.627031
10
-157.660742
20
-118.627031
10
-158.732158
20
-120.055605
10
-158.732158
20
-120.055605
10
-158.196445
20
-120.055605
10
-158.196445
20
-120.055605
10
-157.839297
20
-120.234180
10
-157.839297
20
-120.234180
10
-157.660742
20
-120.412744
10
-157.660742
20
-120.412744
10
-157.482158
20
-120.948467
10
-157.482158
20
-120.948467
10
-157.482158
20
-121.305605
10
-157.482158
20
-121.305605
10
-157.660742
20
-121.841318
10
-157.660742
20
-121.841318
10
-158.017871
20
-122.198467
10
-158.017871
20
-122.198467
10
-158.553584
20
-122.377031
10
-158.553584
20
-122.377031
10
-159.089297
20
-122.377031
10
-159.089297
20
-122.377031
10
-159.625010
20
-122.198467
10
-159.625010
20
-122.198467
10
-159.803584
20
-122.019893
10
-159.803584
20
-122.019893
10
-159.982158
20
-121.662744
0
LWPOLYLINE
5
1062
100
AcDbEntity
8
0
100
AcDbPolyline
90
56
70
0
43
0.000000
10
-155.517881
20
-118.627031
10
-156.053584
20
-118.805605
10
-156.053584
20
-118.805605
10
-156.232168
20
-119.162744
10
-156.232168
20
-119.162744
10
-156.232168
20
-119.519893
10
-156.232168
20
-119.519893
10
-156.053584
20
-119.877031
10
-156.053584
20
-119.877031
10
-155.696455
20
-120.055605
10
-155.696455
20
-120.055605
10
-154.982168
20
-120.234180
10
-154.982168
20
-120.234180
10
-154.446436
20
-120.412744
10
-154.446436
20
-120.412744
10
-154.089307
20
-120.769893
10
-154.089307
20
-120.769893
10
-153.910723
20
-121.127031
10
-153.910723
20
-121.127031
10
-153.910723
20
-121.662744
10
-153.910723
20
-121.662744
10
-154.089307
20
-122.019893
10
-154.089307
20
-122.019893
10
-154.267881
20
-122.198467
10
-154.267881
20
-122.198467
10
-154.803594
20
-122.377031
10
-154.803594
20
-122.377031
10
-155.517881
20
-122.377031
10
-155.517881
20
-122.377031
10
-156.053584
20
-122.198467
10
-156.053584
20
-122.198467
10
-156.232168
20
-122.019893
10
-156.232168
20
-122.019893
10
-156.410723
20
-121.662744
10
-156.410723
20
-121.662744
10
-156.410723
20
-121.127031
10
-156.410723
20
-121.127031
10
-156.232168
20
-120.769893
10
-156.232168
20
-120.769893
10
-155.875010
20
-120.412744
10
-155.875010
20
-120.412744
10
-155.339297
20
-120.234180
10
-155.339297
20
-120.234180
10
-154.625010
20
-120.055605
10
-154.625010
20
-120.055605
10
-154.267881
20
-119.877031
10
-154.267881
20
-119.877031
10
-154.089307
20
-119.519893
10
-154.089307
20
-119.519893
10
-154.089307
20
-119.162744
10
-154.089307
20
-119.162744
10
-154.267881
20
-118.805605
10
-154.267881
20
-118.805605
10
-154.803594
20
-118.627031
10
-154.803594
20
-118.627031
10
-155.517881
20
-118.627031
0
LWPOLYLINE
5
1063
100
AcDbEntity
8
0
100
AcDbPolyline
90
34
70
0
43
0.000000
10
-146.589307
20
-119.519893
10
-146.767871
20
-119.162744
10
-146.767871
20
-119.162744
10
-147.125020
20
-118.805605
10
-147.125020
20
-118.805605
10
-147.482158
20
-118.627031
10
-147.482158
20
-118.627031
10
-148.196445
20
-118.627031
10
-148.196445
20
-118.627031
10
-148.553594
20
-118.805605
10
-148.553594
20
-118.805605
10
-148.910732
20
-119.162744
10
-148.910732
20
-119.162744
10
-149.089307
20
-119.519893
10
-149.089307
20
-119.519893
10
-149.267871
20
-120.055605
10
-149.267871
20
-120.055605
10
-149.267871
20
-120.948467
10
-149.267871
20
-120.948467
10
-149.089307
20
-121.484180
10
-149.089307
20
-121.484180
10
-148.910732
20
-121.841318
10
-148.910732
20
-121.841318
10
-148.553594
20
-122.198467
10
-148.553594
20
-122.198467
10
-148.196445
20
-122.377031
10
-148.196445
20
-122.377031
10
-147.482158
20
-122.377031
10
-147.482158
20
-122.377031
10
-147.125020
20
-122.198467
10
-147.125020
20
-122.198467
10
-146.767871
20
-121.841318
10
-146.767871
20
-121.841318
10
-146.589307
20
-121.484180
0
LWPOLYLINE
5
1064
100
AcDbEntity
8
0
100
AcDbPolyline
90
2
70
0
43
0.000000
10
-145.517871
20
-118.627031
10
-145.517871
20
-122.377031
0
LWPOLYLINE
5
1065
100
AcDbEntity
8
0
100
AcDbPolyline
90
2
70
0
43
0.000000
10
-145.517871
20
-118.627031
10
-144.089297
20
-122.377031
0
LWPOLYLINE
5
1066
100
AcDbEntity
8
0
100
AcDbPolyline
90
2
70
0
43
0.000000
10
-142.660732
20
-118.627031
10
-144.089297
20
-122.377031
0
LWPOLYLINE
5
1067
100
AcDbEntity
8
0
100
AcDbPolyline
90
2
70
0
43
0.000000
10
-142.660732
20
-118.627031
10
-142.660732
20
-122.377031
0
LWPOLYLINE
5
1068
100
AcDbEntity
8
0
100
AcDbPolyline
90
2
70
0
43
0.000000
10
-133.196445
20
-118.627031
10
-133.196445
20
-122.377031
0
LWPOLYLINE
5
1069
100
AcDbEntity
8
0
100
AcDbPolyline
90
2
70
0
43
0.000000
10
-134.446445
20
-118.627031
10
-131.946445
20
-118.627031
0
LWPOLYLINE
5
1070
100
AcDbEntity
8
0
100
AcDbPolyline
90
2
70
0
43
0.000000
10
-130.875020
20
-120.234180
10
-127.660732
20
-120.234180
0
LWPOLYLINE
5
1071
100
AcDbEntity
8
0
100
AcDbPolyline
90
2
70
0
43
0.000000
10
-130.875020
20
-121.305605
10
-127.660732
20
-121.305605
0
LWPOLYLINE
5
1072
100
AcDbEntity
8
0
100
AcDbPolyline
90
32
70
0
43
0.000000
10
-125.517871
20
-118.627031
10
-126.053584
20
-118.805605
10
-126.053584
20
-118.805605
10
-126.410742
20
-119.341318
10
-126.410742
20
-119.341318
10
-126.589297
20
-120.234180
10
-126.589297
20
-120.234180
10
-126.589297
20
-120.769893
10
-126.589297
20
-120.769893
10
-126.410742
20
-121.662744
10
-126.410742
20
-121.662744
10
-126.053584
20
-122.198467
10
-126.053584
20
-122.198467
10
-125.517871
20
-122.377031
10
-125.517871
20
-122.377031
10
-125.160723
20
-122.377031
10
-125.160723
20
-122.377031
10
-124.625010
20
-122.198467
10
-124.625010
20
-122.198467
10
-124.267881
20
-121.662744
10
-124.267881
20
-121.662744
10
-124.089297
20
-120.769893
10
-124.089297
20
-120.769893
10
-124.089297
20
-120.234180
10
-124.089297
20
-120.234180
10
-124.267881
20
-119.341318
10
-124.267881
20
-119.341318
10
-124.625010
20
-118.805605
10
-124.625010
20
-118.805605
10
-125.160723
20
-118.627031
10
-125.160723
20
-118.627031
10
-125.517871
20
-118.627031
0
LWPOLYLINE
5
1073
100
AcDbEntity
8
0
100
AcDbPolyline
90
8
70
0
43
0.000000
10
-122.839307
20
-122.019893
10
-123.017881
20
-122.198467
10
-123.017881
20
-122.198467
10
-122.839307
20
-122.377031
10
-122.839307
20
-122.377031
10
-122.660723
20
-122.198467
10
-122.660723
20
-122.198467
10
-122.839307
20
-122.019893
0
LWPOLYLINE
5
1074
100
AcDbEntity
8
0
100
AcDbPolyline
90
6
70
0
43
0.000000
10
-121.589307
20
-119.341318
10
-121.232168
20
-119.162744
10
-121.232168
20
-119.162744
10
-120.696436
20
-118.627031
10
-120.696436
20
-118.627031
10
-120.696436
20
-122.377031
0
LWPOLYLINE
5
1075
100
AcDbEntity
8
0
100
AcDbPolyline
90
32
70
0
43
0.000000
10
-118.553594
20
-118.627031
10
-119.089307
20
-118.805605
10
-119.089307
20
-118.805605
10
-119.446445
20
-119.341318
10
-119.446445
20
-119.341318
10
-119.625020
20
-120.234180
10
-119.625020
20
-120.234180
10
-119.625020
20
-120.769893
10
-119.625020
20
-120.769893
10
-119.446445
20
-121.662744
10
-119.446445
20
-121.662744
10
-119.089307
20
-122.198467
10
-119.089307
20
-122.198467
10
-118.553594
20
-122.377031
10
-118.553594
20
-122.377031
10
-118.196445
20
-122.377031
10
-118.196445
20
-122.377031
10
-117.660732
20
-122.198467
10
-117.660732
20
-122.198467
10
-117.303594
20
-121.662744
10
-117.303594
20
-121.662744
10
-117.125020
20
-120.769893
10
-117.125020
20
-120.769893
10
-117.125020
20
-120.234180
10
-117.125020
20
-120.234180
10
-117.303594
20
-119.341318
10
-117.303594
20
-119.341318
10
-117.660732
20
-118.805605
10
-117.660732
20
-118.805605
10
-118.196445
20
-118.627031
10
-118.196445
20
-118.627031
10
-118.553594
20
-118.627031
0
LWPOLYLINE
5
1076
100
AcDbEntity
8
0
100
AcDbPolyline
90
2
70
0
43
0.000000
10
-112.482158
20
-118.627031
10
-112.482158
20
-122.377031
0
LWPOLYLINE
5
1077
100
AcDbEntity
8
0
100
AcDbPolyline
90
2
70
0
43
0.000000
10
-112.482158
20
-118.627031
10
-111.053584
20
-122.377031
0
LWPOLYLINE
5
1078
100
AcDbEntity
8
0
100
AcDbPolyline
90
2
70
0
43
0.000000
10
-109.625010
20
-118.627031
10
-111.053584
20
-122.377031
0
LWPOLYLINE
5
1079
100
AcDbEntity
8
0
100
AcDbPolyline
90
2
70
0
43
0.000000
10
-109.625010
20
-118.627031
10
-109.625010
20
-122.377031
0
LWPOLYLINE
5
1080
100
AcDbEntity
8
0
100
AcDbPolyline
90
2
70
0
43
0.000000
10
-108.553584
20
-118.627031
10
-108.553584
20
-122.377031
0
LWPOLYLINE
5
1081
100
AcDbEntity
8
0
100
AcDbPolyline
90
2
70
0
43
0.000000
10
-108.553584
20
-118.627031
10
-107.125010
20
-122.377031
0
LWPOLYLINE
5
1082
100
AcDbEntity
8
0
100
AcDbPolyline
90
2
70
0
43
0.000000
10
-105.696455
20
-118.627031
10
-107.125010
20
-122.377031
0
LWPOLYLINE
5
1083
100
AcDbEntity
8
0
100
AcDbPolyline
90
2
70
0
43
0.000000
10
-105.696455
20
-118.627031
10
-105.696455
20
-122.377031
0
LWPOLYLINE
5
1084
100
AcDbEntity
8
0
100
AcDbPolyline
90
2
70
0
43
0.000000
10
-183.017871
20
-123.984180
10
-183.017871
20
-127.734180
0
LWPOLYLINE
5
1085
100
AcDbEntity
8
0
100
AcDbPolyline
90
22
70
0
43
0.000000
10
-183.017871
20
-123.984180
10
-181.767891
20
-123.984180
10
-181.767891
20
-123.984180
10
-181.232148
20
-124.162754
10
-181.232148
20
-124.162754
10
-180.875000
20
-124.519893
10
-180.875000
20
-124.519893
10
-180.696465
20
-124.877031
10
-180.696465
20
-124.877031
10
-180.517891
20
-125.412764
10
-180.517891
20
-125.412764
10
-180.517891
20
-126.305605
10
-180.517891
20
-126.305605
10
-180.696465
20
-126.841318
10
-180.696465
20
-126.841318
10
-180.875000
20
-127.198477
10
-180.875000
20
-127.198477
10
-181.232148
20
-127.555605
10
-181.232148
20
-127.555605
10
-181.767891
20
-127.734180
10
-181.767891
20
-127.734180
10
-183.017871
20
-127.734180
0
LWPOLYLINE
5
1086
100
AcDbEntity
8
0
100
AcDbPolyline
90
2
70
0
43
0.000000
10
-178.017871
20
-123.984180
10
-179.446445
20
-127.734180
0
LWPOLYLINE
5
1087
100
AcDbEntity
8
0
100
AcDbPolyline
90
2
70
0
43
0.000000
10
-178.017871
20
-123.984180
10
-176.589297
20
-127.734180
0
LWPOLYLINE
5
1088
100
AcDbEntity
8
0
100
AcDbPolyline
90
2
70
0
43
0.000000
10
-178.910723
20
-126.484189
10
-177.125020
20
-126.484189
0
LWPOLYLINE
5
1089
100
AcDbEntity
8
0
100
AcDbPolyline
90
2
70
0
43
0.000000
10
-174.267871
20
-123.984180
10
-174.267871
20
-127.734180
0
LWPOLYLINE
5
1090
100
AcDbEntity
8
0
100
AcDbPolyline
90
2
70
0
43
0.000000
10
-175.517871
20
-123.984180
10
-173.017871
20
-123.984180
0
LWPOLYLINE
5
1091
100
AcDbEntity
8
0
100
AcDbPolyline
90
2
70
0
43
0.000000
10
-171.946445
20
-123.984180
10
-171.946445
20
-127.734180
0
LWPOLYLINE
5
1092
100
AcDbEntity
8
0
100
AcDbPolyline
90
2
70
0
43
0.000000
10
-171.946445
20
-123.984180
10
-169.625020
20
-123.984180
0
LWPOLYLINE
5
1093
100
AcDbEntity
8
0
100
AcDbPolyline
90
2
70
0
43
0.000000
10
-171.946445
20
-125.769902
10
-170.517871
20
-125.769902
0
LWPOLYLINE
5
1094
100
AcDbEntity
8
0
100
AcDbPolyline
90
2
70
0
43
0.000000
10
-171.946445
20
-127.734180
10
-169.625020
20
-127.734180
0
LWPOLYLINE
5
1095
100
AcDbEntity
8
0
100
AcDbPolyline
90
8
70
0
43
0.000000
10
-168.375020
20
-125.234189
10
-168.553594
20
-125.412764
10
-168.553594
20
-125.412764
10
-168.375020
20
-125.591318
10
-168.375020
20
-125.591318
10
-168.196445
20
-125.412764
10
-168.196445
20
-125.412764
10
-168.375020
20
-125.234189
0
LWPOLYLINE
5
1096
100
AcDbEntity
8
0
100
AcDbPolyline
90
8
70
0
43
0.000000
10
-168.375020
20
-127.377051
10
-168.553594
20
-127.555605
10
-168.553594
20
-127.555605
10
-168.375020
20
-127.734180
10
-168.375020
20
-127.734180
10
-168.196445
20
-127.555605
10
-168.196445
20
-127.555605
10
-168.375020
20
-127.377051
0
LWPOLYLINE
5
1097
100
AcDbEntity
8
0
100
AcDbPolyline
90
26
70
0
43
0.000000
10
-166.946445
20
-124.877031
10
-166.946445
20
-124.698467
10
-166.946445
20
-124.698467
10
-166.767871
20
-124.341318
10
-166.767871
20
-124.341318
10
-166.589297
20
-124.162754
10
-166.589297
20
-124.162754
10
-166.232148
20
-123.984180
10
-166.232148
20
-123.984180
10
-165.517871
20
-123.984180
10
-165.517871
20
-123.984180
10
-165.160723
20
-124.162754
10
-165.160723
20
-124.162754
10
-164.982148
20
-124.341318
10
-164.982148
20
-124.341318
10
-164.803594
20
-124.698467
10
-164.803594
20
-124.698467
10
-164.803594
20
-125.055615
10
-164.803594
20
-125.055615
10
-164.982148
20
-125.412764
10
-164.982148
20
-125.412764
10
-165.339297
20
-125.948477
10
-165.339297
20
-125.948477
10
-167.125020
20
-127.734180
10
-167.125020
20
-127.734180
10
-164.625020
20
-127.734180
0
LWPOLYLINE
5
1098
100
AcDbEntity
8
0
100
AcDbPolyline
90
32
70
0
43
0.000000
10
-162.482158
20
-123.984180
10
-163.017871
20
-124.162754
10
-163.017871
20
-124.162754
10
-163.375020
20
-124.698467
10
-163.375020
20
-124.698467
10
-163.553584
20
-125.591318
10
-163.553584
20
-125.591318
10
-163.553584
20
-126.127051
10
-163.553584
20
-126.127051
10
-163.375020
20
-127.019893
10
-163.375020
20
-127.019893
10
-163.017871
20
-127.555605
10
-163.017871
20
-127.555605
10
-162.482158
20
-127.734180
10
-162.482158
20
-127.734180
10
-162.125020
20
-127.734180
10
-162.125020
20
-127.734180
10
-161.589297
20
-127.555605
10
-161.589297
20
-127.555605
10
-161.232158
20
-127.019893
10
-161.232158
20
-127.019893
10
-161.053584
20
-126.127051
10
-161.053584
20
-126.127051
10
-161.053584
20
-125.591318
10
-161.053584
20
-125.591318
10
-161.232158
20
-124.698467
10
-161.232158
20
-124.698467
10
-161.589297
20
-124.162754
10
-161.589297
20
-124.162754
10
-162.125020
20
-123.984180
10
-162.125020
20
-123.984180
10
-162.482158
20
-123.984180
0
LWPOLYLINE
5
1099
100
AcDbEntity
8
0
100
AcDbPolyline
90
26
70
0
43
0.000000
10
-159.803584
20
-124.877031
10
-159.803584
20
-124.698467
10
-159.803584
20
-124.698467
10
-159.625010
20
-124.341318
10
-159.625010
20
-124.341318
10
-159.446445
20
-124.162754
10
-159.446445
20
-124.162754
10
-159.089297
20
-123.984180
10
-159.089297
20
-123.984180
10
-158.375010
20
-123.984180
10
-158.375010
20
-123.984180
10
-158.017871
20
-124.162754
10
-158.017871
20
-124.162754
10
-157.839297
20
-124.341318
10
-157.839297
20
-124.341318
10
-157.660742
20
-124.698467
10
-157.660742
20
-124.698467
10
-157.660742
20
-125.055615
10
-157.660742
20
-125.055615
10
-157.839297
20
-125.412764
10
-157.839297
20
-125.412764
10
-158.196445
20
-125.948477
10
-158.196445
20
-125.948477
10
-159.982158
20
-127.734180
10
-159.982158
20
-127.734180
10
-157.482158
20
-127.734180
0
LWPOLYLINE
5
1100
100
AcDbEntity
8
0
100
AcDbPolyline
90
6
70
0
43
0.000000
10
-156.410723
20
-124.698467
10
-156.053584
20
-124.519893
10
-156.053584
20
-124.519893
10
-155.517881
20
-123.984180
10
-155.517881
20
-123.984180
10
-155.517881
20
-127.734180
0
LWPOLYLINE
5
1101
100
AcDbEntity
8
0
100
AcDbPolyline
90
2
70
0
43
0.000000
10
-154.446436
20
-126.127051
10
-151.232148
20
-126.127051
0
LWPOLYLINE
5
1102
100
AcDbEntity
8
0
100
AcDbPolyline
90
32
70
0
43
0.000000
10
-149.089307
20
-123.984180
10
-149.625020
20
-124.162754
10
-149.625020
20
-124.162754
10
-149.982158
20
-124.698467
10
-149.982158
20
-124.698467
10
-150.160732
20
-125.591318
10
-150.160732
20
-125.591318
10
-150.160732
20
-126.127051
10
-150.160732
20
-126.127051
10
-149.982158
20
-127.019893
10
-149.982158
20
-127.019893
10
-149.625020
20
-127.555605
10
-149.625020
20
-127.555605
10
-149.089307
20
-127.734180
10
-149.089307
20
-127.734180
10
-148.732158
20
-127.734180
10
-148.732158
20
-127.734180
10
-148.196445
20
-127.555605
10
-148.196445
20
-127.555605
10
-147.839307
20
-127.019893
10
-147.839307
20
-127.019893
10
-147.660732
20
-126.127051
10
-147.660732
20
-126.127051
10
-147.660732
20
-125.591318
10
-147.660732
20
-125.591318
10
-147.839307
20
-124.698467
10
-147.839307
20
-124.698467
10
-148.196445
20
-124.162754
10
-148.196445
20
-124.162754
10
-148.732158
20
-123.984180
10
-148.732158
20
-123.984180
10
-149.089307
20
-123.984180
0
LWPOLYLINE
5
1103
100
AcDbEntity
8
0
100
AcDbPolyline
90
6
70
0
43
0.000000
10
-146.589307
20
-124.698467
10
-146.232158
20
-124.519893
10
-146.232158
20
-124.519893
10
-145.696445
20
-123.984180
10
-145.696445
20
-123.984180
10
-145.696445
20
-127.734180
0
LWPOLYLINE
5
1104
100
AcDbEntity
8
0
100
AcDbPolyline
90
2
70
0
43
0.000000
10
-144.625020
20
-126.127051
10
-141.410742
20
-126.127051
0
LWPOLYLINE
5
1105
100
AcDbEntity
8
0
100
AcDbPolyline
90
6
70
0
43
0.000000
10
-140.339297
20
-124.698467
10
-139.982168
20
-124.519893
10
-139.982168
20
-124.519893
10
-139.446455
20
-123.984180
10
-139.446455
20
-123.984180
10
-139.446455
20
-127.734180
0
LWPOLYLINE
5
1106
100
AcDbEntity
8
0
100
AcDbPolyline
90
4
70
0
43
0.000000
10
-136.589307
20
-123.984180
10
-138.375010
20
-126.484189
10
-138.375010
20
-126.484189
10
-135.696445
20
-126.484189
0
LWPOLYLINE
5
1107
100
AcDbEntity
8
0
100
AcDbPolyline
90
2
70
0
43
0.000000
10
-136.589307
20
-123.984180
10
-136.589307
20
-127.734180
0
LWPOLYLINE
5
1108
100
AcDbEntity
8
0
100
AcDbPolyline
90
6
70
0
43
0.000000
10
-131.053584
20
-124.698467
10
-130.696445
20
-124.519893
10
-130.696445
20
-124.519893
10
-130.160732
20
-123.984180
10
-130.160732
20
-123.984180
10
-130.160732
20
-127.734180
0
LWPOLYLINE
5
1109
100
AcDbEntity
8
0
100
AcDbPolyline
90
26
70
0
43
0.000000
10
-128.910732
20
-124.877031
10
-128.910732
20
-124.698467
10
-128.910732
20
-124.698467
10
-128.732158
20
-124.341318
10
-128.732158
20
-124.341318
10
-128.553584
20
-124.162754
10
-128.553584
20
-124.162754
10
-128.196445
20
-123.984180
10
-128.196445
20
-123.984180
10
-127.482158
20
-123.984180
10
-127.482158
20
-123.984180
10
-127.125010
20
-124.162754
10
-127.125010
20
-124.162754
10
-126.946445
20
-124.341318
10
-126.946445
20
-124.341318
10
-126.767871
20
-124.698467
10
-126.767871
20
-124.698467
10
-126.767871
20
-125.055615
10
-126.767871
20
-125.055615
10
-126.946445
20
-125.412764
10
-126.946445
20
-125.412764
10
-127.303584
20
-125.948477
10
-127.303584
20
-125.948477
10
-129.089297
20
-127.734180
10
-129.089297
20
-127.734180
10
-126.589297
20
-127.734180
0
LWPOLYLINE
5
1110
100
AcDbEntity
8
0
100
AcDbPolyline
90
8
70
0
43
0.000000
10
-125.339297
20
-125.234189
10
-125.517871
20
-125.412764
10
-125.517871
20
-125.412764
10
-125.339297
20
-125.591318
10
-125.339297
20
-125.591318
10
-125.160723
20
-125.412764
10
-125.160723
20
-125.412764
10
-125.339297
20
-125.234189
0
LWPOLYLINE
5
1111
100
AcDbEntity
8
0
100
AcDbPolyline
90
8
70
0
43
0.000000
10
-125.339297
20
-127.377051
10
-125.517871
20
-127.555605
10
-125.517871
20
-127.555605
10
-125.339297
20
-127.734180
10
-125.339297
20
-127.734180
10
-125.160723
20
-127.555605
10
-125.160723
20
-127.555605
10
-125.339297
20
-127.377051
0
LWPOLYLINE
5
1112
100
AcDbEntity
8
0
100
AcDbPolyline
90
32
70
0
43
0.000000
10
-123.017881
20
-123.984180
10
-123.553594
20
-124.162754
10
-123.553594
20
-124.162754
10
-123.910723
20
-124.698467
10
-123.910723
20
-124.698467
10
-124.089297
20
-125.591318
10
-124.089297
20
-125.591318
10
-124.089297
20
-126.127051
10
-124.089297
20
-126.127051
10
-123.910723
20
-127.019893
10
-123.910723
20
-127.019893
10
-123.553594
20
-127.555605
10
-123.553594
20
-127.555605
10
-123.017881
20
-127.734180
10
-123.017881
20
-127.734180
10
-122.660723
20
-127.734180
10
-122.660723
20
-127.734180
10
-122.125020
20
-127.555605
10
-122.125020
20
-127.555605
10
-121.767881
20
-127.019893
10
-121.767881
20
-127.019893
10
-121.589307
20
-126.127051
10
-121.589307
20
-126.127051
10
-121.589307
20
-125.591318
10
-121.589307
20
-125.591318
10
-121.767881
20
-124.698467
10
-121.767881
20
-124.698467
10
-122.125020
20
-124.162754
10
-122.125020
20
-124.162754
10
-122.660723
20
-123.984180
10
-122.660723
20
-123.984180
10
-123.017881
20
-123.984180
0
LWPOLYLINE
5
1113
100
AcDbEntity
8
0
100
AcDbPolyline
90
32
70
0
43
0.000000
10
-119.446445
20
-123.984180
10
-119.982168
20
-124.162754
10
-119.982168
20
-124.162754
10
-120.339307
20
-124.698467
10
-120.339307
20
-124.698467
10
-120.517881
20
-125.591318
10
-120.517881
20
-125.591318
10
-120.517881
20
-126.127051
10
-120.517881
20
-126.127051
10
-120.339307
20
-127.019893
10
-120.339307
20
-127.019893
10
-119.982168
20
-127.555605
10
-119.982168
20
-127.555605
10
-119.446445
20
-127.734180
10
-119.446445
20
-127.734180
10
-119.089307
20
-127.734180
10
-119.089307
20
-127.734180
10
-118.553594
20
-127.555605
10
-118.553594
20
-127.555605
10
-118.196445
20
-127.019893
10
-118.196445
20
-127.019893
10
-118.017881
20
-126.127051
10
-118.017881
20
-126.127051
10
-118.017881
20
-125.591318
10
-118.017881
20
-125.591318
10
-118.196445
20
-124.698467
10
-118.196445
20
-124.698467
10
-118.553594
20
-124.162754
10
-118.553594
20
-124.162754
10
-119.089307
20
-123.984180
10
-119.089307
20
-123.984180
10
-119.446445
20
-123.984180
0
LWPOLYLINE
5
1114
100
AcDbEntity
8
0
100
AcDbPolyline
90
2
70
0
43
0.000000
10
-183.017871
20
-129.341338
10
-183.017871
20
-133.091328
0
LWPOLYLINE
5
1115
100
AcDbEntity
8
0
100
AcDbPolyline
90
2
70
0
43
0.000000
10
-183.017871
20
-129.341338
10
-180.517891
20
-133.091328
0
LWPOLYLINE
5
1116
100
AcDbEntity
8
0
100
AcDbPolyline
90
2
70
0
43
0.000000
10
-180.517891
20
-129.341338
10
-180.517891
20
-133.091328
0
LWPOLYLINE
5
1117
100
AcDbEntity
8
0
100
AcDbPolyline
90
40
70
0
43
0.000000
10
-178.375020
20
-129.341338
10
-178.732148
20
-129.519893
10
-178.732148
20
-129.519893
10
-179.089316
20
-129.877041
10
-179.089316
20
-129.877041
10
-179.267871
20
-130.234180
10
-179.267871
20
-130.234180
10
-179.446445
20
-130.769893
10
-179.446445
20
-130.769893
10
-179.446445
20
-131.662754
10
-179.446445
20
-131.662754
10
-179.267871
20
-132.198467
10
-179.267871
20
-132.198467
10
-179.089316
20
-132.555615
10
-179.089316
20
-132.555615
10
-178.732148
20
-132.912754
10
-178.732148
20
-132.912754
10
-178.375020
20
-133.091328
10
-178.375020
20
-133.091328
10
-177.660742
20
-133.091328
10
-177.660742
20
-133.091328
10
-177.303574
20
-132.912754
10
-177.303574
20
-132.912754
10
-176.946445
20
-132.555615
10
-176.946445
20
-132.555615
10
-176.767871
20
-132.198467
10
-176.767871
20
-132.198467
10
-176.589297
20
-131.662754
10
-176.589297
20
-131.662754
10
-176.589297
20
-130.769893
10
-176.589297
20
-130.769893
10
-176.767871
20
-130.234180
10
-176.767871
20
-130.234180
10
-176.946445
20
-129.877041
10
-176.946445
20
-129.877041
10
-177.303574
20
-129.519893
10
-177.303574
20
-129.519893
10
-177.660742
20
-129.341338
10
-177.660742
20
-129.341338
10
-178.375020
20
-129.341338
0
LWPOLYLINE
5
1118
100
AcDbEntity
8
0
100
AcDbPolyline
90
8
70
0
43
0.000000
10
-175.339297
20
-130.591328
10
-175.517871
20
-130.769893
10
-175.517871
20
-130.769893
10
-175.339297
20
-130.948467
10
-175.339297
20
-130.948467
10
-175.160742
20
-130.769893
10
-175.160742
20
-130.769893
10
-175.339297
20
-130.591328
0
LWPOLYLINE
5
1119
100
AcDbEntity
8
0
100
AcDbPolyline
90
8
70
0
43
0.000000
10
-175.339297
20
-132.734180
10
-175.517871
20
-132.912754
10
-175.517871
20
-132.912754
10
-175.339297
20
-133.091328
10
-175.339297
20
-133.091328
10
-175.160742
20
-132.912754
10
-175.160742
20
-132.912754
10
-175.339297
20
-132.734180
0
LWPOLYLINE
5
1120
100
AcDbEntity
8
0
100
AcDbPolyline
90
38
70
0
43
0.000000
10
-171.589297
20
-129.877041
10
-171.946445
20
-129.519893
10
-171.946445
20
-129.519893
10
-172.482168
20
-129.341338
10
-172.482168
20
-129.341338
10
-173.196445
20
-129.341338
10
-173.196445
20
-129.341338
10
-173.732168
20
-129.519893
10
-173.732168
20
-129.519893
10
-174.089297
20
-129.877041
10
-174.089297
20
-129.877041
10
-174.089297
20
-130.234180
10
-174.089297
20
-130.234180
10
-173.910742
20
-130.591328
10
-173.910742
20
-130.591328
10
-173.732168
20
-130.769893
10
-173.732168
20
-130.769893
10
-173.375020
20
-130.948467
10
-173.375020
20
-130.948467
10
-172.303594
20
-131.305615
10
-172.303594
20
-131.305615
10
-171.946445
20
-131.484180
10
-171.946445
20
-131.484180
10
-171.767871
20
-131.662754
10
-171.767871
20
-131.662754
10
-171.589297
20
-132.019912
10
-171.589297
20
-132.019912
10
-171.589297
20
-132.555615
10
-171.589297
20
-132.555615
10
-171.946445
20
-132.912754
10
-171.946445
20
-132.912754
10
-172.482168
20
-133.091328
10
-172.482168
20
-133.091328
10
-173.196445
20
-133.091328
10
-173.196445
20
-133.091328
10
-173.732168
20
-132.912754
10
-173.732168
20
-132.912754
10
-174.089297
20
-132.555615
0
LWPOLYLINE
5
1121
100
AcDbEntity
8
0
100
AcDbPolyline
90
40
70
0
43
0.000000
10
-169.446445
20
-129.341338
10
-169.803594
20
-129.519893
10
-169.803594
20
-129.519893
10
-170.160723
20
-129.877041
10
-170.160723
20
-129.877041
10
-170.339297
20
-130.234180
10
-170.339297
20
-130.234180
10
-170.517871
20
-130.769893
10
-170.517871
20
-130.769893
10
-170.517871
20
-131.662754
10
-170.517871
20
-131.662754
10
-170.339297
20
-132.198467
10
-170.339297
20
-132.198467
10
-170.160723
20
-132.555615
10
-170.160723
20
-132.555615
10
-169.803594
20
-132.912754
10
-169.803594
20
-132.912754
10
-169.446445
20
-133.091328
10
-169.446445
20
-133.091328
10
-168.732168
20
-133.091328
10
-168.732168
20
-133.091328
10
-168.375020
20
-132.912754
10
-168.375020
20
-132.912754
10
-168.017871
20
-132.555615
10
-168.017871
20
-132.555615
10
-167.839297
20
-132.198467
10
-167.839297
20
-132.198467
10
-167.660723
20
-131.662754
10
-167.660723
20
-131.662754
10
-167.660723
20
-130.769893
10
-167.660723
20
-130.769893
10
-167.839297
20
-130.234180
10
-167.839297
20
-130.234180
10
-168.017871
20
-129.877041
10
-168.017871
20
-129.877041
10
-168.375020
20
-129.519893
10
-168.375020
20
-129.519893
10
-168.732168
20
-129.341338
10
-168.732168
20
-129.341338
10
-169.446445
20
-129.341338
0
LWPOLYLINE
5
1122
100
AcDbEntity
8
0
100
AcDbPolyline
90
26
70
0
43
0.000000
10
-166.410723
20
-130.234180
10
-166.410723
20
-130.055625
10
-166.410723
20
-130.055625
10
-166.232148
20
-129.698467
10
-166.232148
20
-129.698467
10
-166.053594
20
-129.519893
10
-166.053594
20
-129.519893
10
-165.696445
20
-129.341338
10
-165.696445
20
-129.341338
10
-164.982148
20
-129.341338
10
-164.982148
20
-129.341338
10
-164.625020
20
-129.519893
10
-164.625020
20
-129.519893
10
-164.446445
20
-129.698467
10
-164.446445
20
-129.698467
10
-164.267871
20
-130.055625
10
-164.267871
20
-130.055625
10
-164.267871
20
-130.412754
10
-164.267871
20
-130.412754
10
-164.446445
20
-130.769893
10
-164.446445
20
-130.769893
10
-164.803594
20
-131.305615
10
-164.803594
20
-131.305615
10
-166.589297
20
-133.091328
10
-166.589297
20
-133.091328
10
-164.089316
20
-133.091328
0
LWPOLYLINE
5
1123
100
AcDbEntity
8
0
100
AcDbPolyline
90
6
70
0
43
0.000000
10
-163.017871
20
-130.055625
10
-162.660732
20
-129.877041
10
-162.660732
20
-129.877041
10
-162.125020
20
-129.341338
10
-162.125020
20
-129.341338
10
-162.125020
20
-133.091328
0
LWPOLYLINE
5
1124
100
AcDbEntity
8
0
100
AcDbPolyline
90
32
70
0
43
0.000000
10
-159.982158
20
-129.341338
10
-160.517871
20
-129.519893
10
-160.517871
20
-129.519893
10
-160.875020
20
-130.055625
10
-160.875020
20
-130.055625
10
-161.053584
20
-130.948467
10
-161.053584
20
-130.948467
10
-161.053584
20
-131.484180
10
-161.053584
20
-131.484180
10
-160.875020
20
-132.377041
10
-160.875020
20
-132.377041
10
-160.517871
20
-132.912754
10
-160.517871
20
-132.912754
10
-159.982158
20
-133.091328
10
-159.982158
20
-133.091328
10
-159.625010
20
-133.091328
10
-159.625010
20
-133.091328
10
-159.089297
20
-132.912754
10
-159.089297
20
-132.912754
10
-158.732158
20
-132.377041
10
-158.732158
20
-132.377041
10
-158.553584
20
-131.484180
10
-158.553584
20
-131.484180
10
-158.553584
20
-130.948467
10
-158.553584
20
-130.948467
10
-158.732158
20
-130.055625
10
-158.732158
20
-130.055625
10
-159.089297
20
-129.519893
10
-159.089297
20
-129.519893
10
-159.625010
20
-129.341338
10
-159.625010
20
-129.341338
10
-159.982158
20
-129.341338
0
LWPOLYLINE
5
1125
100
AcDbEntity
8
0
100
AcDbPolyline
90
6
70
0
43
0.000000
10
-157.482158
20
-130.055625
10
-157.125010
20
-129.877041
10
-157.125010
20
-129.877041
10
-156.589297
20
-129.341338
10
-156.589297
20
-129.341338
10
-156.589297
20
-133.091328
0
LWPOLYLINE
5
1126
100
AcDbEntity
8
0
100
AcDbPolyline
90
6
70
0
43
0.000000
10
-155.517881
20
-130.055625
10
-155.160723
20
-129.877041
10
-155.160723
20
-129.877041
10
-154.625010
20
-129.341338
10
-154.625010
20
-129.341338
10
-154.625010
20
-133.091328
0
LWPOLYLINE
5
1127
100
AcDbEntity
8
0
100
AcDbPolyline
90
26
70
0
43
0.000000
10
-153.375020
20
-130.234180
10
-153.375020
20
-130.055625
10
-153.375020
20
-130.055625
10
-153.196436
20
-129.698467
10
-153.196436
20
-129.698467
10
-153.017881
20
-129.519893
10
-153.017881
20
-129.519893
10
-152.660723
20
-129.341338
10
-152.660723
20
-129.341338
10
-151.946436
20
-129.341338
10
-151.946436
20
-129.341338
10
-151.589307
20
-129.519893
10
-151.589307
20
-129.519893
10
-151.410732
20
-129.698467
10
-151.410732
20
-129.698467
10
-151.232148
20
-130.055625
10
-151.232148
20
-130.055625
10
-151.232148
20
-130.412754
10
-151.232148
20
-130.412754
10
-151.410732
20
-130.769893
10
-151.410732
20
-130.769893
10
-151.767881
20
-131.305615
10
-151.767881
20
-131.305615
10
-153.553594
20
-133.091328
10
-153.553594
20
-133.091328
10
-151.053594
20
-133.091328
0
LWPOLYLINE
5
1128
100
AcDbEntity
8
0
100
AcDbPolyline
90
44
70
0
43
0.000000
10
-147.839307
20
-129.877041
10
-148.017871
20
-129.519893
10
-148.017871
20
-129.519893
10
-148.553594
20
-129.341338
10
-148.553594
20
-129.341338
10
-148.910732
20
-129.341338
10
-148.910732
20
-129.341338
10
-149.446445
20
-129.519893
10
-149.446445
20
-129.519893
10
-149.803594
20
-130.055625
10
-149.803594
20
-130.055625
10
-149.982158
20
-130.948467
10
-149.982158
20
-130.948467
10
-149.982158
20
-131.841328
10
-149.982158
20
-131.841328
10
-149.803594
20
-132.555615
10
-149.803594
20
-132.555615
10
-149.446445
20
-132.912754
10
-149.446445
20
-132.912754
10
-148.910732
20
-133.091328
10
-148.910732
20
-133.091328
10
-148.732158
20
-133.091328
10
-148.732158
20
-133.091328
10
-148.196445
20
-132.912754
10
-148.196445
20
-132.912754
10
-147.839307
20
-132.555615
10
-147.839307
20
-132.555615
10
-147.660732
20
-132.019912
10
-147.660732
20
-132.019912
10
-147.660732
20
-131.841328
10
-147.660732
20
-131.841328
10
-147.839307
20
-131.305615
10
-147.839307
20
-131.305615
10
-148.196445
20
-130.948467
10
-148.196445
20
-130.948467
10
-148.732158
20
-130.769893
10
-148.732158
20
-130.769893
10
-148.910732
20
-130.769893
10
-148.910732
20
-130.769893
10
-149.446445
20
-130.948467
10
-149.446445
20
-130.948467
10
-149.803594
20
-131.305615
10
-149.803594
20
-131.305615
10
-149.982158
20
-131.841328
0
LWPOLYLINE
5
1129
100
AcDbEntity
8
0
100
AcDbPolyline
90
6
70
0
43
0.000000
10
-146.589307
20
-130.055625
10
-146.232158
20
-129.877041
10
-146.232158
20
-129.877041
10
-145.696445
20
-129.341338
10
-145.696445
20
-129.341338
10
-145.696445
20
-133.091328
0
LWPOLYLINE
5
1130
100
AcDbEntity
8
0
100
AcDbPolyline
90
56
70
0
43
0.000000
10
-143.732158
20
-129.341338
10
-144.267871
20
-129.519893
10
-144.267871
20
-129.519893
10
-144.446445
20
-129.877041
10
-144.446445
20
-129.877041
10
-144.446445
20
-130.234180
10
-144.446445
20
-130.234180
10
-144.267871
20
-130.591328
10
-144.267871
20
-130.591328
10
-143.910732
20
-130.769893
10
-143.910732
20
-130.769893
10
-143.196445
20
-130.948467
10
-143.196445
20
-130.948467
10
-142.660732
20
-131.127041
10
-142.660732
20
-131.127041
10
-142.303584
20
-131.484180
10
-142.303584
20
-131.484180
10
-142.125010
20
-131.841328
10
-142.125010
20
-131.841328
10
-142.125010
20
-132.377041
10
-142.125010
20
-132.377041
10
-142.303584
20
-132.734180
10
-142.303584
20
-132.734180
10
-142.482158
20
-132.912754
10
-142.482158
20
-132.912754
10
-143.017871
20
-133.091328
10
-143.017871
20
-133.091328
10
-143.732158
20
-133.091328
10
-143.732158
20
-133.091328
10
-144.267871
20
-132.912754
10
-144.267871
20
-132.912754
10
-144.446445
20
-132.734180
10
-144.446445
20
-132.734180
10
-144.625020
20
-132.377041
10
-144.625020
20
-132.377041
10
-144.625020
20
-131.841328
10
-144.625020
20
-131.841328
10
-144.446445
20
-131.484180
10
-144.446445
20
-131.484180
10
-144.089297
20
-131.127041
10
-144.089297
20
-131.127041
10
-143.553584
20
-130.948467
10
-143.553584
20
-130.948467
10
-142.839297
20
-130.769893
10
-142.839297
20
-130.769893
10
-142.482158
20
-130.591328
10
-142.482158
20
-130.591328
10
-142.303584
20
-130.234180
10
-142.303584
20
-130.234180
10
-142.303584
20
-129.877041
10
-142.303584
20
-129.877041
10
-142.482158
20
-129.519893
10
-142.482158
20
-129.519893
10
-143.017871
20
-129.341338
10
-143.017871
20
-129.341338
10
-143.732158
20
-129.341338
0
LWPOLYLINE
5
1131
100
AcDbEntity
8
0
100
AcDbPolyline
90
32
70
0
43
0.000000
10
-138.732168
20
-129.341338
10
-140.517871
20
-129.341338
10
-140.517871
20
-129.341338
10
-140.696455
20
-130.948467
10
-140.696455
20
-130.948467
10
-140.517871
20
-130.769893
10
-140.517871
20
-130.769893
10
-139.982168
20
-130.591328
10
-139.982168
20
-130.591328
10
-139.446455
20
-130.591328
10
-139.446455
20
-130.591328
10
-138.910723
20
-130.769893
10
-138.910723
20
-130.769893
10
-138.553594
20
-131.127041
10
-138.553594
20
-131.127041
10
-138.375010
20
-131.662754
10
-138.375010
20
-131.662754
10
-138.375010
20
-132.019912
10
-138.375010
20
-132.019912
10
-138.732168
20
-132.555615
10
-138.732168
20
-132.555615
10
-139.089297
20
-132.912754
10
-139.089297
20
-132.912754
10
-139.625010
20
-133.091328
10
-139.625010
20
-133.091328
10
-140.160723
20
-133.091328
10
-140.160723
20
-133.091328
10
-140.696455
20
-132.912754
10
-140.696455
20
-132.912754
10
-140.875010
20
-132.734180
10
-140.875010
20
-132.734180
10
-141.053584
20
-132.377041
0
LWPOLYLINE
5
1132
100
AcDbEntity
8
0
100
AcDbPolyline
90
26
70
0
43
0.000000
10
-122.839307
20
-130.234180
10
-122.839307
20
-130.055625
10
-122.839307
20
-130.055625
10
-122.660723
20
-129.698467
10
-122.660723
20
-129.698467
10
-122.482168
20
-129.519893
10
-122.482168
20
-129.519893
10
-122.125020
20
-129.341338
10
-122.125020
20
-129.341338
10
-121.410723
20
-129.341338
10
-121.410723
20
-129.341338
10
-121.053594
20
-129.519893
10
-121.053594
20
-129.519893
10
-120.875020
20
-129.698467
10
-120.875020
20
-129.698467
10
-120.696436
20
-130.055625
10
-120.696436
20
-130.055625
10
-120.696436
20
-130.412754
10
-120.696436
20
-130.412754
10
-120.875020
20
-130.769893
10
-120.875020
20
-130.769893
10
-121.232168
20
-131.305615
10
-121.232168
20
-131.305615
10
-123.017881
20
-133.091328
10
-123.017881
20
-133.091328
10
-120.517881
20
-133.091328
0
LWPOLYLINE
5
1133
100
AcDbEntity
8
0
100
AcDbPolyline
90
56
70
0
43
0.000000
10
-118.553594
20
-129.341338
10
-119.089307
20
-129.519893
10
-119.089307
20
-129.519893
10
-119.267881
20
-129.877041
10
-119.267881
20
-129.877041
10
-119.267881
20
-130.234180
10
-119.267881
20
-130.234180
10
-119.089307
20
-130.591328
10
-119.089307
20
-130.591328
10
-118.732158
20
-130.769893
10
-118.732158
20
-130.769893
10
-118.017881
20
-130.948467
10
-118.017881
20
-130.948467
10
-117.482158
20
-131.127041
10
-117.482158
20
-131.127041
10
-117.125020
20
-131.484180
10
-117.125020
20
-131.484180
10
-116.946445
20
-131.841328
10
-116.946445
20
-131.841328
10
-116.946445
20
-132.377041
10
-116.946445
20
-132.377041
10
-117.125020
20
-132.734180
10
-117.125020
20
-132.734180
10
-117.303594
20
-132.912754
10
-117.303594
20
-132.912754
10
-117.839307
20
-133.091328
10
-117.839307
20
-133.091328
10
-118.553594
20
-133.091328
10
-118.553594
20
-133.091328
10
-119.089307
20
-132.912754
10
-119.089307
20
-132.912754
10
-119.267881
20
-132.734180
10
-119.267881
20
-132.734180
10
-119.446445
20
-132.377041
10
-119.446445
20
-132.377041
10
-119.446445
20
-131.841328
10
-119.446445
20
-131.841328
10
-119.267881
20
-131.484180
10
-119.267881
20
-131.484180
10
-118.910732
20
-131.127041
10
-118.910732
20
-131.127041
10
-118.375020
20
-130.948467
10
-118.375020
20
-130.948467
10
-117.660732
20
-130.769893
10
-117.660732
20
-130.769893
10
-117.303594
20
-130.591328
10
-117.303594
20
-130.591328
10
-117.125020
20
-130.234180
10
-117.125020
20
-130.234180
10
-117.125020
20
-129.877041
10
-117.125020
20
-129.877041
10
-117.303594
20
-129.519893
10
-117.303594
20
-129.519893
10
-117.839307
20
-129.341338
10
-117.839307
20
-129.341338
10
-118.553594
20
-129.341338
0
LWPOLYLINE
5
1134
100
AcDbEntity
8
0
100
AcDbPolyline
90
32
70
0
43
0.000000
10
-113.553584
20
-129.341338
10
-115.339307
20
-129.341338
10
-115.339307
20
-129.341338
10
-115.517871
20
-130.948467
10
-115.517871
20
-130.948467
10
-115.339307
20
-130.769893
10
-115.339307
20
-130.769893
10
-114.803594
20
-130.591328
10
-114.803594
20
-130.591328
10
-114.267871
20
-130.591328
10
-114.267871
20
-130.591328
10
-113.732158
20
-130.769893
10
-113.732158
20
-130.769893
10
-113.375020
20
-131.127041
10
-113.375020
20
-131.127041
10
-113.196445
20
-131.662754
10
-113.196445
20
-131.662754
10
-113.196445
20
-132.019912
10
-113.196445
20
-132.019912
10
-113.553584
20
-132.555615
10
-113.553584
20
-132.555615
10
-113.910732
20
-132.912754
10
-113.910732
20
-132.912754
10
-114.446445
20
-133.091328
10
-114.446445
20
-133.091328
10
-114.982158
20
-133.091328
10
-114.982158
20
-133.091328
10
-115.517871
20
-132.912754
10
-115.517871
20
-132.912754
10
-115.696445
20
-132.734180
10
-115.696445
20
-132.734180
10
-115.875020
20
-132.377041
0
LWPOLYLINE
5
1135
100
AcDbEntity
8
0
100
AcDbPolyline
90
44
70
0
43
0.000000
10
-109.803584
20
-130.591328
10
-109.982158
20
-131.127041
10
-109.982158
20
-131.127041
10
-110.339297
20
-131.484180
10
-110.339297
20
-131.484180
10
-110.875029
20
-131.662754
10
-110.875029
20
-131.662754
10
-111.053584
20
-131.662754
10
-111.053584
20
-131.662754
10
-111.589297
20
-131.484180
10
-111.589297
20
-131.484180
10
-111.946445
20
-131.127041
10
-111.946445
20
-131.127041
10
-112.125020
20
-130.591328
10
-112.125020
20
-130.591328
10
-112.125020
20
-130.412754
10
-112.125020
20
-130.412754
10
-111.946445
20
-129.877041
10
-111.946445
20
-129.877041
10
-111.589297
20
-129.519893
10
-111.589297
20
-129.519893
10
-111.053584
20
-129.341338
10
-111.053584
20
-129.341338
10
-110.875029
20
-129.341338
10
-110.875029
20
-129.341338
10
-110.339297
20
-129.519893
10
-110.339297
20
-129.519893
10
-109.982158
20
-129.877041
10
-109.982158
20
-129.877041
10
-109.803584
20
-130.591328
10
-109.803584
20
-130.591328
10
-109.803584
20
-131.484180
10
-109.803584
20
-131.484180
10
-109.982158
20
-132.377041
10
-109.982158
20
-132.377041
10
-110.339297
20
-132.912754
10
-110.339297
20
-132.912754
10
-110.875029
20
-133.091328
10
-110.875029
20
-133.091328
10
-111.232158
20
-133.091328
10
-111.232158
20
-133.091328
10
-111.767871
20
-132.912754
10
-111.767871
20
-132.912754
10
-111.946445
20
-132.555615
0
LWPOLYLINE
5
1136
100
AcDbEntity
8
0
100
AcDbPolyline
90
32
70
0
43
0.000000
10
-106.410723
20
-129.341338
10
-108.196455
20
-129.341338
10
-108.196455
20
-129.341338
10
-108.375010
20
-130.948467
10
-108.375010
20
-130.948467
10
-108.196455
20
-130.769893
10
-108.196455
20
-130.769893
10
-107.660723
20
-130.591328
10
-107.660723
20
-130.591328
10
-107.125010
20
-130.591328
10
-107.125010
20
-130.591328
10
-106.589307
20
-130.769893
10
-106.589307
20
-130.769893
10
-106.232168
20
-131.127041
10
-106.232168
20
-131.127041
10
-106.053594
20
-131.662754
10
-106.053594
20
-131.662754
10
-106.053594
20
-132.019912
10
-106.053594
20
-132.019912
10
-106.410723
20
-132.555615
10
-106.410723
20
-132.555615
10
-106.767881
20
-132.912754
10
-106.767881
20
-132.912754
10
-107.303594
20
-133.091328
10
-107.303594
20
-133.091328
10
-107.839297
20
-133.091328
10
-107.839297
20
-133.091328
10
-108.375010
20
-132.912754
10
-108.375010
20
-132.912754
10
-108.553584
20
-132.734180
10
-108.553584
20
-132.734180
10
-108.732168
20
-132.377041
0
LWPOLYLINE
5
1137
100
AcDbEntity
8
0
100
AcDbPolyline
90
44
70
0
43
0.000000
10
-102.839307
20
-129.877041
10
-103.017881
20
-129.519893
10
-103.017881
20
-129.519893
10
-103.553594
20
-129.341338
10
-103.553594
20
-129.341338
10
-103.910732
20
-129.341338
10
-103.910732
20
-129.341338
10
-104.446445
20
-129.519893
10
-104.446445
20
-129.519893
10
-104.803594
20
-130.055625
10
-104.803594
20
-130.055625
10
-104.982168
20
-130.948467
10
-104.982168
20
-130.948467
10
-104.982168
20
-131.841328
10
-104.982168
20
-131.841328
10
-104.803594
20
-132.555615
10
-104.803594
20
-132.555615
10
-104.446445
20
-132.912754
10
-104.446445
20
-132.912754
10
-103.910732
20
-133.091328
10
-103.910732
20
-133.091328
10
-103.732168
20
-133.091328
10
-103.732168
20
-133.091328
10
-103.196445
20
-132.912754
10
-103.196445
20
-132.912754
10
-102.839307
20
-132.555615
10
-102.839307
20
-132.555615
10
-102.660732
20
-132.019912
10
-102.660732
20
-132.019912
10
-102.660732
20
-131.841328
10
-102.660732
20
-131.841328
10
-102.839307
20
-131.305615
10
-102.839307
20
-131.305615
10
-103.196445
20
-130.948467
10
-103.196445
20
-130.948467
10
-103.732168
20
-130.769893
10
-103.732168
20
-130.769893
10
-103.910732
20
-130.769893
10
-103.910732
20
-130.769893
10
-104.446445
20
-130.948467
10
-104.446445
20
-130.948467
10
-104.803594
20
-131.305615
10
-104.803594
20
-131.305615
10
-104.982168
20
-131.841328
0
LWPOLYLINE
5
1138
100
AcDbEntity
8
0
100
AcDbPolyline
90
28
70
0
43
0.000000
10
-101.232158
20
-129.341338
10
-99.267871
20
-129.341338
10
-99.267871
20
-129.341338
10
-100.339307
20
-130.769893
10
-100.339307
20
-130.769893
10
-99.803594
20
-130.769893
10
-99.803594
20
-130.769893
10
-99.446445
20
-130.948467
10
-99.446445
20
-130.948467
10
-99.267871
20
-131.127041
10
-99.267871
20
-131.127041
10
-99.089307
20
-131.662754
10
-99.089307
20
-131.662754
10
-99.089307
20
-132.019912
10
-99.089307
20
-132.019912
10
-99.267871
20
-132.555615
10
-99.267871
20
-132.555615
10
-99.625020
20
-132.912754
10
-99.625020
20
-132.912754
10
-100.160732
20
-133.091328
10
-100.160732
20
-133.091328
10
-100.696445
20
-133.091328
10
-100.696445
20
-133.091328
10
-101.232158
20
-132.912754
10
-101.232158
20
-132.912754
10
-101.410732
20
-132.734180
10
-101.410732
20
-132.734180
10
-101.589307
20
-132.377041
0
LWPOLYLINE
5
1139
100
AcDbEntity
8
0
100
AcDbPolyline
90
2
70
0
43
0.000000
10
-96.589316
20
-129.341338
10
-98.017871
20
-133.091328
0
LWPOLYLINE
5
1140
100
AcDbEntity
8
0
100
AcDbPolyline
90
2
70
0
43
0.000000
10
-96.589316
20
-129.341338
10
-95.160742
20
-133.091328
0
LWPOLYLINE
5
1141
100
AcDbEntity
8
0
100
AcDbPolyline
90
2
70
0
43
0.000000
10
-97.482158
20
-131.841328
10
-95.696445
20
-131.841328
0
LWPOLYLINE
5
1142
100
AcDbEntity
8
0
100
AcDbPolyline
90
24
70
0
43
0.000000
10
-76.390996
20
47.121001
42
0.414673
10
-76.640000
20
47.370000
10
-76.640000
20
47.370000
10
-77.115000
20
47.370000
10
-77.115000
20
47.370000
42
0.413451
10
-77.363999
20
47.121001
10
-77.363999
20
47.121001
10
-77.363999
20
46.903999
10
-77.363999
20
46.903999
10
-77.040000
20
46.903999
10
-77.040000
20
46.903999
10
-77.040000
20
46.438003
10
-77.040000
20
46.438003
10
-77.363999
20
46.438003
10
-77.363999
20
46.438003
10
-77.363999
20
46.221001
10
-77.363999
20
46.221001
42
0.413754
10
-77.115000
20
45.972002
10
-77.115000
20
45.972002
10
-76.640000
20
45.972002
10
-76.640000
20
45.972002
42
0.414979
10
-76.390996
20
46.221001
10
-76.390996
20
46.221001
10
-76.390996
20
47.121001
0
LWPOLYLINE
5
1143
100
AcDbEntity
8
0
100
AcDbPolyline
90
26
70
0
43
0.000000
10
-78.266001
20
47.137002
42
0.394770
10
-78.514004
20
47.370000
10
-78.514004
20
47.370000
10
-78.988999
20
47.370000
10
-78.988999
20
47.370000
42
0.414633
10
-79.237998
20
47.121001
10
-79.237998
20
47.121001
10
-79.237998
20
46.221001
10
-79.237998
20
46.221001
42
0.414938
10
-78.988999
20
45.972002
10
-78.988999
20
45.972002
10
-78.514004
20
45.972002
10
-78.514004
20
45.972002
42
0.413795
10
-78.264995
20
46.221001
10
-78.264995
20
46.221001
10
-78.264995
20
46.438003
10
-78.264995
20
46.438003
10
-78.590000
20
46.438003
10
-78.590000
20
46.438003
10
-78.590000
20
46.903999
10
-78.590000
20
46.903999
10
-78.264995
20
46.903999
10
-78.264995
20
46.903999
10
-78.264995
20
47.136001
10
-78.264995
20
47.136001
10
-78.266001
20
47.137002
0
LWPOLYLINE
5
1144
100
AcDbEntity
8
0
100
AcDbPolyline
90
24
70
0
43
0.000000
10
-71.188003
20
47.086001
42
0.414650
10
-71.437002
20
47.335000
10
-71.437002
20
47.335000
10
-71.911997
20
47.335000
10
-71.911997
20
47.335000
42
0.413468
10
-72.160996
20
47.086001
10
-72.160996
20
47.086001
10
-72.160996
20
46.868999
10
-72.160996
20
46.868999
10
-71.837002
20
46.868999
10
-71.837002
20
46.868999
10
-71.837002
20
46.402998
10
-71.837002
20
46.402998
10
-72.160996
20
46.402998
10
-72.160996
20
46.402998
10
-72.160996
20
46.186001
10
-72.160996
20
46.186001
42
0.413783
10
-71.911997
20
45.937002
10
-71.911997
20
45.937002
10
-71.437002
20
45.937002
10
-71.437002
20
45.937002
42
0.414967
10
-71.188003
20
46.186001
10
-71.188003
20
46.186001
10
-71.188003
20
47.086001
0
LWPOLYLINE
5
1145
100
AcDbEntity
8
0
100
AcDbPolyline
90
26
70
0
43
0.000000
10
-73.063003
20
47.102002
42
0.394759
10
-73.311001
20
47.335000
10
-73.311001
20
47.335000
10
-73.785996
20
47.335000
10
-73.785996
20
47.335000
42
0.414627
10
-74.034995
20
47.086001
10
-74.034995
20
47.086001
10
-74.034995
20
46.186001
10
-74.034995
20
46.186001
42
0.414944
10
-73.785996
20
45.937002
10
-73.785996
20
45.937002
10
-73.311001
20
45.937002
10
-73.311001
20
45.937002
42
0.413806
10
-73.062002
20
46.186001
10
-73.062002
20
46.186001
10
-73.062002
20
46.402998
10
-73.062002
20
46.402998
10
-73.386997
20
46.402998
10
-73.386997
20
46.402998
10
-73.386997
20
46.868999
10
-73.386997
20
46.868999
10
-73.062002
20
46.868999
10
-73.062002
20
46.868999
10
-73.062002
20
47.100996
10
-73.062002
20
47.100996
10
-73.063003
20
47.102002
0
LWPOLYLINE
5
1146
100
AcDbEntity
8
0
100
AcDbPolyline
90
16
70
0
43
0.000000
10
84.192002
20
41.917002
10
82.282002
20
41.917002
10
82.282002
20
41.917002
10
82.282002
20
40.683000
10
82.282002
20
40.683000
10
82.191992
20
40.683000
10
82.191992
20
40.683000
10
82.191992
20
39.592002
10
82.191992
20
39.592002
10
84.191006
20
39.592002
10
84.191006
20
39.592002
10
84.191006
20
40.682000
10
84.191006
20
40.682000
10
84.192002
20
40.682000
10
84.192002
20
40.682000
10
84.192002
20
41.917002
0
LWPOLYLINE
5
1147
100
AcDbEntity
8
0
100
AcDbPolyline
90
8
70
0
43
0.000000
10
81.690996
20
40.683999
10
79.690000
20
40.683999
10
79.690000
20
40.683999
10
79.690000
20
39.593000
10
79.690000
20
39.593000
10
81.690996
20
39.593000
10
81.690996
20
39.593000
10
81.690996
20
40.683999
0
LWPOLYLINE
5
1148
100
AcDbEntity
8
0
100
AcDbPolyline
90
8
70
0
43
0.000000
10
79.191997
20
40.683999
10
77.191001
20
40.683999
10
77.191001
20
40.683999
10
77.191001
20
39.593000
10
77.191001
20
39.593000
10
79.191997
20
39.593000
10
79.191997
20
39.593000
10
79.191997
20
40.683999
0
LWPOLYLINE
5
1149
100
AcDbEntity
8
0
100
AcDbPolyline
90
8
70
0
43
0.000000
10
71.101001
20
39.592002
10
68.940996
20
39.592002
10
68.940996
20
39.592002
10
68.940996
20
38.522002
10
68.940996
20
38.522002
10
71.101001
20
38.522002
10
71.101001
20
38.522002
10
71.101001
20
39.592002
0
LWPOLYLINE
5
1150
100
AcDbEntity
8
0
100
AcDbPolyline
90
8
70
0
43
0.000000
10
84.191006
20
39.092998
10
82.191992
20
39.092998
10
82.191992
20
39.092998
10
82.191992
20
36.768000
10
82.191992
20
36.768000
10
84.191006
20
36.768000
10
84.191006
20
36.768000
10
84.191006
20
39.092998
0
LWPOLYLINE
5
1151
100
AcDbEntity
8
0
100
AcDbPolyline
90
8
70
0
43
0.000000
10
81.690000
20
39.092998
10
79.691001
20
39.092998
10
79.691001
20
39.092998
10
79.691001
20
36.768000
10
79.691001
20
36.768000
10
81.690000
20
36.768000
10
81.690000
20
36.768000
10
81.690000
20
39.092998
0
LWPOLYLINE
5
1152
100
AcDbEntity
8
0
100
AcDbPolyline
90
8
70
0
43
0.000000
10
79.191001
20
39.092998
10
77.192002
20
39.092998
10
77.192002
20
39.092998
10
77.192002
20
36.768000
10
77.192002
20
36.768000
10
79.191001
20
36.768000
10
79.191001
20
36.768000
10
79.191001
20
39.092998
0
LWPOLYLINE
5
1153
100
AcDbEntity
8
0
100
AcDbPolyline
90
8
70
0
43
0.000000
10
71.101001
20
37.051997
10
68.940996
20
37.051997
10
68.940996
20
37.051997
10
68.940996
20
35.982002
10
68.940996
20
35.982002
10
71.101001
20
35.982002
10
71.101001
20
35.982002
10
71.101001
20
37.051997
0
LWPOLYLINE
5
1154
100
AcDbEntity
8
0
100
AcDbPolyline
90
8
70
0
43
0.000000
10
84.191006
20
36.265999
10
82.191992
20
36.265999
10
82.191992
20
36.265999
10
82.191992
20
33.941001
10
82.191992
20
33.941001
10
84.191006
20
33.941001
10
84.191006
20
33.941001
10
84.191006
20
36.265999
0
LWPOLYLINE
5
1155
100
AcDbEntity
8
0
100
AcDbPolyline
90
8
70
0
43
0.000000
10
81.690000
20
36.265999
10
79.691001
20
36.265999
10
79.691001
20
36.265999
10
79.691001
20
33.941001
10
79.691001
20
33.941001
10
81.690000
20
33.941001
10
81.690000
20
33.941001
10
81.690000
20
36.265999
0
LWPOLYLINE
5
1156
100
AcDbEntity
8
0
100
AcDbPolyline
90
8
70
0
43
0.000000
10
79.191001
20
36.265999
10
77.192002
20
36.265999
10
77.192002
20
36.265999
10
77.192002
20
33.941001
10
77.192002
20
33.941001
10
79.191001
20
33.941001
10
79.191001
20
33.941001
10
79.191001
20
36.265999
0
LWPOLYLINE
5
1157
100
AcDbEntity
8
0
100
AcDbPolyline
90
8
70
0
43
0.000000
10
71.101001
20
34.512000
10
68.940996
20
34.512000
10
68.940996
20
34.512000
10
68.940996
20
33.441997
10
68.940996
20
33.441997
10
71.101001
20
33.441997
10
71.101001
20
33.441997
10
71.101001
20
34.512000
0
LWPOLYLINE
5
1158
100
AcDbEntity
8
0
100
AcDbPolyline
90
8
70
0
43
0.000000
10
-61.758999
20
33.550002
10
-62.258999
20
33.550002
10
-62.258999
20
33.550002
10
-62.258999
20
32.750000
10
-62.258999
20
32.750000
10
-61.758999
20
32.750000
10
-61.758999
20
32.750000
10
-61.758999
20
33.550002
0
LWPOLYLINE
5
1159
100
AcDbEntity
8
0
100
AcDbPolyline
90
8
70
0
43
0.000000
10
-62.659004
20
33.550002
10
-63.158994
20
33.550002
10
-63.158994
20
33.550002
10
-63.158994
20
32.750000
10
-63.158994
20
32.750000
10
-62.659004
20
32.750000
10
-62.659004
20
32.750000
10
-62.659004
20
33.550002
0
LWPOLYLINE
5
1160
100
AcDbEntity
8
0
100
AcDbPolyline
90
8
70
0
43
0.000000
10
81.690996
20
33.441997
10
79.690000
20
33.441997
10
79.690000
20
33.441997
10
79.690000
20
32.350999
10
79.690000
20
32.350999
10
81.690996
20
32.350999
10
81.690996
20
32.350999
10
81.690996
20
33.441997
0
LWPOLYLINE
5
1161
100
AcDbEntity
8
0
100
AcDbPolyline
90
8
70
0
43
0.000000
10
79.191997
20
33.441997
10
77.191001
20
33.441997
10
77.191001
20
33.441997
10
77.191001
20
32.350999
10
77.191001
20
32.350999
10
79.191997
20
32.350999
10
79.191997
20
32.350999
10
79.191997
20
33.441997
0
LWPOLYLINE
5
1162
100
AcDbEntity
8
0
100
AcDbPolyline
90
16
70
0
43
0.000000
10
84.191006
20
33.440999
10
82.191992
20
33.440999
10
82.191992
20
33.440999
10
82.191992
20
32.352998
10
82.191992
20
32.352998
10
82.282002
20
32.352998
10
82.282002
20
32.352998
10
82.282002
20
31.115999
10
82.282002
20
31.115999
10
84.192002
20
31.115999
10
84.192002
20
31.115999
10
84.192002
20
32.451001
10
84.192002
20
32.451001
10
84.191006
20
32.451001
10
84.191006
20
32.451001
10
84.191006
20
33.440999
0
LWPOLYLINE
5
1163
100
AcDbEntity
8
0
100
AcDbPolyline
90
8
70
0
43
0.000000
10
-61.758999
20
31.950000
10
-62.258999
20
31.950000
10
-62.258999
20
31.950000
10
-62.258999
20
31.150000
10
-62.258999
20
31.150000
10
-61.758999
20
31.150000
10
-61.758999
20
31.150000
10
-61.758999
20
31.950000
0
LWPOLYLINE
5
1164
100
AcDbEntity
8
0
100
AcDbPolyline
90
8
70
0
43
0.000000
10
-62.659004
20
31.950000
10
-63.158994
20
31.950000
10
-63.158994
20
31.950000
10
-63.158994
20
31.150000
10
-63.158994
20
31.150000
10
-62.659004
20
31.150000
10
-62.659004
20
31.150000
10
-62.659004
20
31.950000
0
LWPOLYLINE
5
1165
100
AcDbEntity
8
0
100
AcDbPolyline
90
8
70
0
43
0.000000
10
-85.677002
20
24.223000
10
-86.030996
20
23.869001
10
-86.030996
20
23.869001
10
-85.465000
20
23.304001
10
-85.465000
20
23.304001
10
-85.110996
20
23.657000
10
-85.110996
20
23.657000
10
-85.677002
20
24.223000
0
LWPOLYLINE
5
1166
100
AcDbEntity
8
0
100
AcDbPolyline
90
8
70
0
43
0.000000
10
-86.312998
20
23.585999
10
-86.667002
20
23.233000
10
-86.667002
20
23.233000
10
-86.101006
20
22.667000
10
-86.101006
20
22.667000
10
-85.747998
20
23.020999
10
-85.747998
20
23.020999
10
-86.312998
20
23.585999
0
LWPOLYLINE
5
1167
100
AcDbEntity
8
0
100
AcDbPolyline
90
8
70
0
43
0.000000
10
-39.241001
20
24.222000
10
-39.807000
20
23.655999
10
-39.807000
20
23.655999
10
-39.453000
20
23.303000
10
-39.453000
20
23.303000
10
-38.888000
20
23.868000
10
-38.888000
20
23.868000
10
-39.241001
20
24.222000
0
LWPOLYLINE
5
1168
100
AcDbEntity
8
0
100
AcDbPolyline
90
8
70
0
43
0.000000
10
-38.605000
20
23.585000
10
-39.170000
20
23.020000
10
-39.170000
20
23.020000
10
-38.817000
20
22.666001
10
-38.817000
20
22.666001
10
-38.251001
20
23.232000
10
-38.251001
20
23.232000
10
-38.605000
20
23.585000
0
LWPOLYLINE
5
1169
100
AcDbEntity
8
0
100
AcDbPolyline
90
8
70
0
43
0.000000
10
-40.372000
20
23.090999
10
-40.938000
20
22.525000
10
-40.938000
20
22.525000
10
-40.585000
20
22.171001
10
-40.585000
20
22.171001
10
-40.018999
20
22.737000
10
-40.018999
20
22.737000
10
-40.372000
20
23.090999
0
LWPOLYLINE
5
1170
100
AcDbEntity
8
0
100
AcDbPolyline
90
8
70
0
43
0.000000
10
-84.545996
20
23.090999
10
-84.899004
20
22.738000
10
-84.899004
20
22.738000
10
-84.334004
20
22.172000
10
-84.334004
20
22.172000
10
-83.980000
20
22.525999
10
-83.980000
20
22.525999
10
-84.545996
20
23.090999
0
LWPOLYLINE
5
1171
100
AcDbEntity
8
0
100
AcDbPolyline
90
8
70
0
43
0.000000
10
-85.181992
20
22.455000
10
-85.536006
20
22.101001
10
-85.536006
20
22.101001
10
-84.970000
20
21.536001
10
-84.970000
20
21.536001
10
-84.615996
20
21.888999
10
-84.615996
20
21.888999
10
-85.181992
20
22.455000
0
LWPOLYLINE
5
1172
100
AcDbEntity
8
0
100
AcDbPolyline
90
8
70
0
43
0.000000
10
-39.735999
20
22.453999
10
-40.302002
20
21.887998
10
-40.302002
20
21.887998
10
-39.948000
20
21.535000
10
-39.948000
20
21.535000
10
-39.382000
20
22.101001
10
-39.382000
20
22.101001
10
-39.735999
20
22.453999
0
LWPOLYLINE
5
1173
100
AcDbEntity
8
0
100
AcDbPolyline
90
24
70
0
43
0.000000
10
-60.123999
20
20.443000
42
0.414678
10
-60.373003
20
20.692000
10
-60.373003
20
20.692000
10
-61.273003
20
20.692000
10
-61.273003
20
20.692000
42
0.414632
10
-61.522002
20
20.443000
10
-61.522002
20
20.443000
10
-61.522002
20
19.918000
10
-61.522002
20
19.918000
42
0.413750
10
-61.273003
20
19.669000
10
-61.273003
20
19.669000
10
-61.056001
20
19.669000
10
-61.056001
20
19.669000
10
-61.056001
20
20.010000
10
-61.056001
20
20.010000
10
-60.590000
20
20.010000
10
-60.590000
20
20.010000
10
-60.590000
20
19.669000
10
-60.590000
20
19.669000
10
-60.373003
20
19.669000
10
-60.373003
20
19.669000
42
0.413796
10
-60.123999
20
19.918000
10
-60.123999
20
19.918000
10
-60.123999
20
20.443000
0
LWPOLYLINE
5
1174
100
AcDbEntity
8
0
100
AcDbPolyline
90
24
70
0
43
0.000000
10
-62.375000
20
20.405000
42
0.414678
10
-62.623999
20
20.654001
10
-62.623999
20
20.654001
10
-63.523999
20
20.654001
10
-63.523999
20
20.654001
42
0.414632
10
-63.772998
20
20.405000
10
-63.772998
20
20.405000
10
-63.772998
20
19.880000
10
-63.772998
20
19.880000
42
0.413749
10
-63.523999
20
19.631000
10
-63.523999
20
19.631000
10
-63.307002
20
19.631000
10
-63.307002
20
19.631000
10
-63.307002
20
19.972001
10
-63.307002
20
19.972001
10
-62.840996
20
19.972001
10
-62.840996
20
19.972001
10
-62.840996
20
19.631000
10
-62.840996
20
19.631000
10
-62.623999
20
19.631000
10
-62.623999
20
19.631000
42
0.413795
10
-62.375000
20
19.880000
10
-62.375000
20
19.880000
10
-62.375000
20
20.405000
0
LWPOLYLINE
5
1175
100
AcDbEntity
8
0
100
AcDbPolyline
90
24
70
0
43
0.000000
10
-64.625005
20
20.405000
42
0.414678
10
-64.873999
20
20.654001
10
-64.873999
20
20.654001
10
-65.773999
20
20.654001
10
-65.773999
20
20.654001
42
0.414632
10
-66.022998
20
20.405000
10
-66.022998
20
20.405000
10
-66.022998
20
19.880000
10
-66.022998
20
19.880000
42
0.413749
10
-65.773999
20
19.631000
10
-65.773999
20
19.631000
10
-65.557002
20
19.631000
10
-65.557002
20
19.631000
10
-65.557002
20
19.972001
10
-65.557002
20
19.972001
10
-65.091001
20
19.972001
10
-65.091001
20
19.972001
10
-65.091001
20
19.631000
10
-65.091001
20
19.631000
10
-64.873999
20
19.631000
10
-64.873999
20
19.631000
42
0.413795
10
-64.625005
20
19.880000
10
-64.625005
20
19.880000
10
-64.625005
20
20.405000
0
LWPOLYLINE
5
1176
100
AcDbEntity
8
0
100
AcDbPolyline
90
28
70
0
43
0.000000
10
-48.135000
20
19.304000
42
0.411577
10
-48.485000
20
19.305000
10
-48.485000
20
19.305000
10
-48.857998
20
18.932000
10
-48.857998
20
18.932000
42
0.414690
10
-48.857998
20
18.580001
10
-48.857998
20
18.580001
10
-48.706001
20
18.427999
10
-48.706001
20
18.427999
10
-48.705000
20
18.427999
10
-48.705000
20
18.427999
10
-48.465000
20
18.667999
10
-48.465000
20
18.667999
10
-48.135000
20
18.338000
10
-48.135000
20
18.338000
10
-48.375000
20
18.098000
10
-48.375000
20
18.098000
10
-48.375000
20
18.097001
10
-48.375000
20
18.097001
10
-48.222002
20
17.944000
10
-48.222002
20
17.944000
42
0.414907
10
-47.870000
20
17.944000
10
-47.870000
20
17.944000
10
-47.497998
20
18.316001
10
-47.497998
20
18.316001
42
0.413467
10
-47.497998
20
18.667000
10
-47.497998
20
18.667000
10
-48.135000
20
19.304000
0
LWPOLYLINE
5
1177
100
AcDbEntity
8
0
100
AcDbPolyline
90
24
70
0
43
0.000000
10
-60.123999
20
18.618999
42
0.413505
10
-60.373003
20
18.867000
10
-60.373003
20
18.867000
10
-60.590000
20
18.867000
10
-60.590000
20
18.867000
10
-60.590000
20
18.527000
10
-60.590000
20
18.527000
10
-61.056001
20
18.527000
10
-61.056001
20
18.527000
10
-61.056001
20
18.867000
10
-61.056001
20
18.867000
10
-61.273003
20
18.867000
10
-61.273003
20
18.867000
42
0.414635
10
-61.522002
20
18.618000
10
-61.522002
20
18.618000
10
-61.522002
20
18.092999
10
-61.522002
20
18.092999
42
0.413750
10
-61.273003
20
17.844000
10
-61.273003
20
17.844000
10
-60.373003
20
17.844000
10
-60.373003
20
17.844000
42
0.413796
10
-60.123999
20
18.092999
10
-60.123999
20
18.092999
10
-60.123999
20
18.618999
0
LWPOLYLINE
5
1178
100
AcDbEntity
8
0
100
AcDbPolyline
90
24
70
0
43
0.000000
10
-62.375000
20
18.581000
42
0.413503
10
-62.623999
20
18.828999
10
-62.623999
20
18.828999
10
-62.840996
20
18.828999
10
-62.840996
20
18.828999
10
-62.840996
20
18.488999
10
-62.840996
20
18.488999
10
-63.307002
20
18.488999
10
-63.307002
20
18.488999
10
-63.307002
20
18.828999
10
-63.307002
20
18.828999
10
-63.523999
20
18.828999
10
-63.523999
20
18.828999
42
0.414633
10
-63.772998
20
18.580001
10
-63.772998
20
18.580001
10
-63.772998
20
18.055000
10
-63.772998
20
18.055000
42
0.413750
10
-63.523999
20
17.805999
10
-63.523999
20
17.805999
10
-62.623999
20
17.805999
10
-62.623999
20
17.805999
42
0.413796
10
-62.375000
20
18.055000
10
-62.375000
20
18.055000
10
-62.375000
20
18.581000
0
LWPOLYLINE
5
1179
100
AcDbEntity
8
0
100
AcDbPolyline
90
24
70
0
43
0.000000
10
-64.625005
20
18.581000
42
0.413503
10
-64.873999
20
18.828999
10
-64.873999
20
18.828999
10
-65.091001
20
18.828999
10
-65.091001
20
18.828999
10
-65.091001
20
18.488999
10
-65.091001
20
18.488999
10
-65.557002
20
18.488999
10
-65.557002
20
18.488999
10
-65.557002
20
18.828999
10
-65.557002
20
18.828999
10
-65.773999
20
18.828999
10
-65.773999
20
18.828999
42
0.414633
10
-66.022998
20
18.580001
10
-66.022998
20
18.580001
10
-66.022998
20
18.055000
10
-66.022998
20
18.055000
42
0.413750
10
-65.773999
20
17.805999
10
-65.773999
20
17.805999
10
-64.873999
20
17.805999
10
-64.873999
20
17.805999
42
0.413796
10
-64.625005
20
18.055000
10
-64.625005
20
18.055000
10
-64.625005
20
18.581000
0
LWPOLYLINE
5
1180
100
AcDbEntity
8
0
100
AcDbPolyline
90
24
70
0
43
0.000000
10
-49.426997
20
18.014999
42
0.411584
10
-49.777002
20
18.014000
10
-49.777002
20
18.014000
10
-50.148999
20
17.642001
10
-50.148999
20
17.642001
42
0.414684
10
-50.148999
20
17.290000
10
-50.148999
20
17.290000
10
-49.513003
20
16.654000
10
-49.513003
20
16.654000
42
0.414907
10
-49.160996
20
16.654000
10
-49.160996
20
16.654000
10
-48.788999
20
17.026000
10
-48.788999
20
17.026000
42
0.413477
10
-48.788999
20
17.377001
10
-48.788999
20
17.377001
10
-48.942998
20
17.531000
10
-48.942998
20
17.531000
10
-49.185000
20
17.288999
10
-49.185000
20
17.288999
10
-49.515000
20
17.619000
10
-49.515000
20
17.619000
10
-49.272998
20
17.861000
10
-49.272998
20
17.861000
10
-49.426997
20
18.014999
0
LWPOLYLINE
5
1181
100
AcDbEntity
8
0
100
AcDbPolyline
90
28
70
0
43
0.000000
10
-46.580000
20
17.859000
42
0.411576
10
-46.930000
20
17.859999
10
-46.930000
20
17.859999
10
-47.302998
20
17.487001
10
-47.302998
20
17.487001
42
0.414660
10
-47.302998
20
17.135000
10
-47.302998
20
17.135000
10
-47.151001
20
16.983000
10
-47.151001
20
16.983000
10
-47.150000
20
16.983000
10
-47.150000
20
16.983000
10
-46.910000
20
17.223000
10
-46.910000
20
17.223000
10
-46.580000
20
16.892999
10
-46.580000
20
16.892999
10
-46.820000
20
16.652999
10
-46.820000
20
16.652999
10
-46.820000
20
16.652000
10
-46.820000
20
16.652000
10
-46.666997
20
16.499000
10
-46.666997
20
16.499000
42
0.414905
10
-46.315000
20
16.499000
10
-46.315000
20
16.499000
10
-45.942998
20
16.871000
10
-45.942998
20
16.871000
42
0.413477
10
-45.942998
20
17.222001
10
-45.942998
20
17.222001
10
-46.580000
20
17.859000
0
LWPOLYLINE
5
1182
100
AcDbEntity
8
0
100
AcDbPolyline
90
24
70
0
43
0.000000
10
-47.871997
20
16.570000
42
0.411587
10
-48.222002
20
16.569000
10
-48.222002
20
16.569000
10
-48.594004
20
16.197000
10
-48.594004
20
16.197000
42
0.414650
10
-48.594004
20
15.845001
10
-48.594004
20
15.845001
10
-47.958003
20
15.208999
10
-47.958003
20
15.208999
42
0.414897
10
-47.606001
20
15.208999
10
-47.606001
20
15.208999
10
-47.233999
20
15.581000
10
-47.233999
20
15.581000
42
0.413476
10
-47.233999
20
15.932000
10
-47.233999
20
15.932000
10
-47.387998
20
16.085999
10
-47.387998
20
16.085999
10
-47.630000
20
15.844000
10
-47.630000
20
15.844000
10
-47.960000
20
16.174000
10
-47.960000
20
16.174000
10
-47.717998
20
16.416000
10
-47.717998
20
16.416000
10
-47.871997
20
16.570000
0
LWPOLYLINE
5
1183
100
AcDbEntity
8
0
100
AcDbPolyline
90
24
70
0
43
0.000000
10
-73.412998
20
16.229000
42
0.414672
10
-73.661997
20
16.478000
10
-73.661997
20
16.478000
10
-74.187002
20
16.478000
10
-74.187002
20
16.478000
42
0.413448
10
-74.436001
20
16.229000
10
-74.436001
20
16.229000
10
-74.436001
20
16.012000
10
-74.436001
20
16.012000
10
-74.095005
20
16.012000
10
-74.095005
20
16.012000
10
-74.095005
20
15.546000
10
-74.095005
20
15.546000
10
-74.436001
20
15.546000
10
-74.436001
20
15.546000
10
-74.436001
20
15.328999
10
-74.436001
20
15.328999
42
0.413749
10
-74.187002
20
15.080000
10
-74.187002
20
15.080000
10
-73.661997
20
15.080000
10
-73.661997
20
15.080000
42
0.414973
10
-73.412998
20
15.328999
10
-73.412998
20
15.328999
10
-73.412998
20
16.229000
0
LWPOLYLINE
5
1184
100
AcDbEntity
8
0
100
AcDbPolyline
90
24
70
0
43
0.000000
10
-75.237998
20
16.229000
42
0.414672
10
-75.487002
20
16.478000
10
-75.487002
20
16.478000
10
-76.012002
20
16.478000
10
-76.012002
20
16.478000
42
0.413454
10
-76.261001
20
16.229000
10
-76.261001
20
16.229000
10
-76.261001
20
15.328999
10
-76.261001
20
15.328999
42
0.413754
10
-76.012002
20
15.080000
10
-76.012002
20
15.080000
10
-75.485996
20
15.080000
10
-75.485996
20
15.080000
42
0.413789
10
-75.237998
20
15.328999
10
-75.237998
20
15.328999
10
-75.237998
20
15.546000
10
-75.237998
20
15.546000
10
-75.577998
20
15.546000
10
-75.577998
20
15.546000
10
-75.577998
20
16.012000
10
-75.577998
20
16.012000
10
-75.237998
20
16.012000
10
-75.237998
20
16.012000
10
-75.237998
20
16.229000
0
LWPOLYLINE
5
1185
100
AcDbEntity
8
0
100
AcDbPolyline
90
28
70
0
43
0.000000
10
-44.935000
20
16.303999
42
0.411574
10
-45.285000
20
16.305000
10
-45.285000
20
16.305000
10
-45.657998
20
15.932000
10
-45.657998
20
15.932000
42
0.414659
10
-45.657998
20
15.580000
10
-45.657998
20
15.580000
10
-45.506001
20
15.428000
10
-45.506001
20
15.428000
10
-45.505000
20
15.428000
10
-45.505000
20
15.428000
10
-45.265000
20
15.667999
10
-45.265000
20
15.667999
10
-44.935000
20
15.338000
10
-44.935000
20
15.338000
10
-45.175000
20
15.098000
10
-45.175000
20
15.098000
10
-45.175000
20
15.097000
10
-45.175000
20
15.097000
10
-45.022002
20
14.944000
10
-45.022002
20
14.944000
42
0.414911
10
-44.670000
20
14.944000
10
-44.670000
20
14.944000
10
-44.298003
20
15.316000
10
-44.298003
20
15.316000
42
0.413493
10
-44.298003
20
15.667001
10
-44.298003
20
15.667001
10
-44.935000
20
16.303999
0
LWPOLYLINE
5
1186
100
AcDbEntity
8
0
100
AcDbPolyline
90
24
70
0
43
0.000000
10
-46.227002
20
15.015000
42
0.411571
10
-46.576997
20
15.014000
10
-46.576997
20
15.014000
10
-46.948999
20
14.642001
10
-46.948999
20
14.642001
42
0.414660
10
-46.948999
20
14.290000
10
-46.948999
20
14.290000
10
-46.312998
20
13.654000
10
-46.312998
20
13.654000
42
0.414903
10
-45.961001
20
13.654000
10
-45.961001
20
13.654000
10
-45.588999
20
14.026000
10
-45.588999
20
14.026000
42
0.413484
10
-45.588999
20
14.377000
10
-45.588999
20
14.377000
10
-45.742998
20
14.531000
10
-45.742998
20
14.531000
10
-45.985000
20
14.289000
10
-45.985000
20
14.289000
10
-46.315000
20
14.619000
10
-46.315000
20
14.619000
10
-46.073003
20
14.861000
10
-46.073003
20
14.861000
10
-46.227002
20
15.015000
0
LWPOLYLINE
5
1187
100
AcDbEntity
8
0
100
AcDbPolyline
90
24
70
0
43
0.000000
10
-73.412998
20
13.979000
42
0.414669
10
-73.661997
20
14.228000
10
-73.661997
20
14.228000
10
-74.187002
20
14.228000
10
-74.187002
20
14.228000
42
0.413447
10
-74.436001
20
13.979000
10
-74.436001
20
13.979000
10
-74.436001
20
13.762000
10
-74.436001
20
13.762000
10
-74.095005
20
13.762000
10
-74.095005
20
13.762000
10
-74.095005
20
13.296000
10
-74.095005
20
13.296000
10
-74.436001
20
13.296000
10
-74.436001
20
13.296000
10
-74.436001
20
13.079000
10
-74.436001
20
13.079000
42
0.413749
10
-74.187002
20
12.830000
10
-74.187002
20
12.830000
10
-73.661997
20
12.830000
10
-73.661997
20
12.830000
42
0.414977
10
-73.412998
20
13.079000
10
-73.412998
20
13.079000
10
-73.412998
20
13.979000
0
LWPOLYLINE
5
1188
100
AcDbEntity
8
0
100
AcDbPolyline
90
24
70
0
43
0.000000
10
-75.237998
20
13.979000
42
0.414671
10
-75.487002
20
14.228000
10
-75.487002
20
14.228000
10
-76.012002
20
14.228000
10
-76.012002
20
14.228000
42
0.413452
10
-76.261001
20
13.979000
10
-76.261001
20
13.979000
10
-76.261001
20
13.079000
10
-76.261001
20
13.079000
42
0.413754
10
-76.012002
20
12.830000
10
-76.012002
20
12.830000
10
-75.485996
20
12.830000
10
-75.485996
20
12.830000
42
0.413792
10
-75.237998
20
13.079000
10
-75.237998
20
13.079000
10
-75.237998
20
13.296000
10
-75.237998
20
13.296000
10
-75.577998
20
13.296000
10
-75.577998
20
13.296000
10
-75.577998
20
13.762000
10
-75.577998
20
13.762000
10
-75.237998
20
13.762000
10
-75.237998
20
13.762000
10
-75.237998
20
13.979000
0
LWPOLYLINE
5
1189
100
AcDbEntity
8
0
100
AcDbPolyline
90
24
70
0
43
0.000000
10
-73.412998
20
11.729000
42
0.414671
10
-73.661997
20
11.978000
10
-73.661997
20
11.978000
10
-74.187002
20
11.978000
10
-74.187002
20
11.978000
42
0.413444
10
-74.436001
20
11.729000
10
-74.436001
20
11.729000
10
-74.436001
20
11.512000
10
-74.436001
20
11.512000
10
-74.095005
20
11.512000
10
-74.095005
20
11.512000
10
-74.095005
20
11.046000
10
-74.095005
20
11.046000
10
-74.436001
20
11.046000
10
-74.436001
20
11.046000
10
-74.436001
20
10.829000
10
-74.436001
20
10.829000
42
0.413753
10
-74.187002
20
10.580000
10
-74.187002
20
10.580000
10
-73.661997
20
10.580000
10
-73.661997
20
10.580000
42
0.414976
10
-73.412998
20
10.829000
10
-73.412998
20
10.829000
10
-73.412998
20
11.729000
0
LWPOLYLINE
5
1190
100
AcDbEntity
8
0
100
AcDbPolyline
90
24
70
0
43
0.000000
10
-75.237998
20
11.729000
42
0.414671
10
-75.487002
20
11.978000
10
-75.487002
20
11.978000
10
-76.012002
20
11.978000
10
-76.012002
20
11.978000
42
0.413449
10
-76.261001
20
11.729000
10
-76.261001
20
11.729000
10
-76.261001
20
10.829000
10
-76.261001
20
10.829000
42
0.413759
10
-76.012002
20
10.580000
10
-76.012002
20
10.580000
10
-75.485996
20
10.580000
10
-75.485996
20
10.580000
42
0.413794
10
-75.237998
20
10.829000
10
-75.237998
20
10.829000
10
-75.237998
20
11.046000
10
-75.237998
20
11.046000
10
-75.577998
20
11.046000
10
-75.577998
20
11.046000
10
-75.577998
20
11.512000
10
-75.577998
20
11.512000
10
-75.237998
20
11.512000
10
-75.237998
20
11.512000
10
-75.237998
20
11.729000
0
LWPOLYLINE
5
1191
100
AcDbEntity
8
0
100
AcDbPolyline
90
24
70
0
43
0.000000
10
-60.462998
20
8.035001
42
0.414672
10
-60.711997
20
8.284000
10
-60.711997
20
8.284000
10
-61.611997
20
8.284000
10
-61.611997
20
8.284000
42
0.414637
10
-61.861001
20
8.035001
10
-61.861001
20
8.035001
10
-61.861001
20
7.510000
10
-61.861001
20
7.510000
42
0.413752
10
-61.611997
20
7.261000
10
-61.611997
20
7.261000
10
-61.395000
20
7.261000
10
-61.395000
20
7.261000
10
-61.395000
20
7.602000
10
-61.395000
20
7.602000
10
-60.928999
20
7.602000
10
-60.928999
20
7.602000
10
-60.928999
20
7.261000
10
-60.928999
20
7.261000
10
-60.711997
20
7.261000
10
-60.711997
20
7.261000
42
0.413787
10
-60.462998
20
7.510000
10
-60.462998
20
7.510000
10
-60.462998
20
8.035001
0
LWPOLYLINE
5
1192
100
AcDbEntity
8
0
100
AcDbPolyline
90
24
70
0
43
0.000000
10
-58.351001
20
8.034000
42
0.414670
10
-58.600000
20
8.283000
10
-58.600000
20
8.283000
10
-59.500000
20
8.283000
10
-59.500000
20
8.283000
42
0.414630
10
-59.748999
20
8.034000
10
-59.748999
20
8.034000
10
-59.748999
20
7.509000
10
-59.748999
20
7.509000
42
0.413755
10
-59.500000
20
7.260000
10
-59.500000
20
7.260000
10
-59.282998
20
7.260000
10
-59.282998
20
7.260000
10
-59.282998
20
7.601000
10
-59.282998
20
7.601000
10
-58.816997
20
7.601000
10
-58.816997
20
7.601000
10
-58.816997
20
7.260000
10
-58.816997
20
7.260000
10
-58.600000
20
7.260000
10
-58.600000
20
7.260000
42
0.413795
10
-58.351001
20
7.509000
10
-58.351001
20
7.509000
10
-58.351001
20
8.034000
0
LWPOLYLINE
5
1193
100
AcDbEntity
8
0
100
AcDbPolyline
90
24
70
0
43
0.000000
10
-64.021001
20
6.658000
42
0.414660
10
-64.269995
20
6.907000
10
-64.269995
20
6.907000
10
-64.795000
20
6.907000
10
-64.795000
20
6.907000
42
0.413461
10
-65.043999
20
6.658000
10
-65.043999
20
6.658000
10
-65.043999
20
6.441000
10
-65.043999
20
6.441000
10
-64.703003
20
6.441000
10
-64.703003
20
6.441000
10
-64.703003
20
5.975000
10
-64.703003
20
5.975000
10
-65.043999
20
5.975000
10
-65.043999
20
5.975000
10
-65.043999
20
5.758000
10
-65.043999
20
5.758000
42
0.413761
10
-64.795000
20
5.509000
10
-64.795000
20
5.509000
10
-64.269995
20
5.509000
10
-64.269995
20
5.509000
42
0.414963
10
-64.021001
20
5.758000
10
-64.021001
20
5.758000
10
-64.021001
20
6.658000
0
LWPOLYLINE
5
1194
100
AcDbEntity
8
0
100
AcDbPolyline
90
24
70
0
43
0.000000
10
-65.845996
20
6.658000
42
0.414677
10
-66.095000
20
6.907000
10
-66.095000
20
6.907000
10
-66.620000
20
6.907000
10
-66.620000
20
6.907000
42
0.413442
10
-66.868999
20
6.658000
10
-66.868999
20
6.658000
10
-66.868999
20
5.758000
10
-66.868999
20
5.758000
42
0.413742
10
-66.620000
20
5.509000
10
-66.620000
20
5.509000
10
-66.093994
20
5.509000
10
-66.093994
20
5.509000
42
0.413795
10
-65.845996
20
5.758000
10
-65.845996
20
5.758000
10
-65.845996
20
5.975000
10
-65.845996
20
5.975000
10
-66.186001
20
5.975000
10
-66.186001
20
5.975000
10
-66.186001
20
6.441000
10
-66.186001
20
6.441000
10
-65.845996
20
6.441000
10
-65.845996
20
6.441000
10
-65.845996
20
6.658000
0
LWPOLYLINE
5
1195
100
AcDbEntity
8
0
100
AcDbPolyline
90
24
70
0
43
0.000000
10
-60.462998
20
6.211000
42
0.413496
10
-60.711997
20
6.459000
10
-60.711997
20
6.459000
10
-60.928999
20
6.459000
10
-60.928999
20
6.459000
10
-60.928999
20
6.119000
10
-60.928999
20
6.119000
10
-61.395000
20
6.119000
10
-61.395000
20
6.119000
10
-61.395000
20
6.459000
10
-61.395000
20
6.459000
10
-61.611997
20
6.459000
10
-61.611997
20
6.459000
42
0.414639
10
-61.861001
20
6.210000
10
-61.861001
20
6.210000
10
-61.861001
20
5.685000
10
-61.861001
20
5.685000
42
0.413754
10
-61.611997
20
5.436000
10
-61.611997
20
5.436000
10
-60.711997
20
5.436000
10
-60.711997
20
5.436000
42
0.413788
10
-60.462998
20
5.685000
10
-60.462998
20
5.685000
10
-60.462998
20
6.211000
0
LWPOLYLINE
5
1196
100
AcDbEntity
8
0
100
AcDbPolyline
90
24
70
0
43
0.000000
10
-58.351001
20
6.210000
42
0.413493
10
-58.600000
20
6.458000
10
-58.600000
20
6.458000
10
-58.816997
20
6.458000
10
-58.816997
20
6.458000
10
-58.816997
20
6.118000
10
-58.816997
20
6.118000
10
-59.282998
20
6.118000
10
-59.282998
20
6.118000
10
-59.282998
20
6.458000
10
-59.282998
20
6.458000
10
-59.500000
20
6.458000
10
-59.500000
20
6.458000
42
0.414630
10
-59.748999
20
6.209000
10
-59.748999
20
6.209000
10
-59.748999
20
5.684000
10
-59.748999
20
5.684000
42
0.413759
10
-59.500000
20
5.435000
10
-59.500000
20
5.435000
10
-58.600000
20
5.435000
10
-58.600000
20
5.435000
42
0.413799
10
-58.351001
20
5.684000
10
-58.351001
20
5.684000
10
-58.351001
20
6.210000
0
LWPOLYLINE
5
1197
100
AcDbEntity
8
0
100
AcDbPolyline
90
26
70
0
43
0.000000
10
-62.256001
20
4.324000
42
0.414689
10
-62.505000
20
4.573000
10
-62.505000
20
4.573000
10
-63.405000
20
4.573000
10
-63.405000
20
4.573000
42
0.414635
10
-63.653999
20
4.324000
10
-63.653999
20
4.324000
10
-63.653999
20
3.849000
10
-63.653999
20
3.849000
42
0.413740
10
-63.405000
20
3.600000
10
-63.405000
20
3.600000
10
-63.188003
20
3.600000
10
-63.188003
20
3.600000
10
-63.188003
20
3.925000
10
-63.188003
20
3.925000
10
-62.721997
20
3.925000
10
-62.721997
20
3.925000
10
-62.721997
20
3.600000
10
-62.721997
20
3.600000
10
-62.490000
20
3.600000
10
-62.490000
20
3.600000
10
-62.488999
20
3.601000
10
-62.488999
20
3.601000
42
0.395061
10
-62.256001
20
3.849000
10
-62.256001
20
3.849000
10
-62.256001
20
4.324000
0
LWPOLYLINE
5
1198
100
AcDbEntity
8
0
100
AcDbPolyline
90
24
70
0
43
0.000000
10
-55.880000
20
3.896000
42
0.413496
10
-56.128999
20
4.145000
10
-56.128999
20
4.145000
10
-57.080000
20
4.145000
10
-57.080000
20
4.145000
42
0.414632
10
-57.328999
20
3.896000
10
-57.328999
20
3.896000
10
-57.328999
20
3.396000
10
-57.328999
20
3.396000
42
0.414924
10
-57.080000
20
3.147000
10
-57.080000
20
3.147000
10
-56.846001
20
3.147000
10
-56.846001
20
3.147000
10
-56.846001
20
3.479000
10
-56.846001
20
3.479000
10
-56.361997
20
3.479000
10
-56.361997
20
3.479000
10
-56.361997
20
3.147000
10
-56.361997
20
3.147000
10
-56.128999
20
3.147000
10
-56.128999
20
3.147000
42
0.413791
10
-55.880000
20
3.396000
10
-55.880000
20
3.396000
10
-55.880000
20
3.896000
0
LWPOLYLINE
5
1199
100
AcDbEntity
8
0
100
AcDbPolyline
90
24
70
0
43
0.000000
10
-65.128999
20
2.917000
42
0.413503
10
-65.378003
20
3.166000
10
-65.378003
20
3.166000
10
-66.329004
20
3.166000
10
-66.329004
20
3.166000
42
0.414618
10
-66.578003
20
2.917000
10
-66.578003
20
2.917000
10
-66.578003
20
2.417000
10
-66.578003
20
2.417000
42
0.414911
10
-66.329004
20
2.168000
10
-66.329004
20
2.168000
10
-66.095000
20
2.168000
10
-66.095000
20
2.168000
10
-66.095000
20
2.500000
10
-66.095000
20
2.500000
10
-65.610996
20
2.500000
10
-65.610996
20
2.500000
10
-65.610996
20
2.168000
10
-65.610996
20
2.168000
10
-65.378003
20
2.168000
10
-65.378003
20
2.168000
42
0.413791
10
-65.128999
20
2.417000
10
-65.128999
20
2.417000
10
-65.128999
20
2.917000
0
LWPOLYLINE
5
1200
100
AcDbEntity
8
0
100
AcDbPolyline
90
24
70
0
43
0.000000
10
-83.512998
20
2.579000
42
0.414671
10
-83.762002
20
2.828000
10
-83.762002
20
2.828000
10
-84.287002
20
2.828000
10
-84.287002
20
2.828000
42
0.413464
10
-84.536006
20
2.579000
10
-84.536006
20
2.579000
10
-84.536006
20
2.362000
10
-84.536006
20
2.362000
10
-84.195000
20
2.362000
10
-84.195000
20
2.362000
10
-84.195000
20
1.896000
10
-84.195000
20
1.896000
10
-84.536006
20
1.896000
10
-84.536006
20
1.896000
10
-84.536006
20
1.679000
10
-84.536006
20
1.679000
42
0.413757
10
-84.287002
20
1.430000
10
-84.287002
20
1.430000
10
-83.762002
20
1.430000
10
-83.762002
20
1.430000
42
0.414966
10
-83.512998
20
1.679000
10
-83.512998
20
1.679000
10
-83.512998
20
2.579000
0
LWPOLYLINE
5
1201
100
AcDbEntity
8
0
100
AcDbPolyline
90
24
70
0
43
0.000000
10
-85.337998
20
2.579000
42
0.414682
10
-85.587002
20
2.828000
10
-85.587002
20
2.828000
10
-86.112002
20
2.828000
10
-86.112002
20
2.828000
42
0.413453
10
-86.360996
20
2.579000
10
-86.360996
20
2.579000
10
-86.360996
20
1.679000
10
-86.360996
20
1.679000
42
0.413746
10
-86.112002
20
1.430000
10
-86.112002
20
1.430000
10
-85.585996
20
1.430000
10
-85.585996
20
1.430000
42
0.413792
10
-85.337998
20
1.679000
10
-85.337998
20
1.679000
10
-85.337998
20
1.896000
10
-85.337998
20
1.896000
10
-85.677998
20
1.896000
10
-85.677998
20
1.896000
10
-85.677998
20
2.362000
10
-85.677998
20
2.362000
10
-85.337998
20
2.362000
10
-85.337998
20
2.362000
10
-85.337998
20
2.579000
0
LWPOLYLINE
5
1202
100
AcDbEntity
8
0
100
AcDbPolyline
90
24
70
0
43
0.000000
10
-62.256001
20
2.450000
42
0.413505
10
-62.505000
20
2.699000
10
-62.505000
20
2.699000
10
-62.721997
20
2.699000
10
-62.721997
20
2.699000
10
-62.721997
20
2.375000
10
-62.721997
20
2.375000
10
-63.188003
20
2.375000
10
-63.188003
20
2.375000
10
-63.188003
20
2.699000
10
-63.188003
20
2.699000
10
-63.405000
20
2.699000
10
-63.405000
20
2.699000
42
0.413452
10
-63.653999
20
2.450000
10
-63.653999
20
2.450000
10
-63.653999
20
1.975000
10
-63.653999
20
1.975000
42
0.414925
10
-63.405000
20
1.726000
10
-63.405000
20
1.726000
10
-62.505000
20
1.726000
10
-62.505000
20
1.726000
42
0.414978
10
-62.256001
20
1.975000
10
-62.256001
20
1.975000
10
-62.256001
20
2.450000
0
LWPOLYLINE
5
1203
100
AcDbEntity
8
0
100
AcDbPolyline
90
24
70
0
43
0.000000
10
-41.820000
20
2.289000
42
0.414678
10
-42.068999
20
2.538000
10
-42.068999
20
2.538000
10
-42.593999
20
2.538000
10
-42.593999
20
2.538000
42
0.413460
10
-42.842998
20
2.289000
10
-42.842998
20
2.289000
10
-42.842998
20
2.072000
10
-42.842998
20
2.072000
10
-42.502002
20
2.072000
10
-42.502002
20
2.072000
10
-42.502002
20
1.606000
10
-42.502002
20
1.606000
10
-42.842998
20
1.606000
10
-42.842998
20
1.606000
10
-42.842998
20
1.389000
10
-42.842998
20
1.389000
42
0.413750
10
-42.593999
20
1.140000
10
-42.593999
20
1.140000
10
-42.068999
20
1.140000
10
-42.068999
20
1.140000
42
0.414970
10
-41.820000
20
1.389000
10
-41.820000
20
1.389000
10
-41.820000
20
2.289000
0
LWPOLYLINE
5
1204
100
AcDbEntity
8
0
100
AcDbPolyline
90
24
70
0
43
0.000000
10
-43.645000
20
2.289000
42
0.414672
10
-43.893999
20
2.538000
10
-43.893999
20
2.538000
10
-44.418999
20
2.538000
10
-44.418999
20
2.538000
42
0.413465
10
-44.667998
20
2.289000
10
-44.667998
20
2.289000
10
-44.667998
20
1.389000
10
-44.667998
20
1.389000
42
0.413756
10
-44.418999
20
1.140000
10
-44.418999
20
1.140000
10
-43.892998
20
1.140000
10
-43.892998
20
1.140000
42
0.413785
10
-43.645000
20
1.389000
10
-43.645000
20
1.389000
10
-43.645000
20
1.606000
10
-43.645000
20
1.606000
10
-43.985000
20
1.606000
10
-43.985000
20
1.606000
10
-43.985000
20
2.072000
10
-43.985000
20
2.072000
10
-43.645000
20
2.072000
10
-43.645000
20
2.072000
10
-43.645000
20
2.289000
0
LWPOLYLINE
5
1205
100
AcDbEntity
8
0
100
AcDbPolyline
90
26
70
0
43
0.000000
10
-55.881997
20
2.024000
42
0.380859
10
-56.128999
20
2.245000
10
-56.128999
20
2.245000
10
-56.363999
20
2.245000
10
-56.363999
20
2.245000
10
-56.363999
20
1.913000
10
-56.363999
20
1.913000
10
-56.848003
20
1.913000
10
-56.848003
20
1.913000
10
-56.848003
20
2.245000
10
-56.848003
20
2.245000
10
-57.080000
20
2.245000
10
-57.080000
20
2.245000
42
0.414630
10
-57.328999
20
1.996000
10
-57.328999
20
1.996000
10
-57.328999
20
1.496000
10
-57.328999
20
1.496000
42
0.414927
10
-57.080000
20
1.247000
10
-57.080000
20
1.247000
10
-56.128999
20
1.247000
10
-56.128999
20
1.247000
42
0.395070
10
-55.881001
20
1.480000
10
-55.881001
20
1.480000
10
-55.881001
20
2.023000
10
-55.881001
20
2.023000
10
-55.881997
20
2.024000
0
LWPOLYLINE
5
1206
100
AcDbEntity
8
0
100
AcDbPolyline
90
26
70
0
43
0.000000
10
-65.131001
20
1.045000
42
0.380865
10
-65.378003
20
1.266000
10
-65.378003
20
1.266000
10
-65.613003
20
1.266000
10
-65.613003
20
1.266000
10
-65.613003
20
0.934000
10
-65.613003
20
0.934000
10
-66.096997
20
0.934000
10
-66.096997
20
0.934000
10
-66.096997
20
1.266000
10
-66.096997
20
1.266000
10
-66.329004
20
1.266000
10
-66.329004
20
1.266000
42
0.414620
10
-66.578003
20
1.017000
10
-66.578003
20
1.017000
10
-66.578003
20
0.517000
10
-66.578003
20
0.517000
42
0.414909
10
-66.329004
20
0.268000
10
-66.329004
20
0.268000
10
-65.378003
20
0.268000
10
-65.378003
20
0.268000
42
0.395069
10
-65.130005
20
0.501000
10
-65.130005
20
0.501000
10
-65.130005
20
1.044000
10
-65.130005
20
1.044000
10
-65.131001
20
1.045000
0
LWPOLYLINE
5
1207
100
AcDbEntity
8
0
100
AcDbPolyline
90
8
70
0
43
0.000000
10
-93.594004
20
0.715000
10
-94.393994
20
0.715000
10
-94.393994
20
0.715000
10
-94.393994
20
0.215000
10
-94.393994
20
0.215000
10
-93.594004
20
0.215000
10
-93.594004
20
0.215000
10
-93.594004
20
0.715000
0
LWPOLYLINE
5
1208
100
AcDbEntity
8
0
100
AcDbPolyline
90
8
70
0
43
0.000000
10
-95.193994
20
0.715000
10
-95.994004
20
0.715000
10
-95.994004
20
0.715000
10
-95.994004
20
0.215000
10
-95.994004
20
0.215000
10
-95.193994
20
0.215000
10
-95.193994
20
0.215000
10
-95.193994
20
0.715000
0
LWPOLYLINE
5
1209
100
AcDbEntity
8
0
100
AcDbPolyline
90
24
70
0
43
0.000000
10
-83.512998
20
0.329000
42
0.414674
10
-83.762002
20
0.578000
10
-83.762002
20
0.578000
10
-84.287002
20
0.578000
10
-84.287002
20
0.578000
42
0.413467
10
-84.536006
20
0.329000
10
-84.536006
20
0.329000
10
-84.536006
20
0.112000
10
-84.536006
20
0.112000
10
-84.195000
20
0.112000
10
-84.195000
20
0.112000
10
-84.195000
20
-0.354000
10
-84.195000
20
-0.354000
10
-84.536006
20
-0.354000
10
-84.536006
20
-0.354000
10
-84.536006
20
-0.571000
10
-84.536006
20
-0.571000
42
0.413754
10
-84.287002
20
-0.820000
10
-84.287002
20
-0.820000
10
-83.762002
20
-0.820000
10
-83.762002
20
-0.820000
42
0.414962
10
-83.512998
20
-0.571000
10
-83.512998
20
-0.571000
10
-83.512998
20
0.329000
0
LWPOLYLINE
5
1210
100
AcDbEntity
8
0
100
AcDbPolyline
90
24
70
0
43
0.000000
10
-85.337998
20
0.329000
42
0.414686
10
-85.587002
20
0.578000
10
-85.587002
20
0.578000
10
-86.112002
20
0.578000
10
-86.112002
20
0.578000
42
0.413456
10
-86.360996
20
0.329000
10
-86.360996
20
0.329000
10
-86.360996
20
-0.571000
10
-86.360996
20
-0.571000
42
0.413743
10
-86.112002
20
-0.820000
10
-86.112002
20
-0.820000
10
-85.585996
20
-0.820000
10
-85.585996
20
-0.820000
42
0.413789
10
-85.337998
20
-0.571000
10
-85.337998
20
-0.571000
10
-85.337998
20
-0.354000
10
-85.337998
20
-0.354000
10
-85.677998
20
-0.354000
10
-85.677998
20
-0.354000
10
-85.677998
20
0.112000
10
-85.677998
20
0.112000
10
-85.337998
20
0.112000
10
-85.337998
20
0.112000
10
-85.337998
20
0.329000
0
LWPOLYLINE
5
1211
100
AcDbEntity
8
0
100
AcDbPolyline
90
8
70
0
43
0.000000
10
-93.594004
20
-0.185000
10
-94.393994
20
-0.185000
10
-94.393994
20
-0.185000
10
-94.393994
20
-0.685000
10
-94.393994
20
-0.685000
10
-93.594004
20
-0.685000
10
-93.594004
20
-0.685000
10
-93.594004
20
-0.185000
0
LWPOLYLINE
5
1212
100
AcDbEntity
8
0
100
AcDbPolyline
90
8
70
0
43
0.000000
10
-95.193994
20
-0.185000
10
-95.994004
20
-0.185000
10
-95.994004
20
-0.185000
10
-95.994004
20
-0.685000
10
-95.994004
20
-0.685000
10
-95.193994
20
-0.685000
10
-95.193994
20
-0.685000
10
-95.193994
20
-0.185000
0
LWPOLYLINE
5
1213
100
AcDbEntity
8
0
100
AcDbPolyline
90
8
70
0
43
0.000000
10
-28.923000
20
0.715000
10
-29.723000
20
0.715000
10
-29.723000
20
0.715000
10
-29.723000
20
0.215000
10
-29.723000
20
0.215000
10
-28.923000
20
0.215000
10
-28.923000
20
0.215000
10
-28.923000
20
0.715000
0
LWPOLYLINE
5
1214
100
AcDbEntity
8
0
100
AcDbPolyline
90
8
70
0
43
0.000000
10
-30.523000
20
0.715000
10
-31.323000
20
0.715000
10
-31.323000
20
0.715000
10
-31.323000
20
0.215000
10
-31.323000
20
0.215000
10
-30.523000
20
0.215000
10
-30.523000
20
0.215000
10
-30.523000
20
0.715000
0
LWPOLYLINE
5
1215
100
AcDbEntity
8
0
100
AcDbPolyline
90
24
70
0
43
0.000000
10
-41.820000
20
0.039000
42
0.414677
10
-42.068999
20
0.288000
10
-42.068999
20
0.288000
10
-42.593999
20
0.288000
10
-42.593999
20
0.288000
42
0.413459
10
-42.842998
20
0.039000
10
-42.842998
20
0.039000
10
-42.842998
20
-0.178000
10
-42.842998
20
-0.178000
10
-42.502002
20
-0.178000
10
-42.502002
20
-0.178000
10
-42.502002
20
-0.644000
10
-42.502002
20
-0.644000
10
-42.842998
20
-0.644000
10
-42.842998
20
-0.644000
10
-42.842998
20
-0.861000
10
-42.842998
20
-0.861000
42
0.413752
10
-42.593999
20
-1.110000
10
-42.593999
20
-1.110000
10
-42.068999
20
-1.110000
10
-42.068999
20
-1.110000
42
0.414971
10
-41.820000
20
-0.861000
10
-41.820000
20
-0.861000
10
-41.820000
20
0.039000
0
LWPOLYLINE
5
1216
100
AcDbEntity
8
0
100
AcDbPolyline
90
24
70
0
43
0.000000
10
-43.645000
20
0.039000
42
0.414671
10
-43.893999
20
0.288000
10
-43.893999
20
0.288000
10
-44.418999
20
0.288000
10
-44.418999
20
0.288000
42
0.413464
10
-44.667998
20
0.039000
10
-44.667998
20
0.039000
10
-44.667998
20
-0.861000
10
-44.667998
20
-0.861000
42
0.413757
10
-44.418999
20
-1.110000
10
-44.418999
20
-1.110000
10
-43.892998
20
-1.110000
10
-43.892998
20
-1.110000
42
0.413786
10
-43.645000
20
-0.861000
10
-43.645000
20
-0.861000
10
-43.645000
20
-0.644000
10
-43.645000
20
-0.644000
10
-43.985000
20
-0.644000
10
-43.985000
20
-0.644000
10
-43.985000
20
-0.178000
10
-43.985000
20
-0.178000
10
-43.645000
20
-0.178000
10
-43.645000
20
-0.178000
10
-43.645000
20
0.039000
0
LWPOLYLINE
5
1217
100
AcDbEntity
8
0
100
AcDbPolyline
90
8
70
0
43
0.000000
10
-28.923000
20
-0.185000
10
-29.723000
20
-0.185000
10
-29.723000
20
-0.185000
10
-29.723000
20
-0.685000
10
-29.723000
20
-0.685000
10
-28.923000
20
-0.685000
10
-28.923000
20
-0.685000
10
-28.923000
20
-0.185000
0
LWPOLYLINE
5
1218
100
AcDbEntity
8
0
100
AcDbPolyline
90
8
70
0
43
0.000000
10
-30.523000
20
-0.185000
10
-31.323000
20
-0.185000
10
-31.323000
20
-0.185000
10
-31.323000
20
-0.685000
10
-31.323000
20
-0.685000
10
-30.523000
20
-0.685000
10
-30.523000
20
-0.685000
10
-30.523000
20
-0.185000
0
LWPOLYLINE
5
1219
100
AcDbEntity
8
0
100
AcDbPolyline
90
8
70
0
43
0.000000
10
-60.547998
20
-1.241000
42
0.999997
10
-60.738003
20
-1.241000
10
-60.738003
20
-1.241000
10
-60.738003
20
-1.901000
10
-60.738003
20
-1.901000
42
0.999986
10
-60.547998
20
-1.901000
10
-60.547998
20
-1.901000
10
-60.547998
20
-1.241000
0
LWPOLYLINE
5
1220
100
AcDbEntity
8
0
100
AcDbPolyline
90
8
70
0
43
0.000000
10
-60.947998
20
-1.241000
42
0.999997
10
-61.137998
20
-1.241000
10
-61.137998
20
-1.241000
10
-61.137998
20
-1.901000
10
-61.137998
20
-1.901000
42
0.999986
10
-60.947998
20
-1.901000
10
-60.947998
20
-1.901000
10
-60.947998
20
-1.241000
0
LWPOLYLINE
5
1221
100
AcDbEntity
8
0
100
AcDbPolyline
90
8
70
0
43
0.000000
10
-61.348999
20
-1.241000
42
0.999997
10
-61.538999
20
-1.241000
10
-61.538999
20
-1.241000
10
-61.538999
20
-1.901000
10
-61.538999
20
-1.901000
42
0.999986
10
-61.348999
20
-1.901000
10
-61.348999
20
-1.901000
10
-61.348999
20
-1.241000
0
LWPOLYLINE
5
1222
100
AcDbEntity
8
0
100
AcDbPolyline
90
8
70
0
43
0.000000
10
-61.748999
20
-1.241000
42
0.999997
10
-61.938999
20
-1.241000
10
-61.938999
20
-1.241000
10
-61.938999
20
-1.901000
10
-61.938999
20
-1.901000
42
0.999986
10
-61.748999
20
-1.901000
10
-61.748999
20
-1.901000
10
-61.748999
20
-1.241000
0
LWPOLYLINE
5
1223
100
AcDbEntity
8
0
100
AcDbPolyline
90
8
70
0
43
0.000000
10
-62.148999
20
-1.241000
42
0.999997
10
-62.338999
20
-1.241000
10
-62.338999
20
-1.241000
10
-62.338999
20
-1.901000
10
-62.338999
20
-1.901000
42
0.999986
10
-62.148999
20
-1.901000
10
-62.148999
20
-1.901000
10
-62.148999
20
-1.241000
0
LWPOLYLINE
5
1224
100
AcDbEntity
8
0
100
AcDbPolyline
90
8
70
0
43
0.000000
10
-62.549004
20
-1.241000
42
0.999997
10
-62.738999
20
-1.241000
10
-62.738999
20
-1.241000
10
-62.738999
20
-1.901000
10
-62.738999
20
-1.901000
42
0.999986
10
-62.549004
20
-1.901000
10
-62.549004
20
-1.901000
10
-62.549004
20
-1.241000
0
LWPOLYLINE
5
1225
100
AcDbEntity
8
0
100
AcDbPolyline
90
8
70
0
43
0.000000
10
-62.948003
20
-1.241000
42
0.999997
10
-63.138003
20
-1.241000
10
-63.138003
20
-1.241000
10
-63.138003
20
-1.901000
10
-63.138003
20
-1.901000
42
0.999986
10
-62.948003
20
-1.901000
10
-62.948003
20
-1.901000
10
-62.948003
20
-1.241000
0
LWPOLYLINE
5
1226
100
AcDbEntity
8
0
100
AcDbPolyline
90
8
70
0
43
0.000000
10
-63.348999
20
-1.241000
42
0.999997
10
-63.538999
20
-1.241000
10
-63.538999
20
-1.241000
10
-63.538999
20
-1.901000
10
-63.538999
20
-1.901000
42
0.999986
10
-63.348999
20
-1.901000
10
-63.348999
20
-1.901000
10
-63.348999
20
-1.241000
0
LWPOLYLINE
5
1227
100
AcDbEntity
8
0
100
AcDbPolyline
90
24
70
0
43
0.000000
10
-83.512998
20
-1.921000
42
0.414673
10
-83.762002
20
-1.672000
10
-83.762002
20
-1.672000
10
-84.287002
20
-1.672000
10
-84.287002
20
-1.672000
42
0.413466
10
-84.536006
20
-1.921000
10
-84.536006
20
-1.921000
10
-84.536006
20
-2.138000
10
-84.536006
20
-2.138000
10
-84.195000
20
-2.138000
10
-84.195000
20
-2.138000
10
-84.195000
20
-2.604000
10
-84.195000
20
-2.604000
10
-84.536006
20
-2.604000
10
-84.536006
20
-2.604000
10
-84.536006
20
-2.821000
10
-84.536006
20
-2.821000
42
0.413755
10
-84.287002
20
-3.070000
10
-84.287002
20
-3.070000
10
-83.762002
20
-3.070000
10
-83.762002
20
-3.070000
42
0.414963
10
-83.512998
20
-2.821000
10
-83.512998
20
-2.821000
10
-83.512998
20
-1.921000
0
LWPOLYLINE
5
1228
100
AcDbEntity
8
0
100
AcDbPolyline
90
24
70
0
43
0.000000
10
-85.337998
20
-1.921000
42
0.414685
10
-85.587002
20
-1.672000
10
-85.587002
20
-1.672000
10
-86.112002
20
-1.672000
10
-86.112002
20
-1.672000
42
0.413451
10
-86.360996
20
-1.921000
10
-86.360996
20
-1.921000
10
-86.360996
20
-2.821000
10
-86.360996
20
-2.821000
42
0.413739
10
-86.112002
20
-3.070000
10
-86.112002
20
-3.070000
10
-85.585996
20
-3.070000
10
-85.585996
20
-3.070000
42
0.413790
10
-85.337998
20
-2.821000
10
-85.337998
20
-2.821000
10
-85.337998
20
-2.604000
10
-85.337998
20
-2.604000
10
-85.677998
20
-2.604000
10
-85.677998
20
-2.604000
10
-85.677998
20
-2.138000
10
-85.677998
20
-2.138000
10
-85.337998
20
-2.138000
10
-85.337998
20
-2.138000
10
-85.337998
20
-1.921000
0
LWPOLYLINE
5
1229
100
AcDbEntity
8
0
100
AcDbPolyline
90
24
70
0
43
0.000000
10
-41.820000
20
-2.211000
42
0.414680
10
-42.068999
20
-1.962000
10
-42.068999
20
-1.962000
10
-42.593999
20
-1.962000
10
-42.593999
20
-1.962000
42
0.413462
10
-42.842998
20
-2.211000
10
-42.842998
20
-2.211000
10
-42.842998
20
-2.428000
10
-42.842998
20
-2.428000
10
-42.502002
20
-2.428000
10
-42.502002
20
-2.428000
10
-42.502002
20
-2.894000
10
-42.502002
20
-2.894000
10
-42.842998
20
-2.894000
10
-42.842998
20
-2.894000
10
-42.842998
20
-3.111000
10
-42.842998
20
-3.111000
42
0.413748
10
-42.593999
20
-3.360000
10
-42.593999
20
-3.360000
10
-42.068999
20
-3.360000
10
-42.068999
20
-3.360000
42
0.414968
10
-41.820000
20
-3.111000
10
-41.820000
20
-3.111000
10
-41.820000
20
-2.211000
0
LWPOLYLINE
5
1230
100
AcDbEntity
8
0
100
AcDbPolyline
90
24
70
0
43
0.000000
10
-43.645000
20
-2.211000
42
0.414675
10
-43.893999
20
-1.962000
10
-43.893999
20
-1.962000
10
-44.418999
20
-1.962000
10
-44.418999
20
-1.962000
42
0.413468
10
-44.667998
20
-2.211000
10
-44.667998
20
-2.211000
10
-44.667998
20
-3.111000
10
-44.667998
20
-3.111000
42
0.413754
10
-44.418999
20
-3.360000
10
-44.418999
20
-3.360000
10
-43.892998
20
-3.360000
10
-43.892998
20
-3.360000
42
0.413783
10
-43.645000
20
-3.111000
10
-43.645000
20
-3.111000
10
-43.645000
20
-2.894000
10
-43.645000
20
-2.894000
10
-43.985000
20
-2.894000
10
-43.985000
20
-2.894000
10
-43.985000
20
-2.428000
10
-43.985000
20
-2.428000
10
-43.645000
20
-2.428000
10
-43.645000
20
-2.428000
10
-43.645000
20
-2.211000
0
LWPOLYLINE
5
1231
100
AcDbEntity
8
0
100
AcDbPolyline
90
8
70
0
43
0.000000
10
-59.663999
20
-2.316000
42
1.000000
10
-59.663999
20
-2.126000
10
-59.663999
20
-2.126000
10
-60.323999
20
-2.126000
10
-60.323999
20
-2.126000
42
1.000051
10
-60.323999
20
-2.316000
10
-60.323999
20
-2.316000
10
-59.663999
20
-2.316000
0
LWPOLYLINE
5
1232
100
AcDbEntity
8
0
100
AcDbPolyline
90
8
70
0
43
0.000000
10
-63.763999
20
-2.316000
42
1.000103
10
-63.763999
20
-2.126000
10
-63.763999
20
-2.126000
10
-64.423999
20
-2.126000
10
-64.423999
20
-2.126000
42
0.999949
10
-64.423999
20
-2.316000
10
-64.423999
20
-2.316000
10
-63.763999
20
-2.316000
0
LWPOLYLINE
5
1233
100
AcDbEntity
8
0
100
AcDbPolyline
90
8
70
0
43
0.000000
10
-60.851001
20
-2.429000
10
-61.893003
20
-2.429000
10
-61.893003
20
-2.429000
10
-61.893003
20
-3.471000
10
-61.893003
20
-3.471000
10
-60.851001
20
-3.471000
10
-60.851001
20
-3.471000
10
-60.851001
20
-2.429000
0
LWPOLYLINE
5
1234
100
AcDbEntity
8
0
100
AcDbPolyline
90
8
70
0
43
0.000000
10
-62.192998
20
-2.429000
10
-63.235000
20
-2.429000
10
-63.235000
20
-2.429000
10
-63.235000
20
-3.471000
10
-63.235000
20
-3.471000
10
-62.192998
20
-3.471000
10
-62.192998
20
-3.471000
10
-62.192998
20
-2.429000
0
LWPOLYLINE
5
1235
100
AcDbEntity
8
0
100
AcDbPolyline
90
8
70
0
43
0.000000
10
-63.763999
20
-2.716000
42
1.000103
10
-63.763999
20
-2.526000
10
-63.763999
20
-2.526000
10
-64.423999
20
-2.526000
10
-64.423999
20
-2.526000
42
0.999949
10
-64.423999
20
-2.716000
10
-64.423999
20
-2.716000
10
-63.763999
20
-2.716000
0
LWPOLYLINE
5
1236
100
AcDbEntity
8
0
100
AcDbPolyline
90
8
70
0
43
0.000000
10
-63.763999
20
-3.116000
42
1.000103
10
-63.763999
20
-2.926000
10
-63.763999
20
-2.926000
10
-64.423999
20
-2.926000
10
-64.423999
20
-2.926000
42
0.999949
10
-64.423999
20
-3.116000
10
-64.423999
20
-3.116000
10
-63.763999
20
-3.116000
0
LWPOLYLINE
5
1237
100
AcDbEntity
8
0
100
AcDbPolyline
90
8
70
0
43
0.000000
10
-63.763999
20
-3.516000
42
1.000103
10
-63.763999
20
-3.326000
10
-63.763999
20
-3.326000
10
-64.423999
20
-3.326000
10
-64.423999
20
-3.326000
42
0.999949
10
-64.423999
20
-3.516000
10
-64.423999
20
-3.516000
10
-63.763999
20
-3.516000
0
LWPOLYLINE
5
1238
100
AcDbEntity
8
0
100
AcDbPolyline
90
8
70
0
43
0.000000
10
-59.663999
20
-2.716000
42
1.000000
10
-59.663999
20
-2.526000
10
-59.663999
20
-2.526000
10
-60.323999
20
-2.526000
10
-60.323999
20
-2.526000
42
1.000051
10
-60.323999
20
-2.716000
10
-60.323999
20
-2.716000
10
-59.663999
20
-2.716000
0
LWPOLYLINE
5
1239
100
AcDbEntity
8
0
100
AcDbPolyline
90
8
70
0
43
0.000000
10
-59.663999
20
-3.116000
42
1.000000
10
-59.663999
20
-2.926000
10
-59.663999
20
-2.926000
10
-60.323999
20
-2.926000
10
-60.323999
20
-2.926000
42
1.000051
10
-60.323999
20
-3.116000
10
-60.323999
20
-3.116000
10
-59.663999
20
-3.116000
0
LWPOLYLINE
5
1240
100
AcDbEntity
8
0
100
AcDbPolyline
90
8
70
0
43
0.000000
10
-59.663999
20
-3.516000
42
1.000000
10
-59.663999
20
-3.326000
10
-59.663999
20
-3.326000
10
-60.323999
20
-3.326000
10
-60.323999
20
-3.326000
42
1.000051
10
-60.323999
20
-3.516000
10
-60.323999
20
-3.516000
10
-59.663999
20
-3.516000
0
LWPOLYLINE
5
1241
100
AcDbEntity
8
0
100
AcDbPolyline
90
8
70
0
43
0.000000
10
-59.663999
20
-3.916000
42
1.000000
10
-59.663999
20
-3.726000
10
-59.663999
20
-3.726000
10
-60.323999
20
-3.726000
10
-60.323999
20
-3.726000
42
1.000051
10
-60.323999
20
-3.916000
10
-60.323999
20
-3.916000
10
-59.663999
20
-3.916000
0
LWPOLYLINE
5
1242
100
AcDbEntity
8
0
100
AcDbPolyline
90
8
70
0
43
0.000000
10
-63.763999
20
-3.916000
42
1.000103
10
-63.763999
20
-3.726000
10
-63.763999
20
-3.726000
10
-64.423999
20
-3.726000
10
-64.423999
20
-3.726000
42
0.999949
10
-64.423999
20
-3.916000
10
-64.423999
20
-3.916000
10
-63.763999
20
-3.916000
0
LWPOLYLINE
5
1243
100
AcDbEntity
8
0
100
AcDbPolyline
90
8
70
0
43
0.000000
10
-60.851001
20
-3.771000
10
-61.893003
20
-3.771000
10
-61.893003
20
-3.771000
10
-61.893003
20
-4.813000
10
-61.893003
20
-4.813000
10
-60.851001
20
-4.813000
10
-60.851001
20
-4.813000
10
-60.851001
20
-3.771000
0
LWPOLYLINE
5
1244
100
AcDbEntity
8
0
100
AcDbPolyline
90
8
70
0
43
0.000000
10
-62.192998
20
-3.771000
10
-63.235000
20
-3.771000
10
-63.235000
20
-3.771000
10
-63.235000
20
-4.813000
10
-63.235000
20
-4.813000
10
-62.192998
20
-4.813000
10
-62.192998
20
-4.813000
10
-62.192998
20
-3.771000
0
LWPOLYLINE
5
1245
100
AcDbEntity
8
0
100
AcDbPolyline
90
8
70
0
43
0.000000
10
-63.763999
20
-4.316000
42
1.000103
10
-63.763999
20
-4.126000
10
-63.763999
20
-4.126000
10
-64.423999
20
-4.126000
10
-64.423999
20
-4.126000
42
0.999949
10
-64.423999
20
-4.316000
10
-64.423999
20
-4.316000
10
-63.763999
20
-4.316000
0
LWPOLYLINE
5
1246
100
AcDbEntity
8
0
100
AcDbPolyline
90
8
70
0
43
0.000000
10
-63.763999
20
-4.716000
42
1.000103
10
-63.763999
20
-4.526000
10
-63.763999
20
-4.526000
10
-64.423999
20
-4.526000
10
-64.423999
20
-4.526000
42
0.999949
10
-64.423999
20
-4.716000
10
-64.423999
20
-4.716000
10
-63.763999
20
-4.716000
0
LWPOLYLINE
5
1247
100
AcDbEntity
8
0
100
AcDbPolyline
90
8
70
0
43
0.000000
10
-59.663999
20
-4.316000
42
1.000000
10
-59.663999
20
-4.126000
10
-59.663999
20
-4.126000
10
-60.323999
20
-4.126000
10
-60.323999
20
-4.126000
42
1.000051
10
-60.323999
20
-4.316000
10
-60.323999
20
-4.316000
10
-59.663999
20
-4.316000
0
LWPOLYLINE
5
1248
100
AcDbEntity
8
0
100
AcDbPolyline
90
8
70
0
43
0.000000
10
-59.663999
20
-4.716000
42
1.000000
10
-59.663999
20
-4.526000
10
-59.663999
20
-4.526000
10
-60.323999
20
-4.526000
10
-60.323999
20
-4.526000
42
1.000051
10
-60.323999
20
-4.716000
10
-60.323999
20
-4.716000
10
-59.663999
20
-4.716000
0
LWPOLYLINE
5
1249
100
AcDbEntity
8
0
100
AcDbPolyline
90
8
70
0
43
0.000000
10
-59.663999
20
-5.116000
42
1.000000
10
-59.663999
20
-4.926000
10
-59.663999
20
-4.926000
10
-60.323999
20
-4.926000
10
-60.323999
20
-4.926000
42
1.000051
10
-60.323999
20
-5.116000
10
-60.323999
20
-5.116000
10
-59.663999
20
-5.116000
0
LWPOLYLINE
5
1250
100
AcDbEntity
8
0
100
AcDbPolyline
90
8
70
0
43
0.000000
10
-63.763999
20
-5.116000
42
1.000103
10
-63.763999
20
-4.926000
10
-63.763999
20
-4.926000
10
-64.423999
20
-4.926000
10
-64.423999
20
-4.926000
42
0.999949
10
-64.423999
20
-5.116000
10
-64.423999
20
-5.116000
10
-63.763999
20
-5.116000
0
LWPOLYLINE
5
1251
100
AcDbEntity
8
0
100
AcDbPolyline
90
8
70
0
43
0.000000
10
-60.547998
20
-5.341000
42
1.000006
10
-60.738003
20
-5.341000
10
-60.738003
20
-5.341000
10
-60.738003
20
-6.001000
10
-60.738003
20
-6.001000
42
1.000013
10
-60.547998
20
-6.001000
10
-60.547998
20
-6.001000
10
-60.547998
20
-5.341000
0
LWPOLYLINE
5
1252
100
AcDbEntity
8
0
100
AcDbPolyline
90
8
70
0
43
0.000000
10
-60.947998
20
-5.341000
42
1.000006
10
-61.137998
20
-5.341000
10
-61.137998
20
-5.341000
10
-61.137998
20
-6.001000
10
-61.137998
20
-6.001000
42
1.000013
10
-60.947998
20
-6.001000
10
-60.947998
20
-6.001000
10
-60.947998
20
-5.341000
0
LWPOLYLINE
5
1253
100
AcDbEntity
8
0
100
AcDbPolyline
90
8
70
0
43
0.000000
10
-61.348999
20
-5.341000
42
1.000006
10
-61.538999
20
-5.341000
10
-61.538999
20
-5.341000
10
-61.538999
20
-6.001000
10
-61.538999
20
-6.001000
42
1.000013
10
-61.348999
20
-6.001000
10
-61.348999
20
-6.001000
10
-61.348999
20
-5.341000
0
LWPOLYLINE
5
1254
100
AcDbEntity
8
0
100
AcDbPolyline
90
8
70
0
43
0.000000
10
-61.748999
20
-5.341000
42
1.000006
10
-61.938999
20
-5.341000
10
-61.938999
20
-5.341000
10
-61.938999
20
-6.001000
10
-61.938999
20
-6.001000
42
1.000013
10
-61.748999
20
-6.001000
10
-61.748999
20
-6.001000
10
-61.748999
20
-5.341000
0
LWPOLYLINE
5
1255
100
AcDbEntity
8
0
100
AcDbPolyline
90
8
70
0
43
0.000000
10
-62.148999
20
-5.341000
42
1.000006
10
-62.338999
20
-5.341000
10
-62.338999
20
-5.341000
10
-62.338999
20
-6.001000
10
-62.338999
20
-6.001000
42
1.000013
10
-62.148999
20
-6.001000
10
-62.148999
20
-6.001000
10
-62.148999
20
-5.341000
0
LWPOLYLINE
5
1256
100
AcDbEntity
8
0
100
AcDbPolyline
90
8
70
0
43
0.000000
10
-62.549004
20
-5.341000
42
1.000006
10
-62.738999
20
-5.341000
10
-62.738999
20
-5.341000
10
-62.738999
20
-6.001000
10
-62.738999
20
-6.001000
42
1.000013
10
-62.549004
20
-6.001000
10
-62.549004
20
-6.001000
10
-62.549004
20
-5.341000
0
LWPOLYLINE
5
1257
100
AcDbEntity
8
0
100
AcDbPolyline
90
8
70
0
43
0.000000
10
-62.948003
20
-5.341000
42
1.000006
10
-63.138003
20
-5.341000
10
-63.138003
20
-5.341000
10
-63.138003
20
-6.001000
10
-63.138003
20
-6.001000
42
1.000013
10
-62.948003
20
-6.001000
10
-62.948003
20
-6.001000
10
-62.948003
20
-5.341000
0
LWPOLYLINE
5
1258
100
AcDbEntity
8
0
100
AcDbPolyline
90
8
70
0
43
0.000000
10
-63.348999
20
-5.341000
42
1.000006
10
-63.538999
20
-5.341000
10
-63.538999
20
-5.341000
10
-63.538999
20
-6.001000
10
-63.538999
20
-6.001000
42
1.000013
10
-63.348999
20
-6.001000
10
-63.348999
20
-6.001000
10
-63.348999
20
-5.341000
0
LWPOLYLINE
5
1259
100
AcDbEntity
8
0
100
AcDbPolyline
90
24
70
0
43
0.000000
10
-74.562998
20
-10.171000
42
0.414682
10
-74.812002
20
-9.922000
10
-74.812002
20
-9.922000
10
-75.337002
20
-9.922000
10
-75.337002
20
-9.922000
42
0.413447
10
-75.586001
20
-10.171000
10
-75.586001
20
-10.171000
10
-75.586001
20
-10.388000
10
-75.586001
20
-10.388000
10
-75.245000
20
-10.388000
10
-75.245000
20
-10.388000
10
-75.245000
20
-10.854000
10
-75.245000
20
-10.854000
10
-75.586001
20
-10.854000
10
-75.586001
20
-10.854000
10
-75.586001
20
-11.071000
10
-75.586001
20
-11.071000
42
0.413739
10
-75.337002
20
-11.320000
10
-75.337002
20
-11.320000
10
-74.812002
20
-11.320000
10
-74.812002
20
-11.320000
42
0.414977
10
-74.562998
20
-11.071000
10
-74.562998
20
-11.071000
10
-74.562998
20
-10.171000
0
LWPOLYLINE
5
1260
100
AcDbEntity
8
0
100
AcDbPolyline
90
24
70
0
43
0.000000
10
-76.388003
20
-10.171000
42
0.414676
10
-76.637002
20
-9.922000
10
-76.637002
20
-9.922000
10
-77.161997
20
-9.922000
10
-77.161997
20
-9.922000
42
0.413458
10
-77.411001
20
-10.171000
10
-77.411001
20
-10.171000
10
-77.411001
20
-11.071000
10
-77.411001
20
-11.071000
42
0.413750
10
-77.161997
20
-11.320000
10
-77.161997
20
-11.320000
10
-76.636001
20
-11.320000
10
-76.636001
20
-11.320000
42
0.413792
10
-76.388003
20
-11.071000
10
-76.388003
20
-11.071000
10
-76.388003
20
-10.854000
10
-76.388003
20
-10.854000
10
-76.728003
20
-10.854000
10
-76.728003
20
-10.854000
10
-76.728003
20
-10.388000
10
-76.728003
20
-10.388000
10
-76.388003
20
-10.388000
10
-76.388003
20
-10.388000
10
-76.388003
20
-10.171000
0
LWPOLYLINE
5
1261
100
AcDbEntity
8
0
100
AcDbPolyline
90
24
70
0
43
0.000000
10
-41.512998
20
-12.065000
42
0.414486
10
-41.865000
20
-12.065000
10
-41.865000
20
-12.065000
10
-42.501001
20
-12.701000
10
-42.501001
20
-12.701000
42
0.414676
10
-42.501001
20
-13.053000
10
-42.501001
20
-13.053000
10
-42.128999
20
-13.425000
10
-42.128999
20
-13.425000
42
0.413662
10
-41.777998
20
-13.425000
10
-41.777998
20
-13.425000
10
-41.623999
20
-13.271000
10
-41.623999
20
-13.271000
10
-41.866001
20
-13.029000
10
-41.866001
20
-13.029000
10
-41.536001
20
-12.698999
10
-41.536001
20
-12.698999
10
-41.293999
20
-12.941000
10
-41.293999
20
-12.941000
10
-41.140000
20
-12.787001
10
-41.140000
20
-12.787001
42
0.411819
10
-41.141001
20
-12.437000
10
-41.141001
20
-12.437000
10
-41.512998
20
-12.065000
0
LWPOLYLINE
5
1262
100
AcDbEntity
8
0
100
AcDbPolyline
90
24
70
0
43
0.000000
10
-74.562998
20
-12.421000
42
0.414685
10
-74.812002
20
-12.172000
10
-74.812002
20
-12.172000
10
-75.337002
20
-12.172000
10
-75.337002
20
-12.172000
42
0.413451
10
-75.586001
20
-12.421000
10
-75.586001
20
-12.421000
10
-75.586001
20
-12.637999
10
-75.586001
20
-12.637999
10
-75.245000
20
-12.637999
10
-75.245000
20
-12.637999
10
-75.245000
20
-13.104000
10
-75.245000
20
-13.104000
10
-75.586001
20
-13.104000
10
-75.586001
20
-13.104000
10
-75.586001
20
-13.321000
10
-75.586001
20
-13.321000
42
0.413737
10
-75.337002
20
-13.570000
10
-75.337002
20
-13.570000
10
-74.812002
20
-13.570000
10
-74.812002
20
-13.570000
42
0.414974
10
-74.562998
20
-13.321000
10
-74.562998
20
-13.321000
10
-74.562998
20
-12.421000
0
LWPOLYLINE
5
1263
100
AcDbEntity
8
0
100
AcDbPolyline
90
24
70
0
43
0.000000
10
-76.388003
20
-12.421000
42
0.414679
10
-76.637002
20
-12.172000
10
-76.637002
20
-12.172000
10
-77.161997
20
-12.172000
10
-77.161997
20
-12.172000
42
0.413462
10
-77.411001
20
-12.421000
10
-77.411001
20
-12.421000
10
-77.411001
20
-13.321000
10
-77.411001
20
-13.321000
42
0.413749
10
-77.161997
20
-13.570000
10
-77.161997
20
-13.570000
10
-76.636001
20
-13.570000
10
-76.636001
20
-13.570000
42
0.413789
10
-76.388003
20
-13.321000
10
-76.388003
20
-13.321000
10
-76.388003
20
-13.104000
10
-76.388003
20
-13.104000
10
-76.728003
20
-13.104000
10
-76.728003
20
-13.104000
10
-76.728003
20
-12.637999
10
-76.728003
20
-12.637999
10
-76.388003
20
-12.637999
10
-76.388003
20
-12.637999
10
-76.388003
20
-12.421000
0
LWPOLYLINE
5
1264
100
AcDbEntity
8
0
100
AcDbPolyline
90
28
70
0
43
0.000000
10
-40.222998
20
-13.356000
42
0.414490
10
-40.575002
20
-13.356000
10
-40.575002
20
-13.356000
10
-40.727000
20
-13.508000
10
-40.727000
20
-13.508000
10
-40.727000
20
-13.509000
10
-40.727000
20
-13.509000
10
-40.487000
20
-13.749000
10
-40.487000
20
-13.749000
10
-40.817000
20
-14.079000
10
-40.817000
20
-14.079000
10
-41.056997
20
-13.839000
10
-41.056997
20
-13.839000
10
-41.057998
20
-13.839000
10
-41.057998
20
-13.839000
10
-41.211001
20
-13.992001
10
-41.211001
20
-13.992001
42
0.414675
10
-41.211001
20
-14.344000
10
-41.211001
20
-14.344000
10
-40.839001
20
-14.716000
10
-40.839001
20
-14.716000
42
0.413660
10
-40.488000
20
-14.716000
10
-40.488000
20
-14.716000
10
-39.850999
20
-14.079000
10
-39.850999
20
-14.079000
42
0.411810
10
-39.850000
20
-13.728999
10
-39.850000
20
-13.728999
10
-40.222998
20
-13.356000
0
LWPOLYLINE
5
1265
100
AcDbEntity
8
0
100
AcDbPolyline
90
24
70
0
43
0.000000
10
-43.113003
20
-13.665000
42
0.414476
10
-43.465000
20
-13.665000
10
-43.465000
20
-13.665000
10
-44.101001
20
-14.301000
10
-44.101001
20
-14.301000
42
0.414660
10
-44.101001
20
-14.653000
10
-44.101001
20
-14.653000
10
-43.728999
20
-15.025000
10
-43.728999
20
-15.025000
42
0.413662
10
-43.377998
20
-15.025000
10
-43.377998
20
-15.025000
10
-43.223999
20
-14.871000
10
-43.223999
20
-14.871000
10
-43.466001
20
-14.629000
10
-43.466001
20
-14.629000
10
-43.136001
20
-14.299000
10
-43.136001
20
-14.299000
10
-42.893999
20
-14.541000
10
-42.893999
20
-14.541000
10
-42.740000
20
-14.387001
10
-42.740000
20
-14.387001
42
0.411827
10
-42.741001
20
-14.037000
10
-42.741001
20
-14.037000
10
-43.113003
20
-13.665000
0
LWPOLYLINE
5
1266
100
AcDbEntity
8
0
100
AcDbPolyline
90
24
70
0
43
0.000000
10
-74.562998
20
-14.671000
42
0.414681
10
-74.812002
20
-14.422001
10
-74.812002
20
-14.422001
10
-75.337002
20
-14.422001
10
-75.337002
20
-14.422001
42
0.413449
10
-75.586001
20
-14.671000
10
-75.586001
20
-14.671000
10
-75.586001
20
-14.887999
10
-75.586001
20
-14.887999
10
-75.245000
20
-14.887999
10
-75.245000
20
-14.887999
10
-75.245000
20
-15.354000
10
-75.245000
20
-15.354000
10
-75.586001
20
-15.354000
10
-75.586001
20
-15.354000
10
-75.586001
20
-15.571000
10
-75.586001
20
-15.571000
42
0.413733
10
-75.337002
20
-15.820000
10
-75.337002
20
-15.820000
10
-74.812002
20
-15.820000
10
-74.812002
20
-15.820000
42
0.414974
10
-74.562998
20
-15.571000
10
-74.562998
20
-15.571000
10
-74.562998
20
-14.671000
0
LWPOLYLINE
5
1267
100
AcDbEntity
8
0
100
AcDbPolyline
90
24
70
0
43
0.000000
10
-76.388003
20
-14.671000
42
0.414684
10
-76.637002
20
-14.422001
10
-76.637002
20
-14.422001
10
-77.161997
20
-14.422001
10
-77.161997
20
-14.422001
42
0.413457
10
-77.411001
20
-14.671000
10
-77.411001
20
-14.671000
10
-77.411001
20
-15.571000
10
-77.411001
20
-15.571000
42
0.413744
10
-77.161997
20
-15.820000
10
-77.161997
20
-15.820000
10
-76.636001
20
-15.820000
10
-76.636001
20
-15.820000
42
0.413789
10
-76.388003
20
-15.571000
10
-76.388003
20
-15.571000
10
-76.388003
20
-15.354000
10
-76.388003
20
-15.354000
10
-76.728003
20
-15.354000
10
-76.728003
20
-15.354000
10
-76.728003
20
-14.887999
10
-76.728003
20
-14.887999
10
-76.388003
20
-14.887999
10
-76.388003
20
-14.887999
10
-76.388003
20
-14.671000
0
LWPOLYLINE
5
1268
100
AcDbEntity
8
0
100
AcDbPolyline
90
28
70
0
43
0.000000
10
-41.822998
20
-14.956000
42
0.414480
10
-42.175000
20
-14.956000
10
-42.175000
20
-14.956000
10
-42.327002
20
-15.107999
10
-42.327002
20
-15.107999
10
-42.327002
20
-15.109000
10
-42.327002
20
-15.109000
10
-42.087002
20
-15.349000
10
-42.087002
20
-15.349000
10
-42.417002
20
-15.679000
10
-42.417002
20
-15.679000
10
-42.656997
20
-15.439000
10
-42.656997
20
-15.439000
10
-42.658003
20
-15.439000
10
-42.658003
20
-15.439000
10
-42.811001
20
-15.592000
10
-42.811001
20
-15.592000
42
0.414668
10
-42.811001
20
-15.944000
10
-42.811001
20
-15.944000
10
-42.438999
20
-16.316001
10
-42.438999
20
-16.316001
42
0.413660
10
-42.087998
20
-16.316001
10
-42.087998
20
-16.316001
10
-41.451001
20
-15.679000
10
-41.451001
20
-15.679000
42
0.411828
10
-41.450000
20
-15.328999
10
-41.450000
20
-15.328999
10
-41.822998
20
-14.956000
0
LWPOLYLINE
5
1269
100
AcDbEntity
8
0
100
AcDbPolyline
90
24
70
0
43
0.000000
10
-44.713003
20
-15.265000
42
0.414480
10
-45.065000
20
-15.265000
10
-45.065000
20
-15.265000
10
-45.701001
20
-15.901000
10
-45.701001
20
-15.901000
42
0.414676
10
-45.701001
20
-16.253000
10
-45.701001
20
-16.253000
10
-45.328999
20
-16.625000
10
-45.328999
20
-16.625000
42
0.413664
10
-44.977998
20
-16.625000
10
-44.977998
20
-16.625000
10
-44.823999
20
-16.471001
10
-44.823999
20
-16.471001
10
-45.066001
20
-16.229000
10
-45.066001
20
-16.229000
10
-44.736001
20
-15.899000
10
-44.736001
20
-15.899000
10
-44.493999
20
-16.141000
10
-44.493999
20
-16.141000
10
-44.340000
20
-15.987000
10
-44.340000
20
-15.987000
42
0.411794
10
-44.341001
20
-15.637000
10
-44.341001
20
-15.637000
10
-44.713003
20
-15.265000
0
LWPOLYLINE
5
1270
100
AcDbEntity
8
0
100
AcDbPolyline
90
28
70
0
43
0.000000
10
-43.423003
20
-16.556000
42
0.414474
10
-43.775000
20
-16.556000
10
-43.775000
20
-16.556000
10
-43.926997
20
-16.707999
10
-43.926997
20
-16.707999
10
-43.926997
20
-16.709000
10
-43.926997
20
-16.709000
10
-43.687002
20
-16.949000
10
-43.687002
20
-16.949000
10
-44.016997
20
-17.278999
10
-44.016997
20
-17.278999
10
-44.257002
20
-17.038999
10
-44.257002
20
-17.038999
10
-44.257998
20
-17.038999
10
-44.257998
20
-17.038999
10
-44.411001
20
-17.192001
10
-44.411001
20
-17.192001
42
0.414674
10
-44.411001
20
-17.543999
10
-44.411001
20
-17.543999
10
-44.038999
20
-17.916000
10
-44.038999
20
-17.916000
42
0.413670
10
-43.687998
20
-17.916000
10
-43.687998
20
-17.916000
10
-43.051001
20
-17.278999
10
-43.051001
20
-17.278999
42
0.411794
10
-43.050000
20
-16.929000
10
-43.050000
20
-16.929000
10
-43.423003
20
-16.556000
0
LWPOLYLINE
5
1271
100
AcDbEntity
8
0
100
AcDbPolyline
90
24
70
0
43
0.000000
10
-59.125000
20
-17.782001
42
0.414685
10
-59.373999
20
-17.533000
10
-59.373999
20
-17.533000
10
-60.273999
20
-17.533000
10
-60.273999
20
-17.533000
42
0.414639
10
-60.522998
20
-17.782001
10
-60.522998
20
-17.782001
10
-60.522998
20
-18.307001
10
-60.522998
20
-18.307001
42
0.413744
10
-60.273999
20
-18.556001
10
-60.273999
20
-18.556001
10
-60.056997
20
-18.556001
10
-60.056997
20
-18.556001
10
-60.056997
20
-18.215001
10
-60.056997
20
-18.215001
10
-59.591001
20
-18.215001
10
-59.591001
20
-18.215001
10
-59.591001
20
-18.556001
10
-59.591001
20
-18.556001
10
-59.373999
20
-18.556001
10
-59.373999
20
-18.556001
42
0.413790
10
-59.125000
20
-18.307001
10
-59.125000
20
-18.307001
10
-59.125000
20
-17.782001
0
LWPOLYLINE
5
1272
100
AcDbEntity
8
0
100
AcDbPolyline
90
24
70
0
43
0.000000
10
-61.375000
20
-17.782001
42
0.414668
10
-61.623999
20
-17.533000
10
-61.623999
20
-17.533000
10
-62.523999
20
-17.533000
10
-62.523999
20
-17.533000
42
0.414633
10
-62.772998
20
-17.782001
10
-62.772998
20
-17.782001
10
-62.772998
20
-18.307001
10
-62.772998
20
-18.307001
42
0.413756
10
-62.523999
20
-18.556001
10
-62.523999
20
-18.556001
10
-62.307002
20
-18.556001
10
-62.307002
20
-18.556001
10
-62.307002
20
-18.215001
10
-62.307002
20
-18.215001
10
-61.841001
20
-18.215001
10
-61.841001
20
-18.215001
10
-61.841001
20
-18.556001
10
-61.841001
20
-18.556001
10
-61.623999
20
-18.556001
10
-61.623999
20
-18.556001
42
0.413790
10
-61.375000
20
-18.307001
10
-61.375000
20
-18.307001
10
-61.375000
20
-17.782001
0
LWPOLYLINE
5
1273
100
AcDbEntity
8
0
100
AcDbPolyline
90
24
70
0
43
0.000000
10
-63.625000
20
-17.782001
42
0.414685
10
-63.873999
20
-17.533000
10
-63.873999
20
-17.533000
10
-64.773999
20
-17.533000
10
-64.773999
20
-17.533000
42
0.414633
10
-65.022998
20
-17.782001
10
-65.022998
20
-17.782001
10
-65.022998
20
-18.307001
10
-65.022998
20
-18.307001
42
0.413744
10
-64.773999
20
-18.556001
10
-64.773999
20
-18.556001
10
-64.557002
20
-18.556001
10
-64.557002
20
-18.556001
10
-64.557002
20
-18.215001
10
-64.557002
20
-18.215001
10
-64.090996
20
-18.215001
10
-64.090996
20
-18.215001
10
-64.090996
20
-18.556001
10
-64.090996
20
-18.556001
10
-63.873999
20
-18.556001
10
-63.873999
20
-18.556001
42
0.413796
10
-63.625000
20
-18.307001
10
-63.625000
20
-18.307001
10
-63.625000
20
-17.782001
0
LWPOLYLINE
5
1274
100
AcDbEntity
8
0
100
AcDbPolyline
90
24
70
0
43
0.000000
10
-59.125000
20
-19.606000
42
0.413505
10
-59.373999
20
-19.357999
10
-59.373999
20
-19.357999
10
-59.591001
20
-19.357999
10
-59.591001
20
-19.357999
10
-59.591001
20
-19.697999
10
-59.591001
20
-19.697999
10
-60.056997
20
-19.697999
10
-60.056997
20
-19.697999
10
-60.056997
20
-19.357999
10
-60.056997
20
-19.357999
10
-60.273999
20
-19.357999
10
-60.273999
20
-19.357999
42
0.414636
10
-60.522998
20
-19.607000
10
-60.522998
20
-19.607000
10
-60.522998
20
-20.132000
10
-60.522998
20
-20.132000
42
0.413747
10
-60.273999
20
-20.381000
10
-60.273999
20
-20.381000
10
-59.373999
20
-20.381000
10
-59.373999
20
-20.381000
42
0.413793
10
-59.125000
20
-20.132000
10
-59.125000
20
-20.132000
10
-59.125000
20
-19.606000
0
LWPOLYLINE
5
1275
100
AcDbEntity
8
0
100
AcDbPolyline
90
24
70
0
43
0.000000
10
-61.375000
20
-19.606000
42
0.413488
10
-61.623999
20
-19.357999
10
-61.623999
20
-19.357999
10
-61.841001
20
-19.357999
10
-61.841001
20
-19.357999
10
-61.841001
20
-19.697999
10
-61.841001
20
-19.697999
10
-62.307002
20
-19.697999
10
-62.307002
20
-19.697999
10
-62.307002
20
-19.357999
10
-62.307002
20
-19.357999
10
-62.523999
20
-19.357999
10
-62.523999
20
-19.357999
42
0.414630
10
-62.772998
20
-19.607000
10
-62.772998
20
-19.607000
10
-62.772998
20
-20.132000
10
-62.772998
20
-20.132000
42
0.413759
10
-62.523999
20
-20.381000
10
-62.523999
20
-20.381000
10
-61.623999
20
-20.381000
10
-61.623999
20
-20.381000
42
0.413793
10
-61.375000
20
-20.132000
10
-61.375000
20
-20.132000
10
-61.375000
20
-19.606000
0
LWPOLYLINE
5
1276
100
AcDbEntity
8
0
100
AcDbPolyline
90
24
70
0
43
0.000000
10
-63.625000
20
-19.606000
42
0.413505
10
-63.873999
20
-19.357999
10
-63.873999
20
-19.357999
10
-64.090996
20
-19.357999
10
-64.090996
20
-19.357999
10
-64.090996
20
-19.697999
10
-64.090996
20
-19.697999
10
-64.557002
20
-19.697999
10
-64.557002
20
-19.697999
10
-64.557002
20
-19.357999
10
-64.557002
20
-19.357999
10
-64.773999
20
-19.357999
10
-64.773999
20
-19.357999
42
0.414630
10
-65.022998
20
-19.607000
10
-65.022998
20
-19.607000
10
-65.022998
20
-20.132000
10
-65.022998
20
-20.132000
42
0.413747
10
-64.773999
20
-20.381000
10
-64.773999
20
-20.381000
10
-63.873999
20
-20.381000
10
-63.873999
20
-20.381000
42
0.413799
10
-63.625000
20
-20.132000
10
-63.625000
20
-20.132000
10
-63.625000
20
-19.606000
0
LWPOLYLINE
5
1277
100
AcDbEntity
8
0
100
AcDbPolyline
90
8
70
0
43
0.000000
10
-39.947000
20
-21.508000
10
-40.300999
20
-21.862000
10
-40.300999
20
-21.862000
10
-39.735000
20
-22.427000
10
-39.735000
20
-22.427000
10
-39.381001
20
-22.073999
10
-39.381001
20
-22.073999
10
-39.947000
20
-21.508000
0
LWPOLYLINE
5
1278
100
AcDbEntity
8
0
100
AcDbPolyline
90
8
70
0
43
0.000000
10
-84.971006
20
-21.508000
10
-85.537002
20
-22.073999
10
-85.537002
20
-22.073999
10
-85.182998
20
-22.427000
10
-85.182998
20
-22.427000
10
-84.617998
20
-21.862000
10
-84.617998
20
-21.862000
10
-84.971006
20
-21.508000
0
LWPOLYLINE
5
1279
100
AcDbEntity
8
0
100
AcDbPolyline
90
8
70
0
43
0.000000
10
-40.583000
20
-22.145000
10
-40.937000
20
-22.498000
10
-40.937000
20
-22.498000
10
-40.371001
20
-23.064001
10
-40.371001
20
-23.064001
10
-40.018000
20
-22.710000
10
-40.018000
20
-22.710000
10
-40.583000
20
-22.145000
0
LWPOLYLINE
5
1280
100
AcDbEntity
8
0
100
AcDbPolyline
90
8
70
0
43
0.000000
10
-84.335000
20
-22.145000
10
-84.900000
20
-22.710000
10
-84.900000
20
-22.710000
10
-84.547002
20
-23.064001
10
-84.547002
20
-23.064001
10
-83.980996
20
-22.498000
10
-83.980996
20
-22.498000
10
-84.335000
20
-22.145000
0
LWPOLYLINE
5
1281
100
AcDbEntity
8
0
100
AcDbPolyline
90
8
70
0
43
0.000000
10
-86.102002
20
-22.639001
10
-86.667998
20
-23.205000
10
-86.667998
20
-23.205000
10
-86.315000
20
-23.559001
10
-86.315000
20
-23.559001
10
-85.749004
20
-22.993000
10
-85.749004
20
-22.993000
10
-86.102002
20
-22.639001
0
LWPOLYLINE
5
1282
100
AcDbEntity
8
0
100
AcDbPolyline
90
8
70
0
43
0.000000
10
-38.816001
20
-22.640000
10
-39.168999
20
-22.993000
10
-39.168999
20
-22.993000
10
-38.603999
20
-23.559001
10
-38.603999
20
-23.559001
10
-38.250000
20
-23.205000
10
-38.250000
20
-23.205000
10
-38.816001
20
-22.640000
0
LWPOLYLINE
5
1283
100
AcDbEntity
8
0
100
AcDbPolyline
90
8
70
0
43
0.000000
10
-39.452002
20
-23.275999
10
-39.806001
20
-23.630000
10
-39.806001
20
-23.630000
10
-39.240000
20
-24.195000
10
-39.240000
20
-24.195000
10
-38.885999
20
-23.842000
10
-38.885999
20
-23.842000
10
-39.452002
20
-23.275999
0
LWPOLYLINE
5
1284
100
AcDbEntity
8
0
100
AcDbPolyline
90
8
70
0
43
0.000000
10
-85.465996
20
-23.275999
10
-86.032002
20
-23.842000
10
-86.032002
20
-23.842000
10
-85.677998
20
-24.195000
10
-85.677998
20
-24.195000
10
-85.112002
20
-23.629001
10
-85.112002
20
-23.629001
10
-85.465996
20
-23.275999
0
LWPOLYLINE
5
1285
100
AcDbEntity
8
0
100
AcDbPolyline
90
8
70
0
43
0.000000
10
-61.758999
20
-31.121001
10
-62.258999
20
-31.121001
10
-62.258999
20
-31.121001
10
-62.258999
20
-31.920999
10
-62.258999
20
-31.920999
10
-61.758999
20
-31.920999
10
-61.758999
20
-31.920999
10
-61.758999
20
-31.121001
0
LWPOLYLINE
5
1286
100
AcDbEntity
8
0
100
AcDbPolyline
90
8
70
0
43
0.000000
10
-62.659004
20
-31.121001
10
-63.158994
20
-31.121001
10
-63.158994
20
-31.121001
10
-63.158994
20
-31.920999
10
-63.158994
20
-31.920999
10
-62.659004
20
-31.920999
10
-62.659004
20
-31.920999
10
-62.659004
20
-31.121001
0
LWPOLYLINE
5
1287
100
AcDbEntity
8
0
100
AcDbPolyline
90
8
70
0
43
0.000000
10
-61.758999
20
-32.721001
10
-62.258999
20
-32.721001
10
-62.258999
20
-32.721001
10
-62.258999
20
-33.521001
10
-62.258999
20
-33.521001
10
-61.758999
20
-33.521001
10
-61.758999
20
-33.521001
10
-61.758999
20
-32.721001
0
LWPOLYLINE
5
1288
100
AcDbEntity
8
0
100
AcDbPolyline
90
8
70
0
43
0.000000
10
-62.659004
20
-32.721001
10
-63.158994
20
-32.721001
10
-63.158994
20
-32.721001
10
-63.158994
20
-33.521001
10
-63.158994
20
-33.521001
10
-62.659004
20
-33.521001
10
-62.659004
20
-33.521001
10
-62.659004
20
-32.721001
0
LWPOLYLINE
5
1289
100
AcDbEntity
8
0
100
AcDbPolyline
90
26
70
0
43
0.000000
10
-164.461992
20
-109.003760
10
-164.461992
20
-110.756377
10
-164.461992
20
-110.756377
10
-164.436602
20
-111.569170
10
-164.436602
20
-111.569170
10
-164.741426
20
-111.721553
10
-164.741426
20
-111.721553
10
-164.715977
20
-110.857969
10
-164.715977
20
-110.857969
10
-164.715977
20
-107.987773
10
-164.715977
20
-107.987773
10
-164.741426
20
-107.174971
10
-164.741426
20
-107.174971
10
-164.258809
20
-107.378164
10
-164.258809
20
-107.378164
10
-164.461992
20
-107.530576
10
-164.461992
20
-107.530576
10
-164.461992
20
-108.902168
10
-164.461992
20
-108.902168
10
-163.471367
20
-109.308545
10
-163.471367
20
-109.308545
10
-163.268174
20
-109.791172
10
-163.268174
20
-109.791172
10
-163.547607
20
-109.765771
10
-163.547607
20
-109.765771
10
-164.461992
20
-109.003760
0
LWPOLYLINE
5
1290
100
AcDbEntity
8
0
100
AcDbPolyline
90
44
70
0
43
0.000000
10
-166.468594
20
-107.174971
10
-166.011367
20
-107.428975
10
-166.011367
20
-107.428975
10
-166.163828
20
-107.530576
10
-166.163828
20
-107.530576
10
-166.468594
20
-108.317949
10
-166.468594
20
-108.317949
10
-165.630371
20
-108.317949
10
-165.630371
20
-108.317949
10
-165.478027
20
-108.089365
10
-165.478027
20
-108.089365
10
-165.071582
20
-108.419570
10
-165.071582
20
-108.419570
10
-165.554199
20
-109.257764
10
-165.554199
20
-109.257764
10
-166.366973
20
-110.705566
10
-166.366973
20
-110.705566
10
-167.560781
20
-111.569170
10
-167.560781
20
-111.569170
10
-167.611621
20
-111.518359
10
-167.611621
20
-111.518359
10
-166.265391
20
-110.197549
10
-166.265391
20
-110.197549
10
-165.604980
20
-108.419570
10
-165.604980
20
-108.419570
10
-166.519375
20
-108.419570
10
-166.519375
20
-108.419570
10
-166.824199
20
-109.079961
10
-166.824199
20
-109.079961
10
-166.163828
20
-109.460957
10
-166.163828
20
-109.460957
10
-166.189219
20
-109.765771
10
-166.189219
20
-109.765771
10
-166.392422
20
-109.714961
10
-166.392422
20
-109.714961
10
-166.874980
20
-109.156172
10
-166.874980
20
-109.156172
10
-167.535391
20
-109.968965
10
-167.535391
20
-109.968965
10
-167.586172
20
-109.918154
10
-167.586172
20
-109.918154
10
-166.874980
20
-108.571953
10
-166.874980
20
-108.571953
10
-166.468594
20
-107.174971
0
LWPOLYLINE
5
1291
100
AcDbEntity
8
0
100
AcDbPolyline
90
26
70
0
43
0.000000
10
-158.569189
20
-109.562549
10
-158.543799
20
-110.705566
10
-158.543799
20
-110.705566
10
-158.823223
20
-110.807158
10
-158.823223
20
-110.807158
10
-158.823223
20
-109.511768
10
-158.823223
20
-109.511768
10
-160.982217
20
-109.511768
10
-160.982217
20
-109.511768
10
-160.982217
20
-110.756377
10
-160.982217
20
-110.756377
10
-161.236201
20
-110.883359
10
-161.236201
20
-110.883359
10
-161.236201
20
-110.095957
10
-161.236201
20
-110.095957
10
-161.236201
20
-109.257764
10
-161.236201
20
-109.257764
10
-160.982217
20
-109.384756
10
-160.982217
20
-109.384756
10
-158.848613
20
-109.384756
10
-158.848613
20
-109.384756
10
-158.696201
20
-109.181563
10
-158.696201
20
-109.181563
10
-158.416777
20
-109.435566
10
-158.416777
20
-109.435566
10
-158.569189
20
-109.562549
0
LWPOLYLINE
5
1292
100
AcDbEntity
8
0
100
AcDbPolyline
90
18
70
0
43
0.000000
10
-160.067822
20
-109.664150
10
-159.585205
20
-109.892764
10
-159.585205
20
-109.892764
10
-159.788398
20
-110.019746
10
-159.788398
20
-110.019746
10
-160.042373
20
-110.908750
10
-160.042373
20
-110.908750
10
-160.753574
20
-111.467549
10
-160.753574
20
-111.467549
10
-161.972793
20
-111.721553
10
-161.972793
20
-111.721553
10
-161.998184
20
-111.645352
10
-161.998184
20
-111.645352
10
-160.702793
20
-111.213574
10
-160.702793
20
-111.213574
10
-160.194785
20
-110.578574
10
-160.194785
20
-110.578574
10
-160.067822
20
-109.664150
0
LWPOLYLINE
5
1293
100
AcDbEntity
8
0
100
AcDbPolyline
90
12
70
0
43
0.000000
10
-159.788398
20
-110.781768
10
-159.763008
20
-110.705566
10
-159.763008
20
-110.705566
10
-158.442227
20
-111.086553
10
-158.442227
20
-111.086553
10
-158.112021
20
-111.518359
10
-158.112021
20
-111.518359
10
-158.340605
20
-111.594561
10
-158.340605
20
-111.594561
10
-158.950176
20
-111.162764
10
-158.950176
20
-111.162764
10
-159.788398
20
-110.781768
0
LWPOLYLINE
5
1294
100
AcDbEntity
8
0
100
AcDbPolyline
90
38
70
0
43
0.000000
10
-161.464785
20
-108.724365
10
-160.474209
20
-108.419570
10
-160.474209
20
-108.419570
10
-160.855205
20
-107.936953
10
-160.855205
20
-107.936953
10
-160.804424
20
-107.886172
10
-160.804424
20
-107.886172
10
-160.194785
20
-108.317949
10
-160.194785
20
-108.317949
10
-160.144004
20
-108.698975
10
-160.144004
20
-108.698975
10
-160.347197
20
-108.749756
10
-160.347197
20
-108.749756
10
-160.448818
20
-108.495752
10
-160.448818
20
-108.495752
10
-161.083789
20
-108.800566
10
-161.083789
20
-108.800566
10
-161.591797
20
-109.156172
10
-161.591797
20
-109.156172
10
-161.794990
20
-108.876768
10
-161.794990
20
-108.876768
10
-161.718818
20
-108.571953
10
-161.718818
20
-108.571953
10
-161.744209
20
-107.454365
10
-161.744209
20
-107.454365
10
-161.464785
20
-107.657559
10
-161.464785
20
-107.657559
10
-160.855205
20
-107.428975
10
-160.855205
20
-107.428975
10
-160.448818
20
-107.098770
10
-160.448818
20
-107.098770
10
-160.118613
20
-107.454365
10
-160.118613
20
-107.454365
10
-160.702793
20
-107.555967
10
-160.702793
20
-107.555967
10
-161.464785
20
-107.759160
10
-161.464785
20
-107.759160
10
-161.464785
20
-108.724365
0
LWPOLYLINE
5
1295
100
AcDbEntity
8
0
100
AcDbPolyline
90
36
70
0
43
0.000000
10
-160.144004
20
-107.581357
10
-158.315215
20
-107.581357
10
-158.315215
20
-107.581357
10
-158.137412
20
-107.378164
10
-158.137412
20
-107.378164
10
-157.832588
20
-107.657559
10
-157.832588
20
-107.657559
10
-158.010391
20
-107.759160
10
-158.010391
20
-107.759160
10
-158.264424
20
-108.851348
10
-158.264424
20
-108.851348
10
-158.670811
20
-109.156172
10
-158.670811
20
-109.156172
10
-159.153369
20
-108.749756
10
-159.153369
20
-108.749756
10
-159.127979
20
-108.673555
10
-159.127979
20
-108.673555
10
-158.620029
20
-108.749756
10
-158.620029
20
-108.749756
10
-158.416777
20
-108.495752
10
-158.416777
20
-108.495752
10
-158.289824
20
-107.708369
10
-158.289824
20
-107.708369
10
-159.102588
20
-107.708369
10
-159.102588
20
-107.708369
10
-160.474209
20
-109.257764
10
-160.474209
20
-109.257764
10
-160.499600
20
-109.206953
10
-160.499600
20
-109.206953
10
-159.382012
20
-107.708369
10
-159.382012
20
-107.708369
10
-159.508975
20
-107.708369
10
-159.508975
20
-107.708369
10
-159.966201
20
-107.759160
10
-159.966201
20
-107.759160
10
-160.144004
20
-107.581357
0
LWPOLYLINE
5
1296
100
AcDbEntity
8
0
100
AcDbPolyline
90
16
70
0
43
0.000000
10
-152.001592
20
-107.158369
10
-152.001592
20
-107.336172
10
-152.001592
20
-107.336172
10
-152.992217
20
-107.336172
10
-152.992217
20
-107.336172
10
-152.992217
20
-111.323975
10
-152.992217
20
-111.323975
10
-152.001592
20
-111.323975
10
-152.001592
20
-111.323975
10
-152.001592
20
-111.501777
10
-152.001592
20
-111.501777
10
-153.195410
20
-111.501777
10
-153.195410
20
-111.501777
10
-153.195410
20
-107.158369
10
-153.195410
20
-107.158369
10
-152.001592
20
-107.158369
0
LWPOLYLINE
5
1297
100
AcDbEntity
8
0
100
AcDbPolyline
90
54
70
0
43
0.000000
10
-150.477617
20
-108.148965
10
-150.503008
20
-107.031367
10
-150.503008
20
-107.031367
10
-150.020391
20
-107.234570
10
-150.020391
20
-107.234570
10
-150.198193
20
-107.386973
10
-150.198193
20
-107.386973
10
-150.198193
20
-108.148965
10
-150.198193
20
-108.148965
10
-149.512441
20
-108.148965
10
-149.512441
20
-108.148965
10
-149.334639
20
-107.971172
10
-149.334639
20
-107.971172
10
-149.055215
20
-108.225176
10
-149.055215
20
-108.225176
10
-149.233018
20
-108.352178
10
-149.233018
20
-108.352178
10
-149.436201
20
-110.993770
10
-149.436201
20
-110.993770
10
-149.969609
20
-111.425566
10
-149.969609
20
-111.425566
10
-150.528398
20
-110.942969
10
-150.528398
20
-110.942969
10
-150.503008
20
-110.841367
10
-150.503008
20
-110.841367
10
-149.791807
20
-110.942969
10
-149.791807
20
-110.942969
10
-149.588613
20
-110.460381
10
-149.588613
20
-110.460381
10
-149.486992
20
-108.275977
10
-149.486992
20
-108.275977
10
-150.198193
20
-108.275977
10
-150.198193
20
-108.275977
10
-150.274424
20
-109.393574
10
-150.274424
20
-109.393574
10
-150.553789
20
-110.434971
10
-150.553789
20
-110.434971
10
-151.392012
20
-111.552578
10
-151.392012
20
-111.552578
10
-151.468184
20
-111.501777
10
-151.468184
20
-111.501777
10
-150.807832
20
-110.460381
10
-150.807832
20
-110.460381
10
-150.553789
20
-109.418965
10
-150.553789
20
-109.418965
10
-150.477617
20
-108.275977
10
-150.477617
20
-108.275977
10
-151.011016
20
-108.275977
10
-151.011016
20
-108.275977
10
-151.239600
20
-108.326768
10
-151.239600
20
-108.326768
10
-151.392012
20
-108.148965
10
-151.392012
20
-108.148965
10
-150.477617
20
-108.148965
0
LWPOLYLINE
5
1298
100
AcDbEntity
8
0
100
AcDbPolyline
90
28
70
0
43
0.000000
10
-147.175645
20
-108.250566
10
-147.175645
20
-110.384170
10
-147.175645
20
-110.384170
10
-147.150186
20
-111.273174
10
-147.150186
20
-111.273174
10
-147.429619
20
-111.400166
10
-147.429619
20
-111.400166
10
-147.429619
20
-110.866777
10
-147.429619
20
-110.866777
10
-148.471025
20
-110.866777
10
-148.471025
20
-110.866777
10
-148.471025
20
-111.374775
10
-148.471025
20
-111.374775
10
-148.750391
20
-111.501777
10
-148.750391
20
-111.501777
10
-148.725000
20
-109.698379
10
-148.725000
20
-109.698379
10
-148.750391
20
-107.869570
10
-148.750391
20
-107.869570
10
-148.445635
20
-108.072764
10
-148.445635
20
-108.072764
10
-147.455010
20
-108.072764
10
-147.455010
20
-108.072764
10
-147.277207
20
-107.894961
10
-147.277207
20
-107.894961
10
-147.023232
20
-108.148965
10
-147.023232
20
-108.148965
10
-147.175645
20
-108.250566
0
LWPOLYLINE
5
1299
100
AcDbEntity
8
0
100
AcDbPolyline
90
8
70
0
43
0.000000
10
-148.471025
20
-108.174375
10
-148.471025
20
-110.739775
10
-148.471025
20
-110.739775
10
-147.429619
20
-110.739775
10
-147.429619
20
-110.739775
10
-147.429619
20
-108.174375
10
-147.429619
20
-108.174375
10
-148.471025
20
-108.174375
0
LWPOLYLINE
5
1300
100
AcDbEntity
8
0
100
AcDbPolyline
90
8
70
0
43
0.000000
10
-144.356221
20
-107.717178
10
-145.016641
20
-108.326768
10
-145.016641
20
-108.326768
10
-143.441826
20
-108.326768
10
-143.441826
20
-108.326768
10
-143.035439
20
-107.717178
10
-143.035439
20
-107.717178
10
-144.356221
20
-107.717178
0
LWPOLYLINE
5
1301
100
AcDbEntity
8
0
100
AcDbPolyline
90
64
70
0
43
0.000000
10
-141.994033
20
-108.555371
10
-141.968643
20
-109.926973
10
-141.968643
20
-109.926973
10
-142.273398
20
-110.053975
10
-142.273398
20
-110.053975
10
-142.273398
20
-109.799971
10
-142.273398
20
-109.799971
10
-144.534023
20
-109.799971
10
-144.534023
20
-109.799971
10
-144.991191
20
-109.850771
10
-144.991191
20
-109.850771
10
-145.168994
20
-109.672969
10
-145.168994
20
-109.672969
10
-142.273398
20
-109.672969
10
-142.273398
20
-109.672969
10
-142.273398
20
-109.088770
10
-142.273398
20
-109.088770
10
-144.229199
20
-109.088770
10
-144.229199
20
-109.088770
10
-144.711826
20
-109.139570
10
-144.711826
20
-109.139570
10
-144.889619
20
-108.961768
10
-144.889619
20
-108.961768
10
-142.273398
20
-108.961768
10
-142.273398
20
-108.961768
10
-142.273398
20
-108.453770
10
-142.273398
20
-108.453770
10
-144.483242
20
-108.453770
10
-144.483242
20
-108.453770
10
-144.889619
20
-108.504570
10
-144.889619
20
-108.504570
10
-145.042031
20
-108.352178
10
-145.042031
20
-108.352178
10
-145.753232
20
-108.860176
10
-145.753232
20
-108.860176
10
-145.778623
20
-108.809375
10
-145.778623
20
-108.809375
10
-145.143594
20
-108.250566
10
-145.143594
20
-108.250566
10
-144.584805
20
-107.564766
10
-144.584805
20
-107.564766
10
-144.254600
20
-106.980566
10
-144.254600
20
-106.980566
10
-143.848213
20
-107.259971
10
-143.848213
20
-107.259971
10
-144.280049
20
-107.590176
10
-144.280049
20
-107.590176
10
-143.060830
20
-107.590176
10
-143.060830
20
-107.590176
10
-142.883037
20
-107.386973
10
-142.883037
20
-107.386973
10
-142.502041
20
-107.742568
10
-142.502041
20
-107.742568
10
-142.806797
20
-107.844170
10
-142.806797
20
-107.844170
10
-143.340195
20
-108.326768
10
-143.340195
20
-108.326768
10
-142.324238
20
-108.326768
10
-142.324238
20
-108.326768
10
-142.121045
20
-108.148965
10
-142.121045
20
-108.148965
10
-141.816230
20
-108.402979
10
-141.816230
20
-108.402979
10
-141.994033
20
-108.555371
0
LWPOLYLINE
5
1302
100
AcDbEntity
8
0
100
AcDbPolyline
90
12
70
0
43
0.000000
10
-145.042031
20
-110.307969
10
-145.168994
20
-111.019170
10
-145.168994
20
-111.019170
10
-145.423027
20
-111.247773
10
-145.423027
20
-111.247773
10
-145.626221
20
-111.171563
10
-145.626221
20
-111.171563
10
-145.473809
20
-110.892168
10
-145.473809
20
-110.892168
10
-145.118203
20
-110.307969
10
-145.118203
20
-110.307969
10
-145.042031
20
-110.307969
0
LWPOLYLINE
5
1303
100
AcDbEntity
8
0
100
AcDbPolyline
90
10
70
0
43
0.000000
10
-143.898994
20
-109.850771
10
-143.264023
20
-110.180967
10
-143.264023
20
-110.180967
10
-143.238633
20
-110.511172
10
-143.238633
20
-110.511172
10
-143.467217
20
-110.460381
10
-143.467217
20
-110.460381
10
-143.949834
20
-109.901572
10
-143.949834
20
-109.901572
10
-143.898994
20
-109.850771
0
LWPOLYLINE
5
1304
100
AcDbEntity
8
0
100
AcDbPolyline
90
10
70
0
43
0.000000
10
-142.324238
20
-110.206377
10
-142.248008
20
-110.155576
10
-142.248008
20
-110.155576
10
-141.562197
20
-110.612773
10
-141.562197
20
-110.612773
10
-141.562197
20
-110.993770
10
-141.562197
20
-110.993770
10
-141.816230
20
-110.917578
10
-141.816230
20
-110.917578
10
-142.324238
20
-110.206377
0
LWPOLYLINE
5
1305
100
AcDbEntity
8
0
100
AcDbPolyline
90
28
70
0
43
0.000000
10
-144.610195
20
-111.146172
10
-144.635586
20
-110.028574
10
-144.635586
20
-110.028574
10
-144.153027
20
-110.257168
10
-144.153027
20
-110.257168
10
-144.330830
20
-110.409561
10
-144.330830
20
-110.409561
10
-144.330830
20
-111.019170
10
-144.330830
20
-111.019170
10
-144.076797
20
-111.247773
10
-144.076797
20
-111.247773
10
-143.060830
20
-111.247773
10
-143.060830
20
-111.247773
10
-142.730625
20
-110.993770
10
-142.730625
20
-110.993770
10
-142.679844
20
-110.333379
10
-142.679844
20
-110.333379
10
-142.578213
20
-110.333379
10
-142.578213
20
-110.333379
10
-142.502041
20
-110.993770
10
-142.502041
20
-110.993770
10
-142.298789
20
-111.196973
10
-142.298789
20
-111.196973
10
-142.908428
20
-111.501777
10
-142.908428
20
-111.501777
10
-144.229199
20
-111.501777
10
-144.229199
20
-111.501777
10
-144.610195
20
-111.146172
0
LWPOLYLINE
5
1306
100
AcDbEntity
8
0
100
AcDbPolyline
90
16
70
0
43
0.000000
10
-139.606445
20
-111.501777
10
-140.800205
20
-111.501777
10
-140.800205
20
-111.501777
10
-140.800205
20
-111.323975
10
-140.800205
20
-111.323975
10
-139.809639
20
-111.323975
10
-139.809639
20
-111.323975
10
-139.809639
20
-107.336172
10
-139.809639
20
-107.336172
10
-140.800205
20
-107.336172
10
-140.800205
20
-107.336172
10
-140.800205
20
-107.158369
10
-140.800205
20
-107.158369
10
-139.606445
20
-107.158369
10
-139.606445
20
-107.158369
10
-139.606445
20
-111.501777
0
LWPOLYLINE
5
1307
100
AcDbEntity
8
0
100
AcDbPolyline
90
16
70
0
43
0.000000
10
-189.999551
20
135.000439
42
-0.414214
10
-184.999531
20
140.000430
10
-184.999531
20
140.000430
10
185.000469
20
140.000430
10
185.000469
20
140.000430
42
-0.414214
10
190.000469
20
135.000439
10
190.000469
20
135.000439
10
190.000469
20
-134.999561
10
190.000469
20
-134.999561
42
-0.414214
10
185.000469
20
-139.999570
10
185.000469
20
-139.999570
10
-184.999531
20
-139.999570
10
-184.999531
20
-139.999570
42
-0.414214
10
-189.999551
20
-134.999561
10
-189.999551
20
-134.999561
10
-189.999551
20
135.000439
  0
ENDSEC
  0
SECTION
  2
OBJECTS
  0
DICTIONARY
  5
C
330
0
100
AcDbDictionary
  3
ACAD_GROUP
350
D
  3
ACAD_PLOTSTYLENAME
350
E
  3
ACAD_MLINESTYLE
350
17
  3
ACAD_PLOTSETTINGS
350
19
  3
ACAD_LAYOUT
350
1A
  3
ACDBHEADERROUNDTRIPXREC
350
2C
  0
DICTIONARY
  5
4E
330
1F
100
AcDbDictionary
280
     1
  3
ACAD_LAYOUTSELFREF
360
4F
  0
DICTIONARY
  5
4C
330
1B
100
AcDbDictionary
280
     1
  3
ACAD_LAYOUTSELFREF
360
4D
  0
DICTIONARY
  5
D
102
{ACAD_REACTORS
330
C
102
}
330
C
100
AcDbDictionary
  0
ACDBDICTIONARYWDFLT
  5
E
102
{ACAD_REACTORS
330
C
102
}
330
C
100
AcDbDictionary
281
     1
  3
Normal
350
F
100
AcDbDictionaryWithDefault
340
F
  0
DICTIONARY
  5
17
102
{ACAD_REACTORS
330
C
102
}
330
C
100
AcDbDictionary
  3
STANDARD
350
18
  0
DICTIONARY
  5
19
102
{ACAD_REACTORS
330
C
102
}
330
C
100
AcDbDictionary
  0
DICTIONARY
  5
1A
102
{ACAD_REACTORS
330
C
102
}
330
C
100
AcDbDictionary
  0
DICTIONARY
  5
2C
102
{ACAD_REACTORS
330
C
102
}
330
C
100
AcDbDictionary
  3
TSTACKALIGN
350
2D
  3
TSTACKSIZE
350
2E
  3
HYPERLINKBASE
350
2F
  3
STYLESHEET
350
30
  3
LAYOUTDICT
350
31
  3
PLOTSETDICT
350
32
  3
PLOTSTYLNAMDICT
350
33
  3
LWETCUNION
350
34
  3
INSUNITS
350
35
  3
CEPSNTYPE
350
36
  3
FINGERPRINTGUID
350
37
  3
VERSIONGUID
350
38
  3
PSVPSCALE
350
39
  3
PUCSORTHOREF
350
3A
  3
PUCSORTHOVIEW
350
3B
  3
PUCSBASE
350
3C
  3
PUCSORGTOP
350
3D
  3
PUCSORGBOTTOM
350
3E
  3
PUCSORGLEFT
350
3F
  3
PUCSORGRIGHT
350
40
  3
PUCSORGFRONT
350
41
  3
PUCSORGBACK
350
42
  3
UCSORTHOREF
350
43
  3
UCSORTHOVIEW
350
44
  3
UCSBASE
350
45
  3
UCSORGTOP
350
46
  3
UCSORGBOTTOM
350
47
  3
UCSORGLEFT
350
48
  3
UCSORGRIGHT
350
49
  3
UCSORGFRONT
350
4A
  3
UCSORGBACK
350
4B
  0
XRECORD
  5
4F
102
{ACAD_REACTORS
330
4E
102
}
330
4E
100
AcDbXrecord
340
1F
  0
XRECORD
  5
4D
102
{ACAD_REACTORS
330
4C
102
}
330
4C
100
AcDbXrecord
340
1B
  0
ACDBPLACEHOLDER
  5
F
102
{ACAD_REACTORS
330
E
102
}
330
E
100
AcDbPlaceHolder
280
     0
  0
MLINESTYLE
  5
18
102
{ACAD_REACTORS
330
17
102
}
330
17
100
AcDbMlineStyle
  2
STANDARD
 70
     0
  3

 62
   256
 51
90.0
 52
90.0
 71
     2
 49
0.5
 62
   256
  6
BYLAYER
 49
-0.5
 62
   256
  6
BYLAYER
  0
XRECORD
  5
2D
102
{ACAD_REACTORS
330
2C
102
}
330
2C
100
AcDbXrecord
 90
        1
  0
XRECORD
  5
2E
102
{ACAD_REACTORS
330
2C
102
}
330
2C
100
AcDbXrecord
 90
       70
  0
XRECORD
  5
2F
102
{ACAD_REACTORS
330
2C
102
}
330
2C
100
AcDbXrecord
  1

  0
XRECORD
  5
30
102
{ACAD_REACTORS
330
2C
102
}
330
2C
100
AcDbXrecord
  1

  0
XRECORD
  5
31
102
{ACAD_REACTORS
330
2C
102
}
330
2C
100
AcDbXrecord
340
1A
  0
XRECORD
  5
32
102
{ACAD_REACTORS
330
2C
102
}
330
2C
100
AcDbXrecord
340
19
  0
XRECORD
  5
33
102
{ACAD_REACTORS
330
2C
102
}
330
2C
100
AcDbXrecord
340
E
  0
XRECORD
  5
34
102
{ACAD_REACTORS
330
2C
102
}
330
2C
100
AcDbXrecord
 90
    10781
  0
XRECORD
  5
35
102
{ACAD_REACTORS
330
2C
102
}
330
2C
100
AcDbXrecord
 90
        1
  0
XRECORD
  5
36
102
{ACAD_REACTORS
330
2C
102
}
330
2C
100
AcDbXrecord
 90
        0
  0
XRECORD
  5
37
102
{ACAD_REACTORS
330
2C
102
}
330
2C
100
AcDbXrecord
  1
{52E71EDF-FFAA-4562-8346-3267B235A6A4}
  0
XRECORD
  5
38
102
{ACAD_REACTORS
330
2C
102
}
330
2C
100
AcDbXrecord
  1
{9F761B99-1ECE-458C-A54E-C2AD2766E43A}
  0
XRECORD
  5
39
102
{ACAD_REACTORS
330
2C
102
}
330
2C
100
AcDbXrecord
 40
0.0
  0
XRECORD
  5
3A
102
{ACAD_REACTORS
330
2C
102
}
330
2C
100
AcDbXrecord
340
0
  0
XRECORD
  5
3B
102
{ACAD_REACTORS
330
2C
102
}
330
2C
100
AcDbXrecord
 70
     0
  0
XRECORD
  5
3C
102
{ACAD_REACTORS
330
2C
102
}
330
2C
100
AcDbXrecord
340
0
  0
XRECORD
  5
3D
102
{ACAD_REACTORS
330
2C
102
}
330
2C
100
AcDbXrecord
 10
0.0
 20
0.0
 30
0.0
  0
XRECORD
  5
3E
102
{ACAD_REACTORS
330
2C
102
}
330
2C
100
AcDbXrecord
 10
0.0
 20
0.0
 30
0.0
  0
XRECORD
  5
3F
102
{ACAD_REACTORS
330
2C
102
}
330
2C
100
AcDbXrecord
 10
0.0
 20
0.0
 30
0.0
  0
XRECORD
  5
40
102
{ACAD_REACTORS
330
2C
102
}
330
2C
100
AcDbXrecord
 10
0.0
 20
0.0
 30
0.0
  0
XRECORD
  5
41
102
{ACAD_REACTORS
330
2C
102
}
330
2C
100
AcDbXrecord
 10
0.0
 20
0.0
 30
0.0
  0
XRECORD
  5
42
102
{ACAD_REACTORS
330
2C
102
}
330
2C
100
AcDbXrecord
 10
0.0
 20
0.0
 30
0.0
  0
XRECORD
  5
43
102
{ACAD_REACTORS
330
2C
102
}
330
2C
100
AcDbXrecord
340
0
  0
XRECORD
  5
44
102
{ACAD_REACTORS
330
2C
102
}
330
2C
100
AcDbXrecord
 70
     0
  0
XRECORD
  5
45
102
{ACAD_REACTORS
330
2C
102
}
330
2C
100
AcDbXrecord
340
0
  0
XRECORD
  5
46
102
{ACAD_REACTORS
330
2C
102
}
330
2C
100
AcDbXrecord
 10
0.0
 20
0.0
 30
0.0
  0
XRECORD
  5
47
102
{ACAD_REACTORS
330
2C
102
}
330
2C
100
AcDbXrecord
 10
0.0
 20
0.0
 30
0.0
  0
XRECORD
  5
48
102
{ACAD_REACTORS
330
2C
102
}
330
2C
100
AcDbXrecord
 10
0.0
 20
0.0
 30
0.0
  0
XRECORD
  5
49
102
{ACAD_REACTORS
330
2C
102
}
330
2C
100
AcDbXrecord
 10
0.0
 20
0.0
 30
0.0
  0
XRECORD
  5
4A
102
{ACAD_REACTORS
330
2C
102
}
330
2C
100
AcDbXrecord
 10
0.0
 20
0.0
 30
0.0
  0
XRECORD
  5
4B
102
{ACAD_REACTORS
330
2C
102
}
330
2C
100
AcDbXrecord
 10
0.0
 20
0.0
 30
0.0
  0
ENDSEC
  0
EOF
